<svg xmlns="http://www.w3.org/2000/svg" width="58.974" height="59.365" viewBox="0 0 58.974 59.365">
  <g id="Group_548" data-name="Group 548" transform="translate(-257.453 -152.888)">
    <path id="Path_17" data-name="Path 17" d="M289.079,165.263a4.047,4.047,0,0,1-.691,5.68,4,4,0,0,1-1.919.819c-.147.007-.3.024-.444.038-.011,0-.029,0-.04.006a6.969,6.969,0,0,0-5.524,9.672s0,.011.009.018a1,1,0,0,1-1.6,1.1.007.007,0,0,1-.006-.008c-.044-.041-.088-.089-.132-.137l-.019-.024c-.147-.164-.288-.337-.426-.513a11.333,11.333,0,0,1,6.5-18.056c.014-.005.032-.006.046-.012.248-.054.494-.1.74-.13a.132.132,0,0,1,.035,0,4.049,4.049,0,0,1,3.474,1.548" transform="translate(0.298 0.054)" fill="#fff"/>
    <path id="Path_18" data-name="Path 18" d="M304,184.378a4.047,4.047,0,0,1-6.5-2.611c-.007-.146-.023-.3-.037-.444,0-.01,0-.028-.006-.039a6.969,6.969,0,0,0-9.672-5.524s-.011,0-.018.008a1,1,0,0,1-1.1-1.6.007.007,0,0,1,.008-.006c.041-.044.089-.088.137-.133l.024-.018c.163-.147.337-.289.513-.427a11.333,11.333,0,0,1,18.056,6.5c0,.015.006.033.011.047.055.248.1.494.13.74a.08.08,0,0,1,0,.035A4.047,4.047,0,0,1,304,184.378" transform="translate(0.35 0.091)" fill="#fff"/>
    <path id="Path_19" data-name="Path 19" d="M284.907,199.053a4.1,4.1,0,0,1,.572-5.767,3.821,3.821,0,0,1,1.914-.792c.148,0,.3-.018.446-.029l.04-.005a6.627,6.627,0,0,0,3.414-1.377,6.954,6.954,0,0,0,1.938-8.347s0-.011-.009-.019a1,1,0,0,1,.3-1.14,1.015,1.015,0,0,1,1.282.056.007.007,0,0,1,.007.007c.045.043.09.092.136.143l.019.024c.152.169.3.349.441.532a11.488,11.488,0,0,1-1.6,16.151,10.758,10.758,0,0,1-4.545,2.085c-.014.005-.032.006-.046.011-.248.05-.5.086-.743.116a.1.1,0,0,1-.035,0,4.243,4.243,0,0,1-3.533-1.651" transform="translate(0.338 0.142)" fill="#fff"/>
    <path id="Path_20" data-name="Path 20" d="M269.963,180.161a4.047,4.047,0,0,1,5.68.691,4,4,0,0,1,.819,1.919c.007.147.024.3.038.445l.006.039a6.969,6.969,0,0,0,9.672,5.524s.011,0,.019-.008a1,1,0,0,1,1.126.325,1.013,1.013,0,0,1-.026,1.273.007.007,0,0,1-.008.006c-.041.044-.089.088-.137.133l-.024.018c-.163.147-.337.288-.513.427a11.333,11.333,0,0,1-18.056-6.5c-.005-.015-.006-.033-.011-.047-.055-.248-.1-.494-.131-.74a.1.1,0,0,1,0-.035,4.047,4.047,0,0,1,1.547-3.474" transform="translate(0.261 0.132)" fill="#fff"/>
    <path id="Path_21" data-name="Path 21" d="M312.779,171.762a4.048,4.048,0,0,1-5.549,1.4,4,4,0,0,1-1.455-1.5c-.059-.135-.13-.268-.2-.4-.006-.009-.014-.026-.02-.035a6.969,6.969,0,0,0-11.012-1.672c0,.005-.009.006-.014.015a1,1,0,0,1-1.6-1.1.006.006,0,0,1,.005-.008,1.9,1.9,0,0,1,.079-.173l.016-.026c.1-.195.21-.39.325-.583a11.334,11.334,0,0,1,19.183-.439.357.357,0,0,0,.028.04c.141.212.267.427.387.643a.12.12,0,0,1,.015.032,4.048,4.048,0,0,1-.192,3.8" transform="translate(0.383 0.046)" fill="#fff"/>
    <path id="Path_22" data-name="Path 22" d="M299.368,207.515a4.047,4.047,0,0,1-2.138-5.308,4,4,0,0,1,1.284-1.643c.125-.077.248-.165.372-.248.007-.007.022-.017.031-.024a6.97,6.97,0,0,0,.166-11.138s-.007-.008-.016-.012a1,1,0,0,1,.867-1.735.009.009,0,0,1,.01,0c.059.014.12.035.182.056l.027.012c.207.071.415.155.621.242a11.334,11.334,0,0,1,3.033,18.947c-.011.012-.025.022-.036.033-.191.168-.386.324-.584.471a.177.177,0,0,1-.03.02,4.052,4.052,0,0,1-3.79.323" transform="translate(0.403 0.172)" fill="#fff"/>
    <path id="Path_23" data-name="Path 23" d="M262.3,196.366a4.046,4.046,0,0,1,5.194-2.4,4,4,0,0,1,1.706,1.2c.083.121.177.24.266.358.008.008.018.023.026.03a6.968,6.968,0,0,0,11.131-.393s.008-.008.012-.017a1,1,0,0,1,1.776.78.006.006,0,0,1,0,.009c-.011.059-.029.122-.046.185l-.01.028c-.061.21-.135.422-.212.632a11.332,11.332,0,0,1-18.771,3.981c-.012-.01-.022-.024-.034-.034-.177-.182-.342-.369-.5-.56a.1.1,0,0,1-.021-.029,4.047,4.047,0,0,1-.514-3.768" transform="translate(0.229 0.204)" fill="#fff"/>
    <path id="Path_24" data-name="Path 24" d="M272.808,157.725a4.047,4.047,0,0,1,1.084,6.92c-.122.08-.243.173-.362.26l-.031.024a6.969,6.969,0,0,0,.205,11.137s.007.008.017.012a1,1,0,0,1-.81,1.763.007.007,0,0,1-.01,0c-.059-.013-.121-.031-.183-.05l-.028-.01c-.21-.065-.42-.142-.629-.222A11.333,11.333,0,0,1,268.4,158.72c.01-.012.025-.023.035-.035.185-.174.375-.335.568-.489a.114.114,0,0,1,.03-.021,4.047,4.047,0,0,1,3.776-.449" transform="translate(0.243 0.023)" fill="#fff"/>
    <path id="Path_25" data-name="Path 25" d="M309.86,194.609a4.047,4.047,0,0,1-3.358-4.633,3.99,3.99,0,0,1,.848-1.905c.1-.106.2-.22.3-.331.006-.009.018-.022.024-.031a6.969,6.969,0,0,0-2.532-10.847c-.005,0-.009-.007-.019-.008a1,1,0,0,1,.423-1.893.007.007,0,0,1,.01,0c.06,0,.126.005.19.01l.03,0c.217.02.439.05.661.085a11.334,11.334,0,0,1,7.524,17.652c-.008.014-.02.027-.027.041-.145.209-.3.407-.454.6a.078.078,0,0,1-.023.026,4.046,4.046,0,0,1-3.6,1.23" transform="translate(0.441 0.11)" fill="#fff"/>
    <path id="Path_26" data-name="Path 26" d="M277.746,207.469a4.044,4.044,0,0,1,3.866-4.217,4,4,0,0,1,2.038.448c.123.08.255.153.383.228.01,0,.025.013.036.019a6.972,6.972,0,0,0,10.119-4.656.112.112,0,0,0,0-.02,1,1,0,0,1,1.939.035.007.007,0,0,1,0,.01c.012.059.02.124.028.189l0,.028c.023.219.038.442.048.667a11.336,11.336,0,0,1-15.785,10.909c-.015-.006-.031-.015-.045-.019-.234-.1-.458-.208-.677-.325a.121.121,0,0,1-.03-.018,4.047,4.047,0,0,1-1.927-3.279" transform="translate(0.307 0.228)" fill="#fff"/>
    <path id="Path_27" data-name="Path 27" d="M262.093,172.911a4.046,4.046,0,0,1,4.061,4.032,4,4,0,0,1-.531,2.017c-.084.121-.163.25-.242.375l-.02.034a6.97,6.97,0,0,0,4.248,10.3c.005,0,.01.005.02.005a1,1,0,0,1-.113,1.937.007.007,0,0,1-.01,0c-.059.01-.125.015-.189.021h-.03c-.219.015-.442.021-.666.021a11.333,11.333,0,0,1-10.272-16.206c.005-.015.015-.03.02-.045.108-.229.227-.449.351-.663a.1.1,0,0,1,.02-.03,4.047,4.047,0,0,1,3.353-1.794" transform="translate(0.205 0.1)" fill="#fff"/>
    <path id="Path_28" data-name="Path 28" d="M297.826,158.619a4.045,4.045,0,0,1-6.412,2.819c-.109-.1-.229-.191-.345-.282a.266.266,0,0,0-.032-.024,6.97,6.97,0,0,0-10.713,3.048.066.066,0,0,0-.007.019,1,1,0,0,1-1.911-.332.008.008,0,0,1,0-.01c0-.061,0-.126,0-.191l0-.03c.009-.219.029-.442.053-.663a11.333,11.333,0,0,1,17.272-8.36c.015.007.028.018.042.024.216.135.42.277.619.425a.084.084,0,0,1,.027.023,4.046,4.046,0,0,1,1.4,3.535" transform="translate(0.31 0)" fill="#fff"/>
  </g>
</svg>
