<?xml version="1.0" encoding="utf-8"?>
<!-- Generator: Adobe Illustrator 24.1.0, SVG Export Plug-In . SVG Version: 6.00 Build 0)  -->
<svg version="1.1" id="Layer_1" xmlns="http://www.w3.org/2000/svg" xmlns:xlink="http://www.w3.org/1999/xlink" x="0px" y="0px"
	 viewBox="0 0 59 59.4" style="enable-background:new 0 0 59 59.4;" xml:space="preserve">
<style type="text/css">
	.st0{fill:#ECBD6A;}
</style>
<g id="Group_548" transform="translate(-257.453 -152.888)">
	<path id="Path_17" class="st0" d="M289.4,165.3c1.4,1.8,1.1,4.3-0.7,5.7c-0.6,0.4-1.2,0.7-1.9,0.8c-0.1,0-0.3,0-0.4,0c0,0,0,0,0,0
		c-3.8,0.5-6.5,4-6,7.8c0.1,0.6,0.3,1.3,0.5,1.9c0,0,0,0,0,0c0.2,0.5-0.1,1.1-0.6,1.3c-0.3,0.1-0.7,0.1-1-0.2c0,0,0,0,0,0
		c0,0,0,0,0,0c0,0-0.1-0.1-0.1-0.1l0,0c-0.1-0.2-0.3-0.3-0.4-0.5c-3.9-4.9-3-12.1,1.9-15.9c1.3-1,2.9-1.8,4.6-2.1c0,0,0,0,0,0
		c0.2-0.1,0.5-0.1,0.7-0.1c0,0,0,0,0,0C287.2,163.7,288.6,164.3,289.4,165.3"/>
	<path id="Path_18" class="st0" d="M304.4,184.5c-1.8,1.4-4.3,1.1-5.7-0.7c-0.4-0.6-0.7-1.2-0.8-1.9c0-0.1,0-0.3,0-0.4c0,0,0,0,0,0
		c-0.5-3.8-4-6.5-7.8-6c-0.6,0.1-1.3,0.3-1.9,0.5c0,0,0,0,0,0c-0.5,0.2-1.1-0.1-1.3-0.6c-0.1-0.3-0.1-0.7,0.2-1c0,0,0,0,0,0
		c0,0,0,0,0,0c0,0,0.1-0.1,0.1-0.1l0,0c0.2-0.1,0.3-0.3,0.5-0.4c4.9-3.9,12.1-3,15.9,1.9c1,1.3,1.8,2.9,2.1,4.6c0,0,0,0,0,0
		c0.1,0.2,0.1,0.5,0.1,0.7c0,0,0,0,0,0C306,182.3,305.4,183.6,304.4,184.5"/>
	<path id="Path_19" class="st0" d="M285.2,199.2c-1.4-1.8-1.2-4.3,0.6-5.8c0.6-0.4,1.2-0.7,1.9-0.8c0.1,0,0.3,0,0.4,0l0,0
		c1.2-0.1,2.4-0.6,3.4-1.4c2.5-2,3.3-5.4,1.9-8.3c0,0,0,0,0,0c-0.2-0.4,0-0.9,0.3-1.1c0.4-0.3,0.9-0.3,1.3,0.1c0,0,0,0,0,0
		c0,0,0.1,0.1,0.1,0.1l0,0c0.2,0.2,0.3,0.3,0.4,0.5c4,4.9,3.3,12.1-1.6,16.2c-1.3,1-2.9,1.8-4.5,2.1c0,0,0,0,0,0
		c-0.2,0.1-0.5,0.1-0.7,0.1c0,0,0,0,0,0C287.4,200.9,286.1,200.3,285.2,199.2"/>
	<path id="Path_20" class="st0" d="M270.2,180.3c1.8-1.4,4.3-1.1,5.7,0.7c0.4,0.6,0.7,1.2,0.8,1.9c0,0.1,0,0.3,0,0.4l0,0
		c0.5,3.8,4,6.5,7.8,6c0.6-0.1,1.3-0.3,1.9-0.5c0,0,0,0,0,0c0.4-0.1,0.9,0,1.1,0.3c0.3,0.4,0.3,0.9,0,1.3c0,0,0,0,0,0c0,0,0,0,0,0
		c0,0-0.1,0.1-0.1,0.1l0,0c-0.2,0.1-0.3,0.3-0.5,0.4c-4.9,3.9-12.1,3-15.9-1.9c-1-1.3-1.8-2.9-2.1-4.6c0,0,0,0,0,0
		c-0.1-0.2-0.1-0.5-0.1-0.7c0,0,0,0,0,0C268.6,182.4,269.2,181.1,270.2,180.3"/>
	<path id="Path_21" class="st0" d="M313.2,171.8c-1.1,1.9-3.6,2.5-5.5,1.4c-0.6-0.4-1.1-0.9-1.5-1.5c-0.1-0.1-0.1-0.3-0.2-0.4
		c0,0,0,0,0,0c-1.8-3.4-6.1-4.7-9.4-2.8c-0.6,0.3-1.1,0.7-1.6,1.2c0,0,0,0,0,0c-0.4,0.4-1,0.3-1.4-0.1c-0.2-0.3-0.3-0.7-0.2-1
		c0,0,0,0,0,0c0,0,0,0,0,0c0-0.1,0-0.1,0.1-0.2l0,0c0.1-0.2,0.2-0.4,0.3-0.6c3.2-5.4,10.2-7.1,15.5-3.9c1.5,0.9,2.7,2.1,3.6,3.5
		c0,0,0,0,0,0c0.1,0.2,0.3,0.4,0.4,0.6c0,0,0,0,0,0C313.9,169.2,313.9,170.6,313.2,171.8"/>
	<path id="Path_22" class="st0" d="M299.8,207.7c-2.1-0.9-3-3.3-2.1-5.3c0.3-0.7,0.7-1.2,1.3-1.6c0.1-0.1,0.2-0.2,0.4-0.2
		c0,0,0,0,0,0c3.1-2.3,3.8-6.6,1.5-9.7c-0.4-0.5-0.8-1-1.4-1.4c0,0,0,0,0,0c-0.4-0.4-0.5-1-0.1-1.4c0.2-0.3,0.6-0.4,1-0.3
		c0,0,0,0,0,0c0.1,0,0.1,0,0.2,0.1l0,0c0.2,0.1,0.4,0.2,0.6,0.2c5.8,2.5,8.4,9.1,6,14.9c-0.7,1.6-1.7,3-3,4.1c0,0,0,0,0,0
		c-0.2,0.2-0.4,0.3-0.6,0.5c0,0,0,0,0,0C302.4,208.1,301,208.2,299.8,207.7"/>
	<path id="Path_23" class="st0" d="M262.5,196.6c0.8-2.1,3.1-3.2,5.2-2.4c0.7,0.2,1.3,0.7,1.7,1.2c0.1,0.1,0.2,0.2,0.3,0.4
		c0,0,0,0,0,0c2.4,3,6.8,3.5,9.8,1c0.5-0.4,1-0.9,1.3-1.4c0,0,0,0,0,0c0.3-0.4,1-0.5,1.4-0.2c0.3,0.2,0.4,0.6,0.4,1c0,0,0,0,0,0
		c0,0,0,0,0,0c0,0.1,0,0.1,0,0.2l0,0c-0.1,0.2-0.1,0.4-0.2,0.6c-2.2,5.9-8.7,8.9-14.5,6.7c-1.6-0.6-3-1.5-4.2-2.7c0,0,0,0,0,0
		c-0.2-0.2-0.3-0.4-0.5-0.6c0,0,0,0,0,0C262.3,199.2,262.1,197.8,262.5,196.6"/>
	<path id="Path_24" class="st0" d="M273.1,157.7c2.1,0.8,3.1,3.2,2.3,5.2c-0.3,0.7-0.7,1.2-1.2,1.7c-0.1,0.1-0.2,0.2-0.4,0.3l0,0
		c-3,2.4-3.6,6.7-1.2,9.8c0.4,0.5,0.9,1,1.4,1.4c0,0,0,0,0,0c0.4,0.3,0.5,1,0.2,1.4c-0.2,0.3-0.6,0.4-1,0.4c0,0,0,0,0,0c0,0,0,0,0,0
		c-0.1,0-0.1,0-0.2-0.1l0,0c-0.2-0.1-0.4-0.1-0.6-0.2c-5.8-2.3-8.7-8.8-6.5-14.7c0.6-1.6,1.6-3,2.8-4.2c0,0,0,0,0,0
		c0.2-0.2,0.4-0.3,0.6-0.5c0,0,0,0,0,0C270.4,157.4,271.8,157.3,273.1,157.7"/>
	<path id="Path_25" class="st0" d="M310.3,194.7c-2.2-0.4-3.7-2.4-3.4-4.6c0.1-0.7,0.4-1.4,0.8-1.9c0.1-0.1,0.2-0.2,0.3-0.3
		c0,0,0,0,0,0c2.5-3,2.1-7.3-0.9-9.8c-0.5-0.4-1.1-0.8-1.7-1c0,0,0,0,0,0c-0.5-0.2-0.7-0.8-0.4-1.3c0.2-0.3,0.5-0.5,0.9-0.6
		c0,0,0,0,0,0c0,0,0,0,0,0c0.1,0,0.1,0,0.2,0h0c0.2,0,0.4,0.1,0.7,0.1c6.2,1,10.4,6.8,9.4,13c-0.3,1.7-0.9,3.3-1.9,4.7c0,0,0,0,0,0
		c-0.1,0.2-0.3,0.4-0.5,0.6c0,0,0,0,0,0C313,194.5,311.6,194.9,310.3,194.7"/>
	<path id="Path_26" class="st0" d="M278.1,207.7c-0.1-2.2,1.6-4.1,3.9-4.2c0,0,0,0,0,0c0.7,0,1.4,0.1,2,0.4c0.1,0.1,0.3,0.2,0.4,0.2
		c0,0,0,0,0,0c3.4,1.8,7.6,0.6,9.4-2.8c0.3-0.6,0.5-1.2,0.7-1.8c0,0,0,0,0,0c0.1-0.5,0.7-0.8,1.2-0.7c0.4,0.1,0.6,0.4,0.7,0.7
		c0,0,0,0,0,0c0,0,0,0,0,0c0,0.1,0,0.1,0,0.2v0c0,0.2,0,0.4,0,0.7c0.3,6.3-4.6,11.5-10.8,11.8c-1.7,0.1-3.4-0.2-4.9-0.9c0,0,0,0,0,0
		c-0.2-0.1-0.5-0.2-0.7-0.3c0,0,0,0,0,0C278.8,210.3,278.1,209,278.1,207.7"/>
	<path id="Path_27" class="st0" d="M262.3,173c2.2,0,4.1,1.8,4.1,4c0,0,0,0,0,0c0,0.7-0.2,1.4-0.5,2c-0.1,0.1-0.2,0.2-0.2,0.4l0,0
		c-2,3.3-0.9,7.6,2.4,9.5c0.6,0.3,1.2,0.6,1.8,0.8c0,0,0,0,0,0c0.5,0.2,0.8,0.7,0.7,1.3c-0.1,0.4-0.4,0.6-0.8,0.7c0,0,0,0,0,0
		c0,0,0,0,0,0c-0.1,0-0.1,0-0.2,0h0c-0.2,0-0.4,0-0.7,0c-6.3,0-11.4-5-11.4-11.3c0-1.7,0.4-3.4,1.1-4.9c0,0,0,0,0,0
		c0.1-0.2,0.2-0.4,0.4-0.7c0,0,0,0,0,0C259.7,173.7,261,173,262.3,173"/>
	<path id="Path_28" class="st0" d="M298.1,158.6c-0.2,2.2-2.2,3.8-4.5,3.6c-0.7-0.1-1.4-0.3-1.9-0.8c-0.1-0.1-0.2-0.2-0.3-0.3
		c0,0,0,0,0,0c-3.1-2.3-7.4-1.7-9.8,1.3c-0.4,0.5-0.7,1.1-0.9,1.7c0,0,0,0,0,0c-0.2,0.5-0.8,0.7-1.3,0.5c-0.3-0.1-0.6-0.5-0.6-0.8
		c0,0,0,0,0,0c0-0.1,0-0.1,0-0.2v0c0-0.2,0-0.4,0.1-0.7c0.7-6.2,6.3-10.7,12.5-10c1.7,0.2,3.3,0.8,4.8,1.7c0,0,0,0,0,0
		c0.2,0.1,0.4,0.3,0.6,0.4c0,0,0,0,0,0C297.8,156,298.3,157.3,298.1,158.6"/>
</g>
</svg>
