<?xml version="1.0" encoding="utf-8"?>
<!-- Generator: Adobe Illustrator 24.1.0, SVG Export Plug-In . SVG Version: 6.00 Build 0)  -->
<svg version="1.1" id="Layer_1" xmlns="http://www.w3.org/2000/svg" xmlns:xlink="http://www.w3.org/1999/xlink" x="0px" y="0px"
	 viewBox="0 0 1921 480.2" style="enable-background:new 0 0 1921 480.2;" xml:space="preserve">
<style type="text/css">
	.st0{fill:#FAFAFA;}
</style>
<path id="Subtraction_2" class="st0" d="M1875.7,479h-8c-17.5-17.6-33.9-36.8-49.8-55.3l0,0l0,0c-15-17.5-30.6-35.7-47-52.4
	c-8.8-9-17.2-16.9-25.6-24.2c-8.9-7.8-18.3-15-28-21.7c7.6,10.3,15.4,22,23.9,35.8c7.6,12.3,15,25.1,22.2,37.4
	c7.9,13.7,16.2,27.8,24.6,41.3c9.5,15.2,18.3,28,26.9,39.1h-11.2c-18.1-27.6-32.8-51.2-44.8-72c-4.6-8-9.1-16.8-13.4-25.3v0
	c-8.2-16-16.6-32.6-26.6-45.1c-18-22.6-40.5-40.8-62.3-58.3c-7.5-6-15.2-12.2-22.5-18.5c-5.6-4.8-11.6-9.5-17.9-13.9
	c-6-4.2-12.4-8.4-19.1-12.4c-13.3-7.9-27-15-41.2-21.2c-28.7-12.9-59.2-23.5-91.5-34.7l0,0c-19.8-6.9-40.3-14-60.7-21.8
	c23,16.1,42.9,35.5,57.6,56c1.2,1.7,2.6,3.3,4.1,5.1c2.7,3.1,5.4,6.4,7,9.8c0.8,1.6,1.3,3.4,1.4,5.2c0.1,1.9-0.4,3.8-1.3,5.5
	c-1.9-4.4-4-8.6-6.3-12.8c-2.3-4-4.8-7.9-7.4-11.7c-5.3-7.4-11.3-14.4-17.8-20.8c-13.7-13.6-29.8-25.2-43.7-34.8
	c-4.2-2.7-8.6-5.1-13.1-7.2c-5.5-2.7-11.2-5.5-15.7-9.1c-2.3-1.7-4.3-3.8-6-6.1c-1.7-2.4-2.9-5.1-3.6-7.9c8,5.9,16.5,11.2,25.3,15.9
	c8.8,4.6,17.8,8.8,27.1,12.4c18.5,7.4,37.9,13.3,56.7,19h0h0c15.3,4.7,31.2,9.5,46.1,15c25.4,9.3,50,20.6,73.6,33.8
	c23,13,45,28,65.6,44.6c9.3,7.5,18.8,14.9,28,22.1l0.1,0l0,0c15.4,12.1,31.3,24.6,46.5,37.2c16.9,14.2,31.3,27.2,43.9,39.7
	c16.1,16.1,31.4,33.5,46.2,50.3l0,0l0,0C1836.1,438,1854.9,459.3,1875.7,479L1875.7,479z M867.7,479h-6.4
	c-29.4-22.4-58.4-49.9-88.7-84.1c-12.6-14.2-25.7-29.8-39.8-47.5c-11.2-14.1-22.9-29.2-37.9-49.2c-8.3-11.1-15.2-22.9-22.5-35.5
	c-6.4-11.1-13-22.5-20.7-33.3c-2.3-2.9-4.8-5.6-7.7-8l0,0c-2.7-2.3-5.2-4.9-7.5-7.7c-2.3-2.9-3.7-6.3-4-9.9
	c14.4,12.5,28.2,25.8,41.2,39.7c13.1,13.9,26,28.5,38.5,42.6l0,0c10.9,12.4,22.2,25.2,33.6,37.4c12.8,13.7,24.4,25.4,35.5,35.5
	c28.9,26.5,56.4,48.4,84,67.1c15.4,10.4,31.2,20,47,28.6c16.7,9,33.8,17.1,51.4,24.3h-17.6c-12.5-5.5-25.1-11.6-37.4-18.4
	c-11.7-6.4-23.4-13.5-35-21.2c-10.9-7.2-22-15.1-32.9-23.5c-10.2-7.8-20.7-16.4-31.1-25.4c-40.4-35-76.8-73.9-112-111.5
	c-10.4-11.1-21.1-22.6-31.7-33.6c4.3,6,8.6,12.1,12.8,18l0.2,0.2l0.1,0.1c13.8,19.3,28,39.3,42.3,58.6
	c16.1,21.7,30.5,40.2,44.3,56.7c16.5,19.8,32.2,37.1,48.1,52.9c8.6,8.6,17.4,16.8,26.1,24.4C849,464.3,858.4,471.9,867.7,479
	L867.7,479z M598.9,479h-9.6c-37.5-28.5-71.8-60.9-102.3-96.8c-14.8-17.3-29.1-35.8-42.5-55c-13-18.7-25.7-38.7-37.6-59.4
	c-5.5-9.5-10.7-19.1-15.8-28.4c-9.4-17.1-18.3-33.2-28.1-48.7c-5.3-8.3-10.3-15.6-15.5-22.4c-5.4-7.2-11.2-14-17.4-20.5
	c-16.1-16.5-34.1-31.1-53.6-43.4c-21-13.3-43.2-24.5-66.4-33.4c-20.8-8-43.4-14.6-67.4-21.5h0c-44.1-12.8-89.7-26-123-49h8.8
	C33.7,4.4,39.2,8,44.9,11.2c5.8,3.2,11.7,6.1,17.7,8.7c12.1,5.1,24.5,9.3,37.1,12.7c8.6,2.4,17.3,4.6,25.7,6.8l0,0
	c17.4,4.5,33.8,8.7,49.5,14c6,2,12,3.6,17.8,5.1l0,0c7,1.7,13.8,3.7,20.5,6.1c7.6,2.9,15.1,6.2,23.1,10.1c7.1,3.5,14.3,7.3,22,11.8
	c14.4,8.3,28.5,17.6,42.1,26.5l0,0c7.1,4.6,14.4,9.4,21.6,14c38.9,24.6,70.9,46.6,100.8,73.6c5.7,5.1,11.2,10.6,16.8,16.7
	c5.1,5.5,10.2,11.4,15.6,18.1c10.1,12.4,19.5,25.3,29.4,38.9l0,0c5.3,7.3,10.9,14.8,16.5,22.3C548.6,359.3,610,415.3,683.7,463
	c-12.4-13.5-24.2-27-35.1-40.2c-12-14.5-23.2-29-33.3-43c-11-15.3-21.1-30.6-29.9-45.4c-9.2-15.3-17.5-31.1-24.9-47.4
	c10.6,18.7,21.5,36.7,32.5,53.5c11.6,17.6,23.6,34.5,35.9,50.1c12.7,16.4,26.1,31.9,39.7,46.3c13.9,14.8,28.6,28.8,44,42.1h-17.6
	c-17.1-10.9-33.7-22.3-49.5-33.9c-16-11.8-31.5-24.1-46.3-36.7c-14.9-12.7-29.4-26.1-43.2-39.8c-13.9-13.8-27.4-28.3-40.3-43.2
	c-13.3-15.4-25.3-32.2-37-48.5c-7.1-10-14.5-20.3-22.1-30.2c-7.5-9.9-15.6-19.4-24.1-28.5c-15.3-16.3-31.6-31.6-48.8-46
	c-17.5-14.6-36-28.1-55.2-40.4c2.3,5.3,5.3,10.3,8.9,14.8c3.5,4.5,7.4,8.8,11.2,12.9c4.2,4.4,8.2,9,11.9,13.8
	c10.9,14.6,20,31.5,28.7,47.8l0.1,0.2c14,26.1,28.5,51,43.3,73.9c7.7,12,15.7,23.8,23.7,35c8.2,11.5,16.7,22.8,25.2,33.5
	c8.7,11,17.7,21.6,26.8,31.8c9.3,10.4,18.8,20.4,28.4,29.9c9.8,9.7,20,19.1,30.2,27.9C577.3,462.3,588.1,470.9,598.9,479L598.9,479z
	 M498.1,479h-9.6c-8.7-6.4-17.1-13-25.1-19.9c-8.1-6.9-15.9-14.1-23.3-21.5c-7.4-7.4-14.7-15.2-21.5-23.1
	c-6.8-8-13.4-16.3-19.7-24.8c-6.2-8.5-12.2-17.4-17.9-26.5c-5.6-9.1-11-18.6-16.1-28.3s-9.9-19.9-14.3-30.2s-8.7-21.1-12.6-32.1
	c-7.7-21.8-16.8-47-27.9-70c-5.2-11-11.1-21.6-17.7-31.8c-3.3-5.1-6.8-10-10.2-14.5c-3.7-4.7-7.5-9.2-11.4-13.3
	c-4.9-5.2-10.2-10-15.7-14.6c-5.5-4.5-11.2-8.7-17.1-12.6c-12.1-7.9-24.9-14.7-38.1-20.5c-12.2-5.5-25.6-10.6-42.1-16.2
	c-14.5-5-29.2-9.5-44.7-14.3h0h0c-16.5-5.1-33.5-10.3-50.3-16.2c17.6,13.6,36,24.6,53.8,35.2h0c12.7,7.5,24.6,14.6,36.3,22.7
	c6.3,4.3,11.9,8.4,17.1,12.6c5.6,4.5,10.9,9.3,16,14.3c17.4,17.2,33.5,35.6,48.3,55.1c7.6,10.1,14.6,20.5,21.1,30.9
	c6.7,11,13,22.4,18.6,34c2.1,4.4,4.1,8.6,6.1,12.8l0,0.1c4.6,9.8,9,19,13.9,28c4.9,9.2,10.5,18,16.8,26.3
	c4.7,6.1,9.5,12.3,14.2,18.3l0.1,0.1l0,0c10.3,13,20.9,26.5,30.5,40.8c7,10.4,14.7,20.2,23.1,29.4c8.2,9,17,17.5,26.3,25.5
	c19.1,16.5,39.9,31.1,59.4,44.3h-16c-7.5-4.6-15-9.7-22.2-15.1c-6.9-5.2-13.8-10.8-20.4-16.7c-13-11.6-25.2-24.1-36.6-37.4
	c-10.3-11.8-20.9-25.3-32.6-41.2c-10.5-14.2-20.8-29-30.8-43.4l-0.2-0.3c-2.4-3.5-5-7.1-7.5-10.7c-13.5-19.2-26-39.7-38.2-59.4v0
	c-13.4-21.7-27.2-44.2-42.2-65.1c-8.1-11.2-15.9-21.2-23.8-30.3c-8.4-9.8-17.4-19-27-27.6c-4.6-4.1-9.4-8-14.4-11.6
	c-4.7-3.4-9.8-6.8-15.5-10.4c-10.7-6.6-21.6-12.5-33.2-18.8C82,79.2,59.6,67.1,38.9,50.2c-4.4-3.5-8.4-7.5-12.4-11.3
	c-7.6-7.4-15.4-15-26.1-20.7V0.5h7c3.3,3.9,6.9,7.6,10.7,10.9c3.9,3.4,8,6.5,12.2,9.4c8.9,5.9,18.3,10.9,28.1,15
	c20,8.6,42.3,14.9,63.7,20.9h0c16.4,4.6,31.8,9,46.2,14.2c10.8,4,21.2,8.2,30.8,12.6c10.6,4.8,20.6,10,29.9,15.3
	c9.7,5.6,19,11.8,28,18.6c8.9,6.8,17.3,14.2,25,22.3c4.7,5,9,10.4,12.8,16c3.8,5.6,7.4,11.5,10.9,17.3c4.6,7.6,9.3,15.4,14.7,22.7
	c4.5,5.8,9.3,11.3,14.4,16.5c5.5,5.8,11.2,11.9,16,18.7c3.8,5.5,7.6,11.2,11.3,16.8c5.1,7.7,10.3,15.7,15.9,23.2
	c7.1,9.6,14.3,19.3,21.2,28.6v0c12.2,16.7,24.9,33.9,37.7,50.4c14.3,18.5,27.3,34.1,39.8,47.9c13.9,15.5,28.8,30,44.6,43.6
	c8.1,6.9,16.5,13.5,24.9,19.6c8.8,6.4,17.9,12.3,27.1,17.8h-12.8c-7.9-5.1-15.8-10.6-23.5-16.6c-7.3-5.6-14.7-11.8-21.9-18.3
	c-14.1-12.8-27.4-26.4-39.8-40.7c-11.3-12.9-23.1-27.5-36.2-44.6c-11.7-15.3-23.2-31.2-34.4-46.6l0,0c-8.7-12-17.6-24.3-26.6-36.4
	c-5-6.7-9.7-13.7-14.2-20.5c-6-8.9-12.2-18.2-18.9-26.5c-3.3-4.1-6.9-8.1-10.7-11.8c-3.8-3.7-7.8-7.1-12.2-10.1l2.5,6.1l1.4,3.5l0,0
	c10.7,25.8,20.8,50.2,31.6,74.2c5.8,12.9,11.3,24.6,16.7,35.5c6.1,12.3,12,23.5,18.1,34.2c5.8,10.3,12.3,20.2,19.4,29.6
	c6.6,8.8,13.8,17.4,22.1,26.5c15.4,16.9,32.4,32.7,48.9,48.1l0.1,0.1C488,469.5,493.1,474.2,498.1,479L498.1,479z M1741.3,479h-9.6
	c-6.7-8.8-14.2-17.1-22.3-24.6c-8.3-7.7-17.1-14.8-26.3-21.4c-18.6-13.4-39.3-25.7-59.4-37.5h0h0c-14.5-8.5-29.5-17.4-43.6-26.6
	c-7.6-5-14.3-9.7-20.6-14.3c-7-5.2-13.3-10.3-19.1-15.6c-6-5.4-11.8-11.1-17.2-17.2c-5.4-6-10.3-12.4-14.7-19.2
	c-9.3-14.1-16-29.7-20-46c5.7,7.7,10.2,16.5,14.6,25c4.2,8,8.5,16.4,13.7,23.7c2.6,3.7,5.5,7.1,8.7,10.2c3.3,3.2,7,6,11,8.3
	c8.8,5,18.3,9,28.4,13.2c6.9,2.9,14.1,5.8,21.2,9.2c31.6,15.2,67.5,32.5,98.6,53.8c7.9,5.4,15.3,11,22.1,16.6
	c7,5.8,13.7,11.9,20.1,18.5c6.3,6.5,12.2,13.4,17.5,20.7c5.4,7.4,10.3,15.1,14.5,23.2h-4.8c-4.6-8-9.8-15.7-15.5-23
	c-5.6-7.2-11.7-14-18.2-20.4c-6.5-6.4-13.3-12.4-20.5-18.1c-6.9-5.4-14.4-10.9-22.4-16.1c-15.8-10.3-32.2-19.6-49-28.1
	c-17-8.7-34.8-17-52.1-25l0,0c-12.6-5.9-25.7-12-38.3-18.2c6.3,6.6,13.1,12.7,20.2,18.3c7.3,5.7,14.8,11,22.6,15.9
	c15.7,10,32.7,19.1,49.2,27.8l0,0c10.6,5.6,21.5,11.5,32,17.5c11.8,6.8,21.7,13,30.3,19.2c9.6,6.7,18.6,14.3,27,22.5
	c4.1,4.1,8,8.5,11.7,13.1C1734.8,469.1,1738.2,474,1741.3,479L1741.3,479z M1290.1,479h-4.8c-7.7-16-14.4-32.5-20.2-49.3
	c-6-17.1-11.5-34.9-16.9-52.2v0c-6.5-21.1-13.3-42.9-20.9-63.3c-4.1-11-8.1-20.8-12.3-29.8c-4.3-9.5-9.2-18.8-14.5-27.7
	c-4.5-7.4-9.3-14.9-14.5-22.2c-4.9-7-10.3-14.1-15.9-21.1c-10.4-12.9-21.9-25.8-35.1-39.3c-11.1-11.3-23.6-23.3-38.4-36.7
	c-13.1-11.9-26.8-23.9-40-35.4l-0.1-0.1c-26.4-23.1-53.6-46.9-78.5-72.3c-8.7-8.9-17.3-18.3-26.2-28.9h5.3l0,0l0,0l0,0
	c13.9,16,29.7,32.5,48.6,50.5c14.8,14.1,31.4,29.1,52.2,47.1c10,8.7,20.5,17.3,30.7,25.7c12.8,10.5,26,21.4,38.4,32.5
	c12.3,10.8,23.9,22.4,34.8,34.6c5.7,6.5,11.3,13.5,16.6,20.9c5.1,7.1,10,14.7,14.8,22.6c9.4,15.9,17.9,32.4,25.3,49.4
	c6.8,15.5,13.8,32.9,21.2,53.3c6.6,18.2,13,37,19.1,55.1l0,0.1v0C1268.8,421.3,1278.9,451,1290.1,479L1290.1,479z M222.9,479h-16
	c-10.9-18.2-19-38.1-26.9-57.3c-6.1-14.8-12.3-30.1-19.7-44.1c-3.6-6.9-7.7-13.6-12.1-20c-4.4-6.4-9.4-12.3-14.9-17.8
	c-5.9-5.8-12.2-11.1-18.9-15.8c-6.6-4.7-13.5-9-20.7-12.9c-14.3-7.8-29.6-14.4-45.8-21.4l0,0c-15.3-6.6-31.2-13.5-47.4-21.9v-11.2
	c20.4,13.3,43.2,22.2,65.1,30.8c13.8,5.4,28,11,41.1,17.5c6.5,3.2,12.8,6.8,19,10.7c6.1,3.9,11.9,8.3,17.3,13.1
	c6.3,5.6,12,11.9,17,18.8c5,6.8,9.4,13.9,13.3,21.3c7.9,14.9,14.1,30.7,20.6,47.4C202,437.2,210.5,459.1,222.9,479L222.9,479z
	 M1338.1,479h-8l0-0.1c-12-21.9-25.7-46.7-38.3-71.8c-14-27.7-25-52.4-33.7-75.3c-5-13.3-9.9-28-14.8-45.1
	c-4.4-15.3-8.5-31.1-12.5-46.4l0-0.1c-6.2-23.9-12.7-48.6-20.7-73.3c-4.5-13.9-8.9-28.1-13.1-41.7l0,0
	c-6.1-19.7-12.4-40.1-19.1-59.6c-7.5-21.9-14.7-40.5-22.1-57.1c-1.2-2.7-2.4-5.4-3.7-8.1h9.3l0.5,1.1l0.2,0.6
	c6.3,14.2,12.3,28.9,18.3,45.2c5.3,14.4,10.6,29.7,15.9,46.7c10,31.6,19.2,64.4,28,96.2l0,0.1c6.5,23.5,13.3,47.7,20.3,71.4
	c7.9,26.6,15.5,49.5,23,70.1c9.5,25.9,20.4,51.2,32.6,75.9C1310.7,429,1322.7,451.7,1338.1,479L1338.1,479z M253.3,479h-6.4
	c-8-19.2-14.2-38.9-20.2-58c-6.1-19.3-11.9-37.5-19.2-54.8c-3.6-8.5-7.6-16.8-12.2-24.9c-4.5-7.9-9.7-15.4-15.6-22.3
	c-3.4-4-7-7.7-10.9-11.2c-3.8-3.4-7.8-6.6-12-9.6c-8.4-5.9-17.3-11.1-26.7-15.3c-9.6-4.4-19.4-8.3-29.5-11.7
	c-10.2-3.5-20.8-6.8-31.2-10c-23-7.1-46.8-14.5-69.1-25.3v-6.4c4.9,3.5,10.1,6.6,15.6,9.2c5.6,2.7,11.4,5.2,17.3,7.3
	c12,4.3,25.1,7.9,37.8,11.3c17.7,4.8,36,9.7,52.5,17c11.3,4.8,22.2,10.6,32.6,17.2c10.6,6.7,20.1,14.9,28.2,24.4
	c5.9,7,11.1,14.5,15.7,22.5c4.6,8,8.7,16.4,12.3,24.9c7.3,17.3,13.1,35.4,19.1,54.6v0C238,438,244.6,458.8,253.3,479z M1701.3,479
	h-17.6c-14.5-5-27.3-9.8-39.3-14.7c-14.4-5.9-27.3-11.8-39.4-18c-12.8-6.5-25.1-13.9-36.8-22.1c-5.9-4.1-11.5-8.4-16.7-12.8
	c-5.3-4.4-10.3-9.1-15.1-14c-10.2-10.7-19.6-22.1-28.2-34.2c-8.7-12-17.2-24.7-25.3-37l0,0c-9-13.6-18.3-27.6-28.1-40.8
	c-5-6.7-10-13.6-14.9-20.3v0c-21.9-30.1-44.6-61.2-71.5-86.9c-10.5-10-21.4-19.4-31.9-28.5c-9.8-8.5-19.9-17.3-29.4-26.2
	c-9.5-8.9-18.5-18.4-26.7-28.4c-11.8-14.4-22.7-29.4-32.6-45.1c-9.9-15.8-18.7-32.3-26.1-49.4h9.8l3.8,3.3l0.8,0.7
	c19.1,16.2,38.8,33,60,48c10.6,7.6,21.7,14.6,33.1,21c5.9,3.3,11.8,6.3,17.6,9c6.1,2.9,12.3,5.5,18.4,7.8
	c16.3,6.1,34.5,12.1,55.7,18.4c18.9,5.6,38.3,11,57.2,16.1l0.1,0l0,0c31.3,8.6,63.6,17.4,94.2,27.9c16.5,5.6,31.2,11.3,44.9,17.2
	c14.5,6.2,28.6,13.3,42.3,21.2c56.4,32.6,104.8,70.5,148.1,115.7c10.4,10.9,20.7,22.4,30.6,34.2c9.7,11.6,19.4,23.9,28.8,36.6
	c9.1,12.3,18.3,25.5,27.2,39c8.7,13.1,17.4,27.1,26.1,41.6v16c-19.2-31.5-37.6-59.3-56.3-84.7c-10.1-13.8-20.4-27.1-30.6-39.6
	c-10.7-13.1-21.7-25.6-32.7-37.4c-11.4-12.3-23.3-24-35.2-35c-12.3-11.4-25.1-22.2-38-32.3c-13.3-10.4-27.1-20.3-41.1-29.4
	c-14.4-9.4-29.4-18.2-44.6-26.3c-14.3-7.5-28.9-14.2-43.9-20.1c-14.2-5.6-29.5-11-46.5-16.3c-31.7-9.9-65.3-18.2-97.8-26.3l0,0
	l-0.3-0.1c-7.9-2-16.1-4-24.2-6c-8.1-2-16.4-4.4-24.5-7.1c-7.7-2.5-15.6-5.4-23.3-8.5c-14.9-6-29.5-12.9-43.7-20.4
	c-27.9-14.8-53.7-31.5-78.7-47.7c-4.5-2.9-9.2-6-13.8-9c2.4,5.7,5.2,11.4,8.1,16.8c2.8,5.2,6,10.4,9.4,15.5
	c6.6,9.8,13.8,19.1,21.8,27.8c7,7.8,15.1,15.9,24.8,24.9c8.6,8,17.8,16,26.6,23.7l0,0c14.5,12.7,29.5,25.8,43.8,40.2
	c8.2,8.2,16.1,17.1,24.4,27c7.4,8.8,14.8,18.3,22.8,29c14.7,19.9,28.9,41,42.6,61.4l0,0c13.9,20.6,28.2,41.9,43,61.8
	c5.7,7.7,11.7,15.1,17.9,22s12.6,13.6,19.3,19.9c6.6,6.2,13.6,12.3,20.8,17.9c7.2,5.6,14.7,11,22.5,16
	C1623.4,451.2,1658.9,466.8,1701.3,479L1701.3,479z M1597.3,479h-20.8c-5.7-4.2-12.1-8.1-18.9-12.3l0,0
	c-9.3-5.7-18.9-11.6-26.8-18.3c-3.9-3.2-7.3-6.9-10.3-10.9c-2.9-3.9-5.1-8.2-6.4-12.9c5.5,6,11.4,11.6,17.7,16.7
	c6.4,5.2,13.1,10,20.1,14.3C1564.5,463.7,1579.4,471.3,1597.3,479L1597.3,479z M1395.7,479h-4.8c-13.4-18.2-25.6-37.4-36.3-57.4
	c-11.3-21.1-21.1-42.9-29.4-65.3c-17.9-48.6-29.1-99.3-33.5-150.9c6.3,22,11.3,44.3,16.2,66v0l0,0c3.2,14.2,6.5,28.9,10.1,43
	c4,15.8,7.9,29.3,12,41.3c15.5,45.6,39.7,83,63,119.2l0.1,0.2L1395.7,479L1395.7,479z M1368.5,479h-14.4
	c-4.3-6.8-8.7-13.7-13.1-20.4l0,0c-21.3-33.2-43.4-67.4-57.3-107.5c-3.3-9.4-6.3-19.3-9.2-30.2c-2.6-9.7-5-19.9-7.4-31.3
	c-4.5-21.2-8.3-43.3-12-64.7v0c-2.1-12.1-4.3-24.7-6.5-37c-7-37.7-13.5-68.3-20.6-96.4c-4.1-16.4-8.5-32.1-13-46.5
	c-4.8-15.7-10-30.6-15.3-44.3h6.6c5.7,14.3,11.1,29.7,16.2,45.8c4.8,15,9.4,31.3,13.7,48.2c7.6,29.4,14.7,62.6,21.9,101.3
	c1.4,7.5,2.8,15,4.1,22.4c4.2,23.4,8.6,47.7,14,70.6c2.9,12.4,5.8,23.4,9,33.7c3.3,10.8,7.1,21.3,11.4,31.7
	c15.3,36.3,35.5,67.6,54.9,97.9C1357.1,460.9,1363,470.1,1368.5,479L1368.5,479z M1274.1,479h-4.8c-7-17.7-13.2-36.8-19.1-55.2v0
	c-6.7-20.9-13.7-42.6-22-62.4c-4-9.7-8.6-19.2-13.8-28.4c-4.9-8.9-10.7-17.3-17.1-25.1c3.6,3.1,7,6.5,10.1,10.1
	c3.1,3.6,6.1,7.5,8.8,11.5c5.5,8.3,10.3,17,14.3,26.2c8.4,18.6,14.8,39.6,21,59.9c3.3,10.8,6.7,22,10.4,32.7
	C1265.4,458.7,1269.5,468.9,1274.1,479L1274.1,479z M1192.5,479h-12.8c-5.2-6.2-10.8-12.3-16.6-18.1c-5.5-5.6-11.4-11.2-17.5-16.7
	c-12-10.6-24.5-20.5-37.5-29.8c-11.6-8.3-24.6-17-39.8-26.6c-13.5-8.5-27.6-16.9-41.2-25.1l0,0c-24.6-14.8-50.1-30-74.6-46.9
	c-25.2-17.6-49.2-36.8-71.9-57.5c-22.1-20-44.2-42.1-65.7-65.7c-11-12.2-22.8-23.9-34.2-35.2l0,0c-9.9-9.8-20.1-20-29.8-30.4
	c-21.8-23.4-43-48.1-63.5-72l0,0c-9-10.5-18.3-21.3-27.7-32c-7.6-8.7-14-15.8-20.1-22.5h9.3c23.3,24.2,46.4,49.7,68.7,74.3l0,0
	c27.8,30.7,56.5,62.4,86.2,92.2c8.8,8.9,17.7,18,26.3,26.7l0.1,0.1c14.5,14.8,29.5,30.2,44.6,44.9c17,16.5,32.3,30.5,46.8,42.6
	c16.2,13.6,33.2,26.2,50.9,37.7c9.1,5.9,18.4,11.3,27.6,16.2c9.6,5.2,19.5,9.9,29.3,14.1c-21.9-24.4-42.6-49.8-62-76.3
	c-9.9-13.7-19.3-27.6-27.9-41.3c-9.1-14.5-17.6-29.3-25.3-44c-19.2-36.6-34.7-63.7-50.4-87.7c-20-30.6-40.2-55.8-61.6-77.1
	c5.7,4.9,11.4,10.1,16.8,15.5c5.2,5.2,10.3,10.7,15.3,16.5c9.6,11.3,18.6,23.2,26.8,35.5c7.4,11,15,23.4,23.3,37.9
	c7.4,12.9,14.6,26.2,21.5,39.1l0,0.1c10.9,20.1,22.1,40.9,34.3,60.8c6.6,10.7,12.9,20.2,19.3,29.2c7.2,10.1,14.4,19.1,21.9,27.7
	c6.6,7.5,13.3,15.6,19.8,23.4c15.7,18.9,31.9,38.4,49,53.4c17.3,15.2,36.4,27.8,54.9,40l0,0c15.8,10.4,32.2,21.2,47.1,33.5
	c7.6,6.1,14.7,12.8,21.4,19.8C1180.5,462.8,1186.8,470.7,1192.5,479L1192.5,479z M1107.7,479h-20.8c-12.9-6.2-25.8-12.9-38.3-19.7
	c-12.3-6.7-24.5-13.8-36.5-21.2c-11.7-7.2-23.4-14.8-34.9-22.6c-11.2-7.6-22.4-15.6-33.4-23.9C903,361,862.9,325.7,821.3,283.8
	c-13.4-13.5-26.5-27.8-40-43.7c-12-14.2-24.2-29.3-37-46.3c-23.9-31.5-46.9-64.7-69.2-96.8l0,0c-16.9-24.4-34.4-49.6-52.2-74
	c-5.6-7.6-11.5-15.2-17.5-22.5h9.8c18,22.6,35,46.7,49.3,67.3c1.6,2.3,3.2,4.6,4.8,7l0.7,1c18.1,26.2,36.7,53.2,55.8,79.3
	c10.3,14,19.9,26.7,29.3,38.6c10.6,13.4,20.7,25.6,31,37.3c11.4,13,22.9,25.7,34.1,37.6c11.7,12.4,23.6,24.5,35.3,35.9
	c12.1,11.8,24.5,23.3,36.7,34.1c12.7,11.2,25.6,22,38.5,32.2c13.3,10.5,26.9,20.7,40.5,30.3c14,9.8,28.4,19.3,42.8,28.2
	c14.8,9.1,30.1,17.8,45.4,26C1075.1,463.6,1091.3,471.6,1107.7,479L1107.7,479z M1054.9,479h-14.4c-14.3-9.5-29-18.8-43.3-27.9
	l-0.1,0c-24.9-15.8-50.6-32.2-74.8-49.6c-13-9.3-24.5-18.2-35.1-27.1c-11.3-9.4-22.1-19.3-32.4-29.8c11.2,8.2,22.4,16.4,34.2,25.2
	c25.7,19,52.2,38.6,79.8,57.4c14.9,10.1,28.7,19,42.2,27.2C1026.3,463.6,1040.6,471.7,1054.9,479L1054.9,479z M1026.1,479h-14.4
	c-22-10.4-43.3-22.2-63.9-35.2c-19.6-12.3-39.5-26.3-59.3-41.6c-10.6-8.2-20.7-17-30.3-26.3c-9.7-9.2-18.9-18.7-28.7-28.7l0,0
	c-12.7-13-25.9-26.4-40.2-39.4c-13.5-12.3-27.6-24.6-43.1-37.4c-13.8-11.5-28.3-23.2-44.5-35.8c-30-23.4-61.3-46.6-91.5-69
	c-12.1-9-24.6-18.2-36.9-27.4c-23.1-17.2-40.9-29.8-57.8-40.8C496,84.7,475.8,73.2,454.9,63c-7.6-3.7-15.6-7.2-23.9-10.5
	c-7.9-3.1-16.3-6.2-24.9-9c-15.9-5.2-33-10-52.2-14.4c-35.7-8.3-73.7-14.5-110.5-20.5h0l-0.1,0c-15.8-2.6-32.2-5.2-48.2-8.1h30.4
	c5.9,1,12,2,17.9,2.9l0.9,0.2c38.3,6.2,77.9,12.6,115,21.2c19.9,4.6,37.5,9.5,53.9,14.9c8.8,2.9,17.4,6.1,25.5,9.3
	c8.4,3.4,16.6,7,24.3,10.8c8.2,4,16.3,8.4,24.8,13.5c7.6,4.5,15.3,9.4,23.7,14.9c15.5,10.3,30.9,21.6,45.7,32.5
	c7.9,5.8,16,11.7,24.2,17.6c44.5,31.8,80.4,58.4,112.9,83.7c39.5,30.8,74.3,60,106.3,89.1c12.3,11.2,24,22.8,35.4,34.1l0,0
	c10.4,10.3,21.2,21,32.2,31.2c11.1,10.3,22.7,20,34.8,29.1c19.9,14.8,39.2,27.7,58.9,39.6C982.6,457.5,1004.1,468.8,1026.1,479
	L1026.1,479z M834.1,479h-11.2c-9.7-9.9-20.6-19.7-31.1-29.2c-13.1-11.8-26.6-24-38.5-36.8c-5.9-6.3-11.4-12.9-16.5-19.8
	c-5-6.7-9.3-13.9-13.1-21.4c7.8,9.7,16.3,19.5,25.3,29.1c8.4,9,17.5,18.2,27.1,27.3C792.9,444.3,811.8,460.9,834.1,479L834.1,479z
	 M430.9,479h-16c-7-6.4-14.1-13.2-21-20.4c-6.6-6.8-13.3-14.1-19.9-21.6c-12.2-14-24.3-29.1-37.1-46.4c-23.7-32-46.1-66.6-67.8-100
	c-5.9-9.1-12.6-19.4-19-29.2c-4.7-7.2-9.2-14.6-13.5-21.7l0,0c-5.8-9.5-11.2-18.5-17.3-27.3c-3.3-4.7-6.4-8.9-9.6-12.8
	c-3.4-4.2-7-8.1-10.8-11.9c-10.3-10.2-21.1-19.8-32.9-29.4c-10.6-8.6-21.7-17.2-34.2-26c-23.2-16.5-47.1-31.5-72.4-47.4
	C40.4,72.9,20.6,60.5,0.5,47v-3.2C10.7,52,21.4,59.4,32.7,66c11.2,6.7,22.9,12.9,34.1,19c9.7,5.2,19.7,10.5,29.3,16.1
	c9.5,5.5,18.8,11.5,27.6,17.9c11.9,8.8,23.4,19.5,34.6,29.9l0,0c5.9,5.5,12,11.1,18.2,16.5c4.5,4,9.3,7.9,13.8,11.7
	c6.7,5.6,13.7,11.4,20.1,17.3c6.3,5.8,12.1,12.1,17.3,19c10.1,13.8,19.7,28.9,29,43.5l0.1,0.1c5.6,8.9,11.5,18,17.3,26.8
	c6.2,9.2,12.3,18.5,18.2,27.4l0,0c10,15.2,20.4,30.8,30.7,45.9c11.6,16.9,22.1,31.3,32.1,44.1c11.1,14.3,22.9,28,35.3,41
	c6.4,6.6,12.9,13,19.4,19C416.8,467.5,423.8,473.4,430.9,479L430.9,479z M373.3,479h-6.4c-25.7-23.6-41.3-60.1-56.4-95.5l0,0
	c-5.4-12.7-11-25.9-16.9-37.9c-3.2-6.5-6.2-12.2-9.2-17.4c-3.1-5.4-6.5-10.6-10.2-15.6c4.9,5.3,9.4,11,13.4,17
	c4.1,6.2,7.9,12.5,11.3,19.1c7,13.3,13.2,27.7,19.1,41.7c7.1,16.5,14.4,33.6,23.1,48.9c4.2,7.6,9.1,14.8,14.4,21.6
	C360.7,467.6,366.7,473.6,373.3,479L373.3,479z M352.5,479h-6.4c-5.7-7-11.1-14.2-16.1-21.8c-4.7-7.1-9.2-14.6-13.9-23.1
	c-8.7-15.7-16.5-32.2-24.1-48.1l0,0c-4.9-10.3-10-20.9-15.2-31.2c-5.8-11.5-11.3-21.3-16.6-30c-5.9-9.7-12.4-19-19.6-27.8
	c-3.7-4.5-7.5-8.7-11.4-12.7c-4.1-4.2-8.4-8.1-12.7-11.8c-7.1-5.9-14.6-11.3-22.5-16.1c-7.4-4.6-15.4-9-24.5-13.5
	c-16.9-8.3-35-15.5-52.4-22.5c-21-8.4-42.7-17.1-62.7-27.8c-9.9-5.2-19.5-11.2-28.6-17.8c-4.6-3.4-9-6.9-13.1-10.5
	c-4.3-3.7-8.3-7.7-12.2-11.9v-8c8.4,8.4,17.4,16.1,27.1,23.1c9.6,6.9,19.6,13.3,30,19.1c20.7,11.7,43,21.8,64.6,31.5l0,0
	c13.7,6.2,27.9,12.6,41.5,19.3c13.5,6.6,26.6,13.9,39.2,22c12.5,7.9,24.2,17.1,34.9,27.3c5.4,5.2,10.4,10.7,15.2,16.5
	c4.8,6,9.3,12.3,13.3,18.9c5.7,9.5,10.9,19.3,15.5,29.4c4.7,10.2,9.2,20.7,13.5,31c7.3,17.3,14.8,35.1,23.8,51.5
	c4.5,8.2,9.5,16.1,15,23.7C339.4,465.5,345.7,472.5,352.5,479L352.5,479z M336.5,479h-9.6c-3.8-4.6-7.8-9.1-12-13.9
	c-8.3-9.5-17-19.4-24.7-29.8c-3.9-5.2-7.5-10.5-10.8-16.1c-3.3-5.5-6.1-11.2-8.5-17.1c-1.7-4.1-3.2-8.1-4.8-12l-0.1-0.2
	c-5.3-13.4-10.3-26-16.2-37.5c-5.8-11.7-13.3-22.4-22.2-32c-7.9-8.4-16.3-16.2-25.1-23.5c-8.8-7.1-18.1-13.6-27.8-19.4
	c-9.9-5.8-20.2-10.9-30.9-15.2c-11.2-4.4-22.8-8.1-34.5-10.8c-12.6-3-26.2-4.4-39.4-5.9h0c-12.3-1.3-25-2.7-36.8-5.3
	c-5.8-1.2-11.5-2.9-17.1-5c-5.4-2-10.6-4.7-15.5-7.8v-3.2c5.9,2.8,12,5.2,18.2,7.2c6,2,12.6,3.8,20,5.5c13.8,3.3,28.5,5.9,42.7,8.3
	h0c12.6,2.2,25.6,4.5,37.7,7.2c6.5,1.5,12.2,2.9,17.5,4.5c5.4,1.6,10.7,3.5,15.9,5.6c13.5,5.6,26.6,12.1,39.2,19.5
	c6.5,3.8,12.7,8,18.8,12.4c6.1,4.5,11.8,9.3,17.3,14.5c5.5,5.3,10.4,11,14.7,17.2c4.4,6.2,8.4,12.8,11.9,19.5
	c7.2,13.6,13,28.1,19.1,43.3l0.1,0.4c1.2,3,2.5,6.1,3.7,9.2c3,7.4,6.6,14.5,10.7,21.3c4,6.6,8.4,13,13.1,19.1
	c9.5,12.2,20.1,23.5,31.4,35.4l0,0C333.8,476.1,335.2,477.6,336.5,479L336.5,479z M1492.5,400.7c-0.3,0-0.5,0-0.8-0.1
	c-8.4-11.4-17.2-24.5-27-40.1c-8.7-13.9-17.3-28.4-25.7-42.5l0,0c-13.8-23.3-28.1-47.4-43.2-69.4c-8.2-11.9-15.9-22.2-23.6-31.5
	c-8-9.8-16.7-19.1-26-27.7c-3.9-3.5-7.6-7.2-11.2-11.1c-1.5-1.7-2.9-3.5-4-5.5c-1-1.8-1.2-3.2-0.8-4.2c6.4,4.8,12.7,10,18.8,15.6
	c5.8,5.3,11.6,11.1,17.2,17.1c11,12,21.3,24.8,30.6,38.2c8.5,12,17.3,25.7,27,41.8c8.6,14.3,17,29.2,25.2,43.6l0,0
	c14,24.8,28.6,50.5,44.4,74.1c0.7,0,1,0.4,1,0.7C1494.3,400.2,1493.7,400.7,1492.5,400.7L1492.5,400.7z M253.3,291.8L253.3,291.8
	c-0.1-1.5-1.7-2.8-3.3-4c-1.5-1.2-2.9-2.4-2.9-3.6c0.1-0.8,0.6-1.5,1.4-1.9c0.1,1.5,1.7,2.8,3.3,4c1.5,1.2,3,2.4,2.9,3.6
	C254.6,290.7,254,291.4,253.3,291.8L253.3,291.8z M950.9,280.6c-16.8-13.2-33.5-27.6-51.1-43.9c-15.7-14.6-31.7-30.4-49-48.4
	c-32.2-33.5-64.2-69.7-95.1-104.8l-0.2-0.3c-11.4-12.9-23.2-26.3-34.9-39.4c-2.6-2.9-5.2-5.8-7.9-9l-0.3-0.3
	c-9.9-11.2-20.1-22.9-31.6-34h5.5c15.8,15,32.3,32,50.6,52.1c16.3,17.9,32.5,36.6,48.1,54.6l0,0c21.6,24.9,43.9,50.6,66.9,74.8
	c12.4,13,24,24.6,35.5,35.3c12.9,12.1,25.3,22.8,38,32.9c0.1,0,0.2,0,0.3,0c1.3,0,1.9-0.1,2.1-0.5c0.2-0.3,0-0.7-0.3-1.3
	c-0.2-0.5-0.4-1-0.5-1.5c-8.4-11-16.9-23.4-26.1-37.8c-8.1-12.9-16-26.3-23.6-39.2l0,0c-9.3-15.8-18.8-32-29-47.6
	c-5.5-8.4-10.6-15.9-15.8-23c-5.8-7.9-11.6-15.1-17.5-21.9C808.1,69.5,801,62,794,55c-7.2-7.1-14.6-13.9-22.2-20.2
	c-7.7-6.4-15.7-12.5-23.9-18.1c-8.3-5.7-17-11.2-25.9-16.2h14.8c27.8,16.1,52.5,36.2,75.4,61.6c19.5,21.6,38.1,47.3,58.6,80.9
	C901,192.2,927.1,237.2,950.9,280.6L950.9,280.6z M1181.3,279c-5.6-5.1-11.1-10.3-16.5-15.2c-26.8-24.8-52.1-48.3-82.7-68
	c-12.4-8-25.3-15.8-37.8-23.3l0,0c-12.6-7.6-25.6-15.5-38-23.5c-14-9-25.8-17.2-36.1-25.1c-8.1-6.2-15.8-12.8-23.2-19.8
	c-6.9-6.5-13.7-13.4-20.8-21.3c-13.3-14.6-25.4-29.7-38.2-45.7c-2.4-3-4.9-6.1-7.4-9.3c-6.5-8-13-17-20-27.3h6.4
	c8.8,12.9,16.2,23.5,23.3,33.2c8.6,11.7,16.7,22,24.7,31.6c18.7,22.3,37.3,40.3,56.8,55.3c10.3,7.9,22,16,35.9,24.7
	c12.4,7.8,25.3,15.4,37.8,22.7c24.7,14.5,50.2,29.5,73.5,47.1c11.8,8.8,22.9,18.4,33.4,28.8c5.4,5.4,10.5,11,15.2,16.6
	C1172.3,266.5,1177,272.7,1181.3,279L1181.3,279z M216.5,256.6c-7.2-6.7-16.6-13.3-28.6-20.2c-10.6-6.1-21.7-11.5-32.4-16.7l0,0
	c-2.1-1-4.2-2.1-6.2-3c-1.9-0.9-4.1-1.8-6.1-2.7c-6.1-2.5-12.4-5.1-14.7-10.1c8.5,4.6,17.7,8.8,27.5,13.3
	C180,228,204.8,239.3,216.5,256.6L216.5,256.6z M710.9,205.4c-10.1-8.8-19.7-18.1-29-27.2l0,0c-11.7-11.3-23.7-23.1-36.6-33.6
	c-18.7-15.3-36.3-28.6-53.7-40.9c-19.3-13.5-38-25.3-57.3-36.1c-10.1-5.7-20.4-11.1-30.7-16.1c-10.6-5.2-21.5-10.1-32.3-14.7
	c-11.2-4.7-22.7-9.2-34.3-13.2c-11.9-4.2-24.1-8.1-36.5-11.7C386.3,7.7,371.3,4,354.4,0.5h47c47.7,13.6,94,34.3,141.6,63.2
	c19.3,11.8,39,25,60.2,40.4c20.2,14.7,39.1,29.5,55,42c-8.3-9.9-16.6-19.9-24.6-29.6l0,0C617,96.8,600,76.3,583,56.8
	c-9.2-10.5-17.7-19.9-26-28.7c-9.3-9.9-18.2-18.9-27.1-27.6h17.8c5.8,7.2,11.5,14.8,16.9,22.1l0,0c4.4,6,9,12.2,13.6,18
	c15.5,19.7,32.2,38.9,48.3,57.5l0,0c14.4,16.7,29.3,33.9,43.6,51.6c7.7,9.5,14.5,18.4,21,27.1C698.2,186.6,704.7,196,710.9,205.4
	L710.9,205.4z M102.9,197.4c-10.3-4.1-20.3-8.7-30-13.9c-9.4-5.1-18.4-10.7-27.1-16.9c-8.5-6.1-16.5-12.7-24.1-19.9
	c-7.6-7.1-14.6-14.8-21.1-22.9v-1.6c4.8,3.8,8.8,8.7,12.7,13.3l0,0c3,3.8,6.2,7.3,9.7,10.7c10.7,9.7,22.3,18.3,34.6,25.8
	c12.1,7.5,24.6,14.2,36.7,20.7l0.1,0.1C97.1,194.3,100,195.8,102.9,197.4L102.9,197.4z M570.1,163.9h-3.2
	c-11.4-7.5-22.5-16-33.2-24.2c-14.4-11-29.2-22.3-45.2-31.8c-18-10.6-37-18.5-57.1-26.8c-10-4.1-20.4-8.4-30.9-13.2
	c8.4,0.1,16.7,1.2,24.8,3.2c7.8,1.9,15.5,4.5,22.8,7.8c14.7,6.3,28.2,14.6,41.4,22.5c1.8,1.1,3.6,2.2,5.4,3.3c2,1.2,4,2.4,6.3,3.8
	c12.8,7.6,26,15.5,38,24.5c6,4.4,11.6,9.2,16.9,14.4C561.3,152.3,566,157.9,570.1,163.9L570.1,163.9z M462.9,151
	c-5.2-5.7-10.8-11-16.8-16c-6-5-12.4-9.6-19-13.8c-6.8-4.3-13.9-8.2-21.1-11.7c-7.2-3.5-15-6.8-23-9.8c16.7,4.2,32.6,11.2,47,20.6
	c6.7,4.3,12.9,9.2,18.8,14.6C454,139.8,458.7,145.2,462.9,151L462.9,151z M1920.5,146.2L1920.5,146.2c-10.4-6.5-21.2-12.7-32.1-18.3
	c-11.1-5.8-22.7-11.2-34.3-16.1c-11.9-5-24.2-9.6-36.7-13.7c-12.7-4.2-25.9-7.9-39.2-11.2c13.7,1.5,27.3,3.9,40.7,7.3
	c12.4,3.1,24.5,7,36.4,11.6c10.6,4.1,21.6,8.8,33.5,14.5c11.3,5.4,22.4,11.3,31.8,16.2L1920.5,146.2L1920.5,146.2z M1165.8,139.4
	c-0.2,0-0.3,0-0.5-0.1c-2.4-2.7-4.9-5.5-7.1-8.1l0,0c-7.7-8.7-15.6-17.8-23.7-26.4c-9-9.7-17.3-17.8-25.2-24.7
	c-9.4-8.3-19.6-15.2-30.4-22.6c-10.7-7.3-21.8-14.9-32-23.8c-10.6-9.3-21.7-20.2-34-33.2h8c10.1,10,20.5,19.5,30.8,28.4
	c11.3,9.7,23.4,18.1,35.2,26.1l0,0c10.5,7.2,21.4,14.7,31.5,23c5.1,4.2,10,8.7,14.6,13.4c4.8,4.9,9.2,10.2,13.2,15.8
	c0.2,0,0.3,0.1,0.5,0.1c0.9,0,1.1-0.8,1.1-1.7c-5.9-21.1-10.9-38.2-15.8-54c-5.9-18.9-11.7-35.7-17.6-51.3h9.4
	c6,15.9,12.2,33.7,18.8,54.3c5.9,18.4,11.7,37.5,17.3,55.9c2.2,7.4,4.8,15.7,7.2,23.8v3.2C1166.8,138.7,1166.7,139.4,1165.8,139.4
	L1165.8,139.4z M1633.9,85.6c-13.9,0-27.7,0-41.1-0.1h0c-13.3,0-25.9-0.1-38.7-0.1c-14.6,0-29.1-1.1-43.5-3.2
	c-13.5-2-26.9-4.9-40.1-8.5c-12-3.3-24.2-7.3-37.1-12.3c-10.6-4-21.9-8.7-34.4-14.4c-16.2-7.3-32.3-14.9-48-22.7
	c-15.4-7.6-30.9-15.7-45.9-23.8h11.5c22,12.1,42.7,22.6,63.1,32.1c10.2,4.7,22.4,10.3,35.1,15.7c13.3,5.6,25.3,10.3,36.8,14.2
	c28.2,9.6,53.8,15,78.4,16.5c10.4,0.6,22.3,1,36.2,1c16.1,0,33.3-0.4,49.9-0.8h0l0.4,0h0.1c16.8-0.4,34.2-0.8,51-0.8
	c15.5,0,28.8,0.4,40.6,1.1c12.2,0.7,24.3,2.2,36.2,4.4C1703.5,85.4,1663.9,85.6,1633.9,85.6z M387.7,60.9
	c-25.5-5.2-51.7-10.2-77.1-15.1c-33.8-6.4-68.7-13.1-102.3-20.4c-18.1-3.9-34.4-7.7-49.7-11.6c-17.3-4.4-33-8.7-48-13.3h28
	c10.9,3.1,22.1,6.1,32.9,9.1l0.1,0l0.2,0.1c11.6,3.1,23.5,6.4,35.3,9.7c11.6,3.2,23.3,5.8,35.1,7.7c11.9,2.1,24.1,3.7,35.9,5.4
	c18.8,2.6,38.3,5.3,56.8,9.5c9.2,2.1,18.3,4.6,27.2,7.7C370.8,52.7,379.4,56.5,387.7,60.9L387.7,60.9z M1920.5,35.3L1920.5,35.3
	c-12.6-2.2-25.7-4.1-40.1-5.8c-12.8-1.5-26.2-2.8-41.2-4.1c-27.7-2.2-56.4-3.8-84.2-5.2c-40.8-2.1-82.9-4.3-122.6-9
	c-25-2.9-49.8-6.5-73.6-10.8h52.9c15.7,2.1,31.9,4.1,49.5,6c15.6,1.7,32.8,3.1,52.6,4.2c17.7,1,35.9,1.7,53.6,2.4h0
	c24.9,1,50.6,1.9,76.1,3.8c13.8,1,26.3,2.1,38.4,3.5c13.6,1.5,26.2,3.3,38.5,5.4L1920.5,35.3L1920.5,35.3z M165.3,32
	c-17.9-4.1-35.3-8.8-51.5-13.9C97,12.8,80.9,6.9,65.9,0.5h7.8C100.6,11.1,130.5,21.4,165.3,32L165.3,32z M530.1,31.9
	c-18.4-11.8-37.5-22.2-57.3-31.4h13.7c0.7,0.3,1.4,0.7,2,1l-0.6-0.5l-0.5-0.4h9.7C506.9,9.5,517.4,19.4,530.1,31.9L530.1,31.9z"/>
</svg>
