<svg xmlns="http://www.w3.org/2000/svg" width="1921" height="480.163" viewBox="0 0 1921 480.163">
  <path id="Subtraction_2" data-name="Subtraction 2" d="M2085.2,2187h-8c-17.476-17.573-33.924-36.759-49.829-55.313l-.005-.006-.009-.01c-15.038-17.542-30.588-35.682-46.98-52.424-8.826-9.015-17.184-16.917-25.553-24.158A308.468,308.468,0,0,0,1926.8,2033.4c7.556,10.287,15.363,21.985,23.869,35.762,7.591,12.3,15.023,25.07,22.209,37.423,7.949,13.663,16.168,27.791,24.638,41.33,9.491,15.173,18.285,27.958,26.884,39.085h-11.2c-18.127-27.636-32.781-51.187-44.8-72-4.62-8.006-9.087-16.779-13.407-25.263l0-.007c-8.158-16.022-16.594-32.59-26.59-45.13-17.985-22.571-40.529-40.755-62.331-58.341-7.453-6.011-15.159-12.228-22.469-18.458-5.608-4.781-11.625-9.454-17.882-13.889-5.983-4.239-12.393-8.407-19.052-12.387a394.24,394.24,0,0,0-41.173-21.208c-28.668-12.866-59.21-23.477-91.546-34.71l-.017-.006c-19.794-6.876-40.261-13.986-60.731-21.8,23.011,16.126,42.929,35.489,57.6,55.991,1.189,1.662,2.6,3.326,4.087,5.086,2.66,3.144,5.407,6.391,7.011,9.8a13.429,13.429,0,0,1,1.386,5.235A10.7,10.7,0,0,1,1682,1945.4a130.052,130.052,0,0,0-6.314-12.759,135.085,135.085,0,0,0-7.442-11.7,157.191,157.191,0,0,0-17.777-20.761c-13.7-13.575-29.764-25.2-43.667-34.78a106.954,106.954,0,0,0-13.115-7.247c-5.492-2.714-11.169-5.519-15.745-9.113a29.39,29.39,0,0,1-5.954-6.107A22.316,22.316,0,0,1,1568.4,1835a198.2,198.2,0,0,0,25.344,15.9,274.846,274.846,0,0,0,27.055,12.441c18.46,7.391,37.883,13.307,56.666,19.028l.011,0,.015,0c15.314,4.664,31.15,9.488,46.11,15.023a505.029,505.029,0,0,1,73.636,33.794A482.521,482.521,0,0,1,1862.8,1975.8c9.342,7.5,18.814,14.938,27.975,22.135l.059.047.025.02c15.392,12.094,31.308,24.6,46.452,37.249,16.944,14.154,31.3,27.156,43.89,39.749,16.138,16.137,31.434,33.521,46.226,50.333l.021.024.006.007c18.145,20.623,36.908,41.948,57.747,61.637Zm-1008,0h-6.4c-29.415-22.428-58.442-49.932-88.742-84.085-12.643-14.25-25.65-29.8-39.762-47.537-11.183-14.056-22.871-29.223-37.9-49.179-8.339-11.08-15.2-22.94-22.465-35.5-6.411-11.081-13.041-22.54-20.735-33.3a53.474,53.474,0,0,0-7.672-8l0,0a58.056,58.056,0,0,1-7.477-7.692,19.327,19.327,0,0,1-4.046-9.9,554.012,554.012,0,0,1,41.221,39.735c13.134,13.879,26.013,28.461,38.468,42.563l.006.007c10.921,12.365,22.214,25.151,33.628,37.406,12.8,13.743,24.4,25.352,35.477,35.49,28.919,26.472,56.4,48.419,84.024,67.1,15.421,10.428,31.232,20.043,46.994,28.581A523.2,523.2,0,0,0,1173.195,2187l-17.6,0c-12.528-5.452-25.1-11.635-37.364-18.377-11.664-6.412-23.435-13.54-34.985-21.187-10.894-7.213-21.961-15.132-32.893-23.538-10.193-7.838-20.652-16.394-31.086-25.43C978.9,2063.5,942.478,2024.6,907.258,1986.989c-10.387-11.093-21.127-22.564-31.657-33.589,4.283,5.99,8.63,12.093,12.833,17.994l.155.218.052.073c13.754,19.308,27.976,39.273,42.284,58.589,16.066,21.689,30.545,40.247,44.263,56.736,16.458,19.783,32.2,37.081,48.117,52.885,8.622,8.559,17.4,16.767,26.105,24.4,9.122,8,18.472,15.638,27.79,22.709Zm-268.8,0h-9.6a659.959,659.959,0,0,1-102.337-96.757c-14.78-17.292-29.077-35.813-42.495-55.049-13.03-18.679-25.67-38.663-37.568-59.394-5.453-9.5-10.719-19.089-15.811-28.36-9.39-17.092-18.259-33.236-28.092-48.714-5.281-8.313-10.343-15.646-15.475-22.419a228.7,228.7,0,0,0-17.422-20.516,292.879,292.879,0,0,0-53.627-43.379A373.578,373.578,0,0,0,419.6,1779c-20.756-8.022-43.423-14.581-67.42-21.526l-.011,0c-44.1-12.76-89.69-25.954-122.953-48.971h8.8a143.166,143.166,0,0,0,16.352,10.658,187.825,187.825,0,0,0,17.726,8.707,286.2,286.2,0,0,0,37.1,12.735c8.592,2.37,17.27,4.61,25.661,6.778l.021.005c17.4,4.494,33.834,8.739,49.518,14.017,5.971,2.005,11.995,3.567,17.82,5.077l.034.009a197.077,197.077,0,0,1,20.55,6.115c7.578,2.871,15.119,6.162,23.053,10.063,7.059,3.47,14.265,7.344,22.029,11.843,14.41,8.35,28.482,17.568,42.09,26.483l.026.017c7.081,4.638,14.4,9.434,21.6,13.994,38.882,24.618,70.9,46.554,100.8,73.591,5.657,5.119,11.168,10.595,16.847,16.741,5.072,5.49,10.173,11.4,15.594,18.08,10.094,12.431,19.494,25.27,29.445,38.862l.029.039c5.34,7.293,10.861,14.835,16.485,22.285,47.353,62.735,108.72,118.72,182.4,166.4-12.437-13.529-24.242-27.041-35.09-40.159-11.975-14.48-23.181-28.961-33.307-43.041-11-15.3-21.065-30.586-29.908-45.441A484.443,484.443,0,0,1,770,1995c10.558,18.7,21.5,36.69,32.531,53.465,11.573,17.6,23.636,34.472,35.854,50.142,12.749,16.35,26.093,31.941,39.66,46.339A581.3,581.3,0,0,0,922,2187l-17.6,0c-17.083-10.9-33.738-22.314-49.5-33.934-15.951-11.757-31.515-24.109-46.26-36.713-14.88-12.718-29.407-26.1-43.179-39.789-13.871-13.783-27.415-28.306-40.256-43.164-13.286-15.378-25.332-32.218-36.982-48.5-7.144-9.986-14.531-20.313-22.129-30.2A359.471,359.471,0,0,0,642,1926.192a578.684,578.684,0,0,0-48.754-46.012A527.3,527.3,0,0,0,538,1839.8a67.131,67.131,0,0,0,8.884,14.817c3.485,4.527,7.419,8.805,11.224,12.943A181.079,181.079,0,0,1,570,1881.4c10.924,14.607,19.951,31.47,28.68,47.778l.12.223c13.965,26.1,28.549,50.974,43.347,73.944,7.739,12.013,15.715,23.785,23.708,34.988,8.209,11.506,16.683,22.761,25.186,33.451,8.719,10.96,17.722,21.644,26.757,31.753,9.252,10.353,18.813,20.41,28.418,29.895,9.82,9.7,19.971,19.075,30.17,27.875,10.419,8.989,21.19,17.634,32.014,25.694Zm-100.8,0H698c-8.674-6.358-17.135-13.047-25.147-19.883-8.052-6.868-15.892-14.089-23.3-21.463-7.44-7.4-14.665-15.172-21.476-23.1-6.833-7.952-13.448-16.292-19.663-24.79-6.23-8.519-12.24-17.447-17.864-26.536-5.635-9.107-11.044-18.641-16.08-28.338s-9.858-19.87-14.31-30.194-8.682-21.139-12.556-32.107c-7.7-21.794-16.843-46.975-27.93-70.008A287.282,287.282,0,0,0,502,1878.747c-3.306-5.1-6.751-9.976-10.24-14.477-3.652-4.712-7.474-9.176-11.36-13.269a176.548,176.548,0,0,0-15.663-14.582,198.842,198.842,0,0,0-17.147-12.619,265.444,265.444,0,0,0-38.089-20.534c-12.233-5.461-25.6-10.617-42.058-16.227-14.532-4.953-29.189-9.482-44.705-14.278l-.01,0-.005,0c-16.456-5.086-33.473-10.346-50.326-16.156,17.562,13.6,35.982,24.569,53.795,35.175l.006,0c12.654,7.534,24.605,14.649,36.3,22.651,6.282,4.3,11.871,8.431,17.087,12.637A199.66,199.66,0,0,1,395.6,1841.4a513.582,513.582,0,0,1,48.321,55.125c7.56,10.082,14.643,20.479,21.054,30.9,6.748,10.973,13.015,22.4,18.625,33.973,2.111,4.354,4.143,8.645,6.108,12.795l.033.069c4.634,9.787,9.009,19.027,13.889,28.031A199.058,199.058,0,0,0,520.4,2028.6c4.655,6.117,9.518,12.286,14.219,18.251l.086.109.005.006c10.287,13.05,20.924,26.545,30.489,40.825a250.2,250.2,0,0,0,23.1,29.424,306.747,306.747,0,0,0,26.26,25.5C633.65,2159.264,654.412,2173.78,674,2187H658c-7.538-4.624-15.019-9.708-22.234-15.113-6.885-5.156-13.764-10.779-20.445-16.712a395.925,395.925,0,0,1-36.588-37.375c-10.252-11.848-20.928-25.335-32.637-41.233-10.467-14.211-20.817-29.047-30.825-43.4l-.2-.29c-2.445-3.5-4.972-7.127-7.467-10.692-13.459-19.226-26.038-39.652-38.2-59.406l0-.007c-13.38-21.727-27.217-44.194-42.24-65.084-8.085-11.243-15.864-21.151-23.781-30.291a304.337,304.337,0,0,0-26.981-27.6,177.611,177.611,0,0,0-14.437-11.61c-4.722-3.427-9.8-6.816-15.522-10.36-10.656-6.6-21.627-12.548-33.243-18.847-21.691-11.765-44.116-23.927-64.793-40.792-4.353-3.548-8.418-7.509-12.35-11.34-7.563-7.369-15.383-14.988-26.05-20.651v-17.7h6.979a100.772,100.772,0,0,0,10.7,10.92,120.149,120.149,0,0,0,12.246,9.388,171.829,171.829,0,0,0,28.12,15.025c20.027,8.63,42.254,14.883,63.749,20.931l.009,0c16.373,4.607,31.839,8.958,46.195,14.234,10.845,3.985,21.2,8.212,30.767,12.564,10.593,4.817,20.643,9.975,29.871,15.33a266.18,266.18,0,0,1,27.954,18.58,214.58,214.58,0,0,1,25.012,22.316,126.653,126.653,0,0,1,12.77,16.048c3.835,5.611,7.42,11.531,10.887,17.255,4.577,7.557,9.31,15.371,14.742,22.706a184.029,184.029,0,0,0,14.421,16.542c5.506,5.828,11.2,11.853,15.979,18.657,3.847,5.471,7.623,11.221,11.275,16.781,5.083,7.739,10.339,15.742,15.925,23.219,7.145,9.569,14.268,19.268,21.156,28.648l0,.006c12.246,16.674,24.908,33.915,37.68,50.405,14.3,18.462,27.326,34.138,39.827,47.927a484.275,484.275,0,0,0,44.582,43.6c8.135,6.942,16.51,13.535,24.89,19.6,8.784,6.353,17.887,12.349,27.055,17.82l-12.8,0c-7.906-5.073-15.806-10.647-23.483-16.568-7.318-5.644-14.677-11.793-21.872-18.275a481.51,481.51,0,0,1-39.842-40.707c-11.279-12.863-23.115-27.465-36.185-44.641-11.655-15.318-23.205-31.238-34.375-46.634l-.008-.011c-8.674-11.956-17.643-24.319-26.636-36.364-4.968-6.656-9.677-13.669-14.231-20.452-6-8.939-12.206-18.18-18.938-26.472a134.927,134.927,0,0,0-10.668-11.774A95.319,95.319,0,0,0,531.6,1915l2.543,6.138,1.44,3.478.013.032c10.68,25.794,20.768,50.157,31.587,74.232,5.812,12.934,11.284,24.555,16.728,35.526,6.092,12.276,12.009,23.461,18.089,34.194a273.7,273.7,0,0,0,19.443,29.6c6.567,8.754,13.79,17.417,22.082,26.484,15.427,16.869,32.429,32.73,48.872,48.068l.109.1c4.95,4.618,10.069,9.394,15.095,14.149Zm1243.194,0h-9.6a184.228,184.228,0,0,0-22.329-24.571,275.11,275.11,0,0,0-26.332-21.393c-18.594-13.438-39.334-25.681-59.39-37.52l-.006,0-.005,0c-14.483-8.549-29.459-17.389-43.551-26.632-7.584-4.974-14.314-9.664-20.574-14.34-7.02-5.242-13.271-10.33-19.11-15.555a208.4,208.4,0,0,1-17.151-17.17,168.353,168.353,0,0,1-14.7-19.187A148.107,148.107,0,0,1,1698,1964.6c5.685,7.713,10.24,16.516,14.644,25.029,4.162,8.046,8.465,16.362,13.689,23.672a72.692,72.692,0,0,0,8.708,10.211,55.839,55.839,0,0,0,10.96,8.29c8.76,5.048,18.314,8.995,28.43,13.172,6.931,2.863,14.095,5.821,21.17,9.228,31.623,15.215,67.466,32.46,98.62,53.837,7.9,5.42,15.328,10.995,22.08,16.57a244.748,244.748,0,0,1,20.055,18.467,202.417,202.417,0,0,1,17.532,20.689A179.514,179.514,0,0,1,1968.4,2187h-4.8a194.4,194.4,0,0,0-15.495-23.037,213.093,213.093,0,0,0-18.178-20.353,251.957,251.957,0,0,0-20.477-18.053c-6.87-5.443-14.4-10.872-22.393-16.137a507.868,507.868,0,0,0-49-28.057c-17.027-8.677-34.839-16.97-52.065-24.99l-.042-.02c-12.636-5.884-25.7-11.967-38.35-18.153a189.018,189.018,0,0,0,20.235,18.27,276.068,276.068,0,0,0,22.606,15.9c15.687,9.987,32.705,19.067,49.162,27.849l.015.008c10.573,5.642,21.505,11.476,31.979,17.493,11.75,6.75,21.666,13.024,30.316,19.179a208.03,208.03,0,0,1,26.96,22.534,160.432,160.432,0,0,1,11.7,13.05A144.748,144.748,0,0,1,1950.8,2187Zm-451.2,0h-4.8a457.856,457.856,0,0,1-20.188-49.337c-6-17.082-11.532-34.917-16.884-52.165l0-.009c-6.539-21.072-13.3-42.861-20.923-63.314-4.1-11.012-8.126-20.775-12.294-29.848A282.979,282.979,0,0,0,1410,1964.6c-4.451-7.418-9.322-14.9-14.48-22.232-4.918-6.993-10.258-14.083-15.87-21.074-10.365-12.91-21.858-25.781-35.134-39.35-11.069-11.313-23.618-23.333-38.362-36.747-13.13-11.945-26.774-23.888-39.968-35.438l-.066-.058c-26.365-23.078-53.628-46.942-78.519-72.3-8.689-8.856-17.254-18.31-26.183-28.9h5.3l.036.042.015.017.037.042c13.861,16.016,29.747,32.519,48.566,50.454,14.8,14.1,31.394,29.08,52.233,47.136,10.005,8.67,20.525,17.335,30.7,25.716,12.79,10.536,26.016,21.432,38.447,32.512A400.549,400.549,0,0,1,1371.6,1899c5.693,6.491,11.271,13.537,16.577,20.945,5.058,7.06,10.036,14.678,14.795,22.644A454.077,454.077,0,0,1,1428.229,1992c6.842,15.453,13.77,32.883,21.179,53.286,6.6,18.165,12.958,36.958,19.109,55.131l.027.079,0,.005c9.74,28.777,19.812,58.533,31.054,86.5Zm-1067.2,0h-16c-10.911-18.164-19.041-38.067-26.9-57.314-6.052-14.817-12.311-30.139-19.662-44.079a182.987,182.987,0,0,0-12.11-20.015A128.58,128.58,0,0,0,342.8,2047.8a153.025,153.025,0,0,0-18.876-15.822,202.882,202.882,0,0,0-20.693-12.87c-14.337-7.845-29.613-14.437-45.786-21.415l-.021-.009c-15.329-6.614-31.18-13.453-47.423-21.885v-11.2c20.436,13.321,43.157,22.223,65.13,30.831,13.75,5.388,27.969,10.959,41.064,17.451a192.651,192.651,0,0,1,18.951,10.66A136.26,136.26,0,0,1,352.4,2036.6a122.865,122.865,0,0,1,16.976,18.751,167.159,167.159,0,0,1,13.28,21.317c7.9,14.9,14.065,30.685,20.587,47.393,8.25,21.136,16.781,42.99,29.165,62.94Zm1115.195,0h-8l-.031-.055c-12.032-21.9-25.67-46.732-38.312-71.827-13.967-27.726-24.976-52.363-33.657-75.318-5.021-13.279-9.862-28.04-14.8-45.125-4.409-15.257-8.528-31.068-12.511-46.358l-.015-.057c-6.226-23.9-12.663-48.612-20.676-73.261-4.522-13.912-8.907-28.057-13.147-41.737l-.005-.017c-6.1-19.69-12.414-40.051-19.106-59.59-7.5-21.882-14.738-40.546-22.142-57.057-1.2-2.674-2.427-5.4-3.653-8.1h9.3l.509,1.138.247.554c6.333,14.174,12.324,28.95,18.315,45.175,5.336,14.45,10.553,29.735,15.948,46.728,10.02,31.562,19.156,64.414,27.991,96.184l.015.053c6.523,23.458,13.269,47.714,20.346,71.369,7.946,26.561,15.465,49.491,22.986,70.1a786,786,0,0,0,32.582,75.939c10.4,21.275,22.412,43.918,37.817,71.261ZM462.8,2187h-6.4c-7.971-19.188-14.2-38.918-20.232-58-6.1-19.292-11.851-37.511-19.153-54.79a221.517,221.517,0,0,0-12.235-24.868A152,152,0,0,0,389.2,2027a119.766,119.766,0,0,0-10.85-11.237,130.315,130.315,0,0,0-11.954-9.618,167.781,167.781,0,0,0-26.676-15.334,304.363,304.363,0,0,0-29.464-11.716c-10.172-3.516-20.844-6.814-31.165-10-23.029-7.115-46.841-14.473-69.092-25.3V1937.4a107.905,107.905,0,0,0,15.571,9.24,167.861,167.861,0,0,0,17.32,7.258c12.012,4.328,25.119,7.861,37.795,11.278,17.7,4.772,36,9.7,52.514,17.024a229.746,229.746,0,0,1,32.584,17.192A126.435,126.435,0,0,1,394,2023.8a153.911,153.911,0,0,1,15.7,22.464,221.749,221.749,0,0,1,12.288,24.9c7.321,17.269,13.062,35.412,19.141,54.622l0,.014c6.382,20.17,12.982,41.027,21.671,61.2Zm1447.99,0H1893.2c-14.456-4.982-27.3-9.781-39.273-14.669-14.427-5.891-27.3-11.789-39.367-18.029a323.113,323.113,0,0,1-36.846-22.08c-5.9-4.136-11.506-8.434-16.661-12.775A196.191,196.191,0,0,1,1746,2105.4a326.256,326.256,0,0,1-28.166-34.159c-8.747-12.008-17.168-24.713-25.311-37l-.023-.035c-8.99-13.565-18.287-27.592-28.1-40.806-4.967-6.69-10.009-13.615-14.885-20.313l0-.005c-21.911-30.093-44.568-61.211-71.511-86.882-10.474-9.983-21.359-19.417-31.886-28.54-9.794-8.488-19.921-17.265-29.392-26.228A296.638,296.638,0,0,1,1490,1803a460.766,460.766,0,0,1-32.6-45.129,369.176,369.176,0,0,1-26.13-49.371h9.809l3.841,3.264.784.667c19.067,16.212,38.784,32.976,59.991,48.009a357.1,357.1,0,0,0,33.061,20.988c5.867,3.264,11.79,6.3,17.6,9.016,6.115,2.86,12.317,5.469,18.436,7.756,16.27,6.081,34.485,12.105,55.686,18.419,18.884,5.624,38.346,10.953,57.167,16.108l.06.016.018.005c31.264,8.562,63.593,17.416,94.224,27.873,16.489,5.629,31.187,11.262,44.936,17.221A405.5,405.5,0,0,1,1869.2,1899c56.385,32.637,104.837,70.489,148.124,115.718,10.4,10.865,20.7,22.382,30.621,34.229,9.706,11.592,19.381,23.9,28.754,36.58,9.127,12.347,18.291,25.484,27.236,39.046,8.664,13.136,17.434,27.142,26.066,41.628v16c-19.246-31.543-37.646-59.26-56.253-84.732-10.083-13.8-20.375-27.121-30.588-39.582-10.708-13.064-21.709-25.649-32.7-37.406-11.45-12.252-23.277-24.024-35.154-34.991-12.311-11.368-25.083-22.248-37.962-32.337-13.3-10.416-27.131-20.322-41.12-29.443-14.4-9.388-29.413-18.24-44.627-26.309a435.09,435.09,0,0,0-43.916-20.121c-14.24-5.648-29.456-10.973-46.516-16.281-31.7-9.862-65.3-18.2-97.8-26.269l-.033-.008-.322-.08c-7.936-1.97-16.143-4.007-24.217-6.041-8.136-2.049-16.375-4.444-24.49-7.118-7.716-2.543-15.567-5.418-23.333-8.548a458.859,458.859,0,0,1-43.669-20.446c-27.941-14.808-53.726-31.542-78.663-47.725-4.53-2.94-9.214-5.979-13.846-8.963,2.423,5.707,5.158,11.375,8.131,16.845,2.834,5.214,5.981,10.426,9.354,15.49a239.307,239.307,0,0,0,21.758,27.757c7.028,7.792,15.138,15.927,24.794,24.87,8.644,8.006,17.769,15.969,26.593,23.671l.009.008c14.51,12.664,29.513,25.759,43.761,40.161,8.153,8.24,16.147,17.069,24.438,26.992,7.381,8.833,14.825,18.332,22.758,29.039,14.735,19.888,28.92,40.979,42.637,61.375l.008.011c13.854,20.6,28.18,41.9,42.959,61.774,5.7,7.666,11.711,15.068,17.865,22s12.643,13.616,19.3,19.875c6.638,6.241,13.648,12.253,20.835,17.868,7.158,5.593,14.719,10.97,22.474,15.982,30.478,19.7,65.91,35.233,108.32,47.48Zm-104,0H1786c-5.726-4.205-12.116-8.121-18.882-12.267l-.009-.006c-9.285-5.69-18.885-11.574-26.769-18.338a64.81,64.81,0,0,1-10.334-10.924,40.127,40.127,0,0,1-6.406-12.865,159.772,159.772,0,0,0,17.66,16.736,202.162,202.162,0,0,0,20.065,14.334c12.7,7.993,27.572,15.623,45.47,23.328Zm-201.6,0h-4.8a474.608,474.608,0,0,1-36.279-57.372,522.005,522.005,0,0,1-29.437-65.313A576.957,576.957,0,0,1,1501.2,1913.4c6.271,21.955,11.339,44.344,16.24,66l0,.015.01.044c3.217,14.213,6.544,28.909,10.117,43.009,4,15.79,7.936,29.308,12.028,41.328,15.544,45.65,39.675,83.039,63.012,119.2l.1.157L1605.2,2187Zm-27.2,0h-14.4c-4.277-6.805-8.738-13.738-13.053-20.442l-.024-.037c-21.338-33.152-43.4-67.432-57.323-107.53-3.277-9.439-6.276-19.307-9.17-30.166-2.58-9.679-5.016-19.934-7.449-31.35-4.519-21.2-8.339-43.307-12.032-64.685l0-.025c-2.1-12.135-4.265-24.683-6.545-36.973-6.983-37.662-13.529-68.293-20.6-96.4-4.13-16.411-8.49-32.072-12.959-46.547-4.836-15.662-10-30.582-15.345-44.345h6.643c5.666,14.262,11.122,29.663,16.219,45.777,4.757,15.039,9.378,31.265,13.735,48.225,7.565,29.448,14.732,62.583,21.909,101.3,1.382,7.454,2.75,15.04,4.073,22.375,4.226,23.434,8.6,47.666,13.964,70.639,2.889,12.363,5.827,23.379,8.982,33.679A329.957,329.957,0,0,0,1506,2062.2c15.316,36.339,35.452,67.645,54.925,97.92,5.673,8.82,11.539,17.94,17.074,26.879Zm-94.4,0h-4.8c-7.03-17.728-13.157-36.772-19.083-55.19l0-.011c-6.737-20.94-13.7-42.594-22.033-62.424a268.868,268.868,0,0,0-13.781-28.446,170.73,170.73,0,0,0-17.1-25.129,102.244,102.244,0,0,1,10.089,10.14,121.173,121.173,0,0,1,8.761,11.469,171.731,171.731,0,0,1,14.3,26.162c8.351,18.626,14.783,39.616,21,59.916,3.31,10.8,6.734,21.977,10.41,32.672A308.362,308.362,0,0,0,1483.6,2187Zm-81.6,0h-12.8c-5.217-6.151-10.8-12.256-16.591-18.146-5.524-5.617-11.426-11.227-17.543-16.676a456.351,456.351,0,0,0-37.459-29.818c-11.611-8.348-24.636-17.039-39.821-26.568-13.547-8.5-27.6-16.915-41.181-25.052l-.036-.022c-24.633-14.753-50.1-30.007-74.569-46.919a711.744,711.744,0,0,1-71.895-57.467c-22.119-20.006-44.226-42.122-65.705-65.733-11.045-12.151-22.807-23.854-34.182-35.172l-.02-.019c-9.879-9.829-20.094-19.991-29.8-30.409-21.781-23.383-43-48.078-63.527-71.96l-.008-.009c-9.005-10.479-18.316-21.314-27.666-32.031-7.585-8.7-13.988-15.847-20.149-22.5H858.3c23.321,24.219,46.39,49.674,68.7,74.29l.022.025c27.79,30.663,56.526,62.37,86.183,92.185,8.819,8.865,17.7,17.955,26.295,26.746l.055.056c14.509,14.844,29.511,30.193,44.637,44.916,16.995,16.542,32.311,30.486,46.825,42.629a502.485,502.485,0,0,0,50.892,37.742c9.119,5.864,18.4,11.329,27.577,16.243,9.642,5.161,19.507,9.894,29.32,14.067a962.059,962.059,0,0,1-61.991-76.277c-9.938-13.7-19.328-27.591-27.909-41.29-9.074-14.488-17.587-29.306-25.3-44.042-19.17-36.621-34.727-63.656-50.441-87.656-20.027-30.588-40.163-55.819-61.559-77.135,5.729,4.856,11.381,10.076,16.8,15.514,5.17,5.188,10.3,10.749,15.255,16.528a373.177,373.177,0,0,1,26.766,35.539c7.39,11.037,15,23.44,23.265,37.917,7.36,12.894,14.561,26.229,21.524,39.125l.028.052c10.866,20.125,22.1,40.935,34.325,60.8,6.58,10.69,12.9,20.245,19.334,29.211,7.221,10.068,14.386,19.135,21.9,27.718,6.605,7.54,13.316,15.613,19.806,23.419,15.7,18.882,31.928,38.407,48.993,53.372,17.287,15.163,36.407,27.79,54.9,40l.017.011c15.813,10.444,32.165,21.243,47.094,33.48a230.6,230.6,0,0,1,21.429,19.8A183.038,183.038,0,0,1,1402,2187Zm-84.8,0h-20.8c-12.9-6.235-25.788-12.871-38.309-19.724-12.263-6.713-24.545-13.838-36.5-21.176-11.693-7.176-23.426-14.769-34.872-22.57-11.164-7.607-22.4-15.65-33.412-23.906-40.836-30.626-80.907-65.9-122.5-107.824-13.408-13.517-26.5-27.822-40.022-43.731-12.047-14.173-24.164-29.307-37.043-46.266-23.922-31.5-46.916-64.7-69.152-96.8l-.007-.011c-16.9-24.4-34.371-49.623-52.175-73.995-5.587-7.649-11.46-15.219-17.457-22.5h9.8c18.039,22.562,35.02,46.677,49.252,67.292q2.4,3.48,4.8,6.961l.706,1.024c18.055,26.171,36.726,53.234,55.842,79.311,10.286,14.03,19.869,26.655,29.3,38.594,10.586,13.4,20.71,25.611,30.95,37.318,11.408,13.041,22.877,25.687,34.089,37.586,11.726,12.444,23.594,24.523,35.276,35.9,12.148,11.83,24.51,23.308,36.743,34.115,12.658,11.183,25.608,22.028,38.489,32.233,13.274,10.517,26.905,20.7,40.514,30.254,13.981,9.819,28.387,19.3,42.819,28.177,14.783,9.094,30.059,17.843,45.4,26,15.685,8.342,31.923,16.325,48.263,23.73Zm-52.8,0H1250c-14.275-9.46-29.021-18.846-43.282-27.923l-.071-.045c-24.9-15.847-50.646-32.234-74.769-49.575-12.978-9.329-24.461-18.181-35.106-27.063A426.818,426.818,0,0,1,1064.4,2052.6c11.235,8.157,22.4,16.42,34.23,25.168,25.674,18.993,52.221,38.632,79.822,57.376,14.916,10.129,28.712,19.033,42.175,27.221,15.2,9.243,29.514,17.3,43.769,24.632Zm-28.8,0h-14.4a599.992,599.992,0,0,1-63.882-35.207c-19.554-12.32-39.511-26.314-59.318-41.593a380.041,380.041,0,0,1-30.287-26.285c-9.7-9.242-18.945-18.679-28.732-28.67l-.007-.007c-12.725-12.991-25.883-26.425-40.175-39.437-13.545-12.335-27.636-24.582-43.079-37.441-13.768-11.464-28.315-23.167-44.474-35.777-30.043-23.445-61.307-46.594-91.541-68.982-12.1-8.957-24.6-18.218-36.9-27.4-23.083-17.237-40.906-29.809-57.792-40.764a555.875,555.875,0,0,0-60.608-34.444c-7.568-3.664-15.6-7.192-23.883-10.487-7.894-3.141-16.268-6.173-24.89-9.011-15.926-5.242-33.016-9.966-52.247-14.442-35.742-8.318-73.74-14.505-110.488-20.489h-.005l-.063-.01c-15.835-2.578-32.21-5.244-48.226-8.052h30.437c5.946.972,12,1.952,17.856,2.9l.945.153c38.317,6.2,77.939,12.606,114.956,21.206,19.92,4.628,37.545,9.508,53.884,14.919,8.85,2.931,17.418,6.061,25.464,9.3,8.438,3.4,16.6,7.04,24.259,10.821,8.188,4.043,16.3,8.449,24.808,13.471,7.593,4.483,15.335,9.362,23.669,14.917,15.5,10.332,30.868,21.578,45.727,32.453,7.876,5.764,16.021,11.725,24.2,17.559,44.549,31.794,80.417,58.387,112.881,83.69,39.53,30.81,74.306,59.959,106.315,89.11,12.259,11.163,24.037,22.841,35.428,34.135l.006.006c10.414,10.326,21.181,21,32.191,31.152A426.886,426.886,0,0,0,1112.4,2113.4c19.942,14.805,39.2,27.746,58.86,39.562A672.75,672.75,0,0,0,1235.6,2187Zm-192,0h-11.2c-9.7-9.862-20.587-19.672-31.113-29.16-13.084-11.794-26.614-23.989-38.508-36.794a217.525,217.525,0,0,1-16.516-19.835A141.832,141.832,0,0,1,933.2,2079.8c7.82,9.686,16.329,19.479,25.293,29.107,8.4,9.02,17.5,18.221,27.053,27.346,16.811,16.059,35.8,32.658,58.052,50.746Zm-403.2,0h-16c-7.015-6.388-14.083-13.244-21.009-20.38-6.6-6.8-13.3-14.087-19.892-21.644-12.175-13.952-24.3-29.117-37.077-46.364-23.728-32.036-46.131-66.579-67.8-99.985-5.9-9.092-12.579-19.4-19.025-29.226-4.738-7.225-9.19-14.573-13.5-21.679l-.02-.033c-5.768-9.517-11.216-18.507-17.3-27.258-3.271-4.707-6.408-8.884-9.59-12.77a146.941,146.941,0,0,0-10.8-11.87c-10.346-10.153-21.1-19.78-32.878-29.431-10.554-8.648-21.742-17.155-34.2-26.009-23.247-16.516-47.11-31.527-72.373-47.42-19.069-12-38.786-24.4-58.949-37.932v-3.2a270.322,270.322,0,0,0,32.185,22.182c11.186,6.692,22.853,12.929,34.135,18.961,9.693,5.182,19.715,10.541,29.275,16.108A295.685,295.685,0,0,1,333.2,1827c11.852,8.8,23.429,19.516,34.625,29.884l.022.02c5.905,5.469,12.012,11.123,18.153,16.5,4.539,3.969,9.268,7.885,13.841,11.672,6.742,5.583,13.713,11.356,20.091,17.312A136.431,136.431,0,0,1,437.2,1921.4c10.094,13.816,19.706,28.919,29,43.525l.068.107c5.634,8.851,11.46,18,17.33,26.768,6.172,9.216,12.29,18.486,18.206,27.45l.013.02c10.008,15.164,20.357,30.845,30.73,45.9,11.616,16.863,22.127,31.277,32.133,44.066a529.3,529.3,0,0,0,35.343,41.009c6.385,6.644,12.928,13.031,19.445,18.983,6.827,6.235,13.868,12.212,20.928,17.767Zm-57.6,0h-6.4c-25.689-23.55-41.3-60.139-56.394-95.524l-.005-.012c-5.426-12.718-11.036-25.869-16.943-37.907-3.176-6.474-6.2-12.151-9.236-17.357a166.171,166.171,0,0,0-10.221-15.6,136.983,136.983,0,0,1,13.375,17.027,206.569,206.569,0,0,1,11.3,19.1c7,13.277,13.17,27.71,19.14,41.668,7.07,16.529,14.379,33.617,23.1,48.893a168.268,168.268,0,0,0,14.42,21.576A113.531,113.531,0,0,0,582.8,2187Zm-20.8,0h-6.4a247.357,247.357,0,0,1-16.054-21.755c-4.664-7.059-9.207-14.6-13.89-23.054-8.7-15.7-16.528-32.183-24.1-48.124l-.014-.029c-4.893-10.3-9.953-20.948-15.164-31.2-5.845-11.5-11.283-21.32-16.625-30.01a246.48,246.48,0,0,0-19.613-27.758c-3.674-4.468-7.511-8.745-11.407-12.713-4.082-4.157-8.365-8.115-12.731-11.764a195.194,195.194,0,0,0-22.46-16.11c-7.407-4.6-15.419-9-24.493-13.463-16.86-8.29-34.951-15.536-52.447-22.544-21.012-8.415-42.739-17.117-62.68-27.75a238.551,238.551,0,0,1-28.624-17.75c-4.617-3.368-9.037-6.905-13.137-10.514A164.859,164.859,0,0,1,210,1860.6v-8a220.408,220.408,0,0,0,27.083,23.055,308.258,308.258,0,0,0,29.963,19.09c20.713,11.695,43.008,21.765,64.57,31.5l.014.006c13.717,6.2,27.9,12.6,41.459,19.333a397.123,397.123,0,0,1,39.2,21.963,227.608,227.608,0,0,1,34.864,27.3,183.4,183.4,0,0,1,15.155,16.5A173.75,173.75,0,0,1,475.6,2030.2a297.064,297.064,0,0,1,15.5,29.438c4.72,10.154,9.185,20.746,13.5,30.99,7.274,17.259,14.793,35.1,23.823,51.549a210.984,210.984,0,0,0,14.966,23.687A152.8,152.8,0,0,0,562,2187Zm-16,0h-9.6c-3.833-4.566-7.792-9.087-11.983-13.873-8.35-9.535-16.984-19.395-24.719-29.811a185.561,185.561,0,0,1-10.774-16.062A124.78,124.78,0,0,1,480.4,2110.2c-1.654-4.1-3.237-8.1-4.768-11.973l-.076-.191c-5.29-13.375-10.285-26.006-16.179-37.463A135.833,135.833,0,0,0,437.2,2028.6a259.051,259.051,0,0,0-25.147-23.455,228.523,228.523,0,0,0-27.8-19.364,224.75,224.75,0,0,0-30.927-15.154A247.131,247.131,0,0,0,318.8,1959.8c-12.612-2.982-26.229-4.445-39.4-5.86h-.013c-12.3-1.322-25.025-2.689-36.819-5.292a119.416,119.416,0,0,1-17.072-5.006A79.527,79.527,0,0,1,210,1935.8v-3.208a150.487,150.487,0,0,0,18.207,7.164c6.027,1.966,12.564,3.78,19.984,5.543,13.774,3.274,28.477,5.851,42.7,8.343l.028,0c12.592,2.208,25.612,4.49,37.661,7.213,6.487,1.466,12.2,2.943,17.477,4.516A156.845,156.845,0,0,1,362,1971a311.52,311.52,0,0,1,39.169,19.465,224.217,224.217,0,0,1,18.761,12.43A179.289,179.289,0,0,1,437.2,2017.4a119.092,119.092,0,0,1,14.746,17.209,170.035,170.035,0,0,1,11.877,19.532c7.182,13.645,12.984,28.062,19.126,43.324l.143.354c1.21,3.005,2.461,6.113,3.707,9.171a153.521,153.521,0,0,0,10.694,21.317,192.061,192.061,0,0,0,13.145,19.057c9.452,12.175,20.1,23.461,31.38,35.411l.012.013c1.272,1.347,2.632,2.79,3.968,4.208Zm1156-78.333a5.149,5.149,0,0,1-.8-.067c-8.405-11.379-17.234-24.48-26.992-40.051-8.7-13.882-17.331-28.426-25.679-42.49l-.015-.025c-13.82-23.285-28.108-47.359-43.248-69.379-8.154-11.858-15.887-22.178-23.644-31.549A281.51,281.51,0,0,0,1555.6,1897.4a154.671,154.671,0,0,1-11.158-11.08,31.776,31.776,0,0,1-4.016-5.5c-.955-1.782-1.233-3.2-.826-4.22,6.393,4.768,12.725,10,18.822,15.557,5.816,5.3,11.614,11.068,17.233,17.147a372.872,372.872,0,0,1,30.607,38.154c8.519,12.042,17.342,25.71,26.975,41.786,8.59,14.336,17.013,29.214,25.158,43.6l.009.016c14.043,24.805,28.564,50.455,44.4,74.13.694.037,1,.385.988.715C1703.776,2108.184,1703.157,2108.667,1702,2108.667ZM462.8,1999.8v0c-.09-1.486-1.705-2.788-3.267-4.046-1.518-1.224-2.949-2.377-2.909-3.613A2.639,2.639,0,0,1,458,1990.2c.087,1.485,1.7,2.786,3.265,4.043,1.517,1.221,2.95,2.375,2.911,3.613a2.642,2.642,0,0,1-1.374,1.942Zm697.591-11.2c-16.8-13.227-33.512-27.6-51.1-43.94-15.692-14.58-31.733-30.413-49.038-48.4-32.184-33.454-64.176-69.712-95.115-104.776l-.234-.265c-11.409-12.93-23.207-26.3-34.91-39.413-2.588-2.9-5.182-5.85-7.928-8.974l-.261-.3c-9.88-11.241-20.1-22.866-31.585-34.031H895.7c15.764,14.962,32.322,32,50.621,52.1,16.338,17.94,32.5,36.571,48.127,54.589l.018.021c21.564,24.86,43.862,50.566,66.884,74.759,12.394,13.026,24,24.587,35.5,35.345,12.9,12.075,25.312,22.834,37.951,32.891.1,0,.2,0,.288,0,1.257,0,1.908-.142,2.11-.46.187-.3-.013-.722-.267-1.263a5.844,5.844,0,0,1-.531-1.479c-8.4-10.97-16.926-23.351-26.064-37.849-8.148-12.927-16.013-26.3-23.619-39.225l-.021-.036c-9.266-15.75-18.848-32.035-28.984-47.59-5.459-8.377-10.641-15.885-15.844-22.955-5.837-7.93-11.551-15.108-17.467-21.945-6.831-7.9-13.862-15.428-20.9-22.389-7.18-7.105-14.646-13.892-22.188-20.172-7.659-6.377-15.685-12.472-23.856-18.116-8.258-5.7-16.973-11.163-25.9-16.224h14.833c27.8,16.088,52.459,36.248,75.392,61.634,19.49,21.574,38.117,47.27,58.62,80.867,30.052,49.224,56.22,94.232,80,137.6Zm230.4-1.6c-5.607-5.125-11.148-10.265-16.507-15.234-26.789-24.846-52.093-48.314-82.687-67.96-12.408-7.969-25.309-15.786-37.785-23.345l-.03-.018c-12.57-7.616-25.568-15.491-38.038-23.508-13.98-8.989-25.8-17.212-36.147-25.138a297.041,297.041,0,0,1-23.2-19.788c-6.871-6.472-13.68-13.431-20.814-21.275-13.288-14.608-25.368-29.7-38.156-45.67-2.417-3.02-4.917-6.141-7.425-9.259-6.463-8.034-13-16.964-19.974-27.3h6.368c8.765,12.925,16.181,23.488,23.34,33.244,8.594,11.708,16.671,22.04,24.695,31.584,18.7,22.252,37.274,40.331,56.771,55.273,10.3,7.892,22.045,15.97,35.9,24.694,12.385,7.8,25.283,15.39,37.756,22.73,24.666,14.516,50.171,29.527,73.5,47.13a310.747,310.747,0,0,1,33.359,28.827c5.357,5.377,10.461,10.965,15.17,16.61,4.942,5.924,9.621,12.116,13.908,18.4Zm-964.8-22.4c-7.222-6.7-16.579-13.309-28.6-20.2-10.571-6.061-21.655-11.488-32.374-16.736l-.022-.011c-2.135-1.045-4.217-2.065-6.2-3.043-1.925-.949-4.066-1.82-6.136-2.662-6.113-2.485-12.435-5.055-14.664-10.139,8.461,4.611,17.7,8.825,27.489,13.285,23.99,10.936,48.8,22.243,60.516,39.508Zm494.4-51.2c-10.069-8.792-19.67-18.13-28.955-27.161l-.015-.015c-11.655-11.337-23.707-23.06-36.624-33.619-18.68-15.277-36.256-28.647-53.732-40.874-19.274-13.485-38.021-25.306-57.313-36.139-10.076-5.658-20.389-11.08-30.654-16.116-10.578-5.19-21.457-10.141-32.335-14.718-11.17-4.7-22.7-9.156-34.278-13.248-11.859-4.191-24.133-8.13-36.484-11.706-14.159-4.1-29.239-7.8-46.1-11.3h46.959c47.741,13.587,94.046,34.269,141.56,63.228,19.292,11.758,38.979,24.981,60.187,40.425,20.228,14.73,39.149,29.521,54.991,42.047-8.332-9.93-16.607-19.917-24.609-29.575l-.01-.011c-16.441-19.842-33.442-40.36-50.5-59.831-9.174-10.474-17.675-19.869-25.987-28.721-9.315-9.921-18.18-18.937-27.1-27.561h17.75c5.841,7.155,11.453,14.761,16.88,22.117l.017.023c4.409,5.975,8.968,12.153,13.559,17.96,15.538,19.654,32.175,38.9,48.263,57.509l.012.014c14.4,16.661,29.3,33.889,43.555,51.571,7.677,9.52,14.543,18.386,20.993,27.106,7.245,9.8,13.777,19.149,19.969,28.594Zm-608.01-8a282.4,282.4,0,0,1-30.037-13.94,251.146,251.146,0,0,1-27.1-16.9,233.561,233.561,0,0,1-24.123-19.88A229.2,229.2,0,0,1,210,1831.791V1830.2c4.8,3.831,8.821,8.655,12.707,13.319l.009.011a112.917,112.917,0,0,0,9.685,10.67,226.547,226.547,0,0,0,34.588,25.8c12.135,7.543,24.615,14.234,36.685,20.7l.107.058c2.835,1.52,5.767,3.092,8.6,4.628ZM779.6,1871.853h-3.2c-11.385-7.529-22.477-16.013-33.2-24.218-14.358-10.982-29.2-22.337-45.2-31.782-17.95-10.6-36.972-18.474-57.111-26.81-10.022-4.148-20.385-8.436-30.889-13.19a111.772,111.772,0,0,1,24.77,3.223,141.859,141.859,0,0,1,22.839,7.786c14.664,6.336,28.237,14.558,41.363,22.51,1.756,1.064,3.621,2.194,5.428,3.281,2.009,1.208,4.032,2.418,6.279,3.76,12.764,7.627,25.962,15.514,37.971,24.473a163.591,163.591,0,0,1,16.936,14.352,108.162,108.162,0,0,1,14.013,16.613Zm-107.21-12.863a166.59,166.59,0,0,0-16.806-15.978,184.938,184.938,0,0,0-19.039-13.763,215.387,215.387,0,0,0-21.111-11.687c-7.233-3.5-14.983-6.786-23.034-9.761a156.478,156.478,0,0,1,47.025,20.568,139.406,139.406,0,0,1,18.772,14.579,103.29,103.29,0,0,1,14.194,16.042ZM2130,1854.19h0c-10.4-6.5-21.2-12.654-32.094-18.3-11.12-5.763-22.673-11.166-34.34-16.058-11.893-4.987-24.248-9.589-36.722-13.676-12.705-4.163-25.908-7.917-39.242-11.156a297.843,297.843,0,0,1,40.715,7.284,319.471,319.471,0,0,1,36.443,11.557c10.609,4.051,21.555,8.806,33.464,14.537,11.317,5.446,22.415,11.257,31.778,16.222v9.591Zm-754.735-6.787a2.283,2.283,0,0,1-.465-.055c-2.387-2.708-4.877-5.548-7.074-8.055l-.032-.037c-7.667-8.747-15.595-17.792-23.65-26.4-9.049-9.668-17.306-17.75-25.244-24.709-9.414-8.26-19.6-15.213-30.39-22.574-10.723-7.317-21.811-14.883-32.01-23.826-10.59-9.288-21.7-20.164-33.956-33.249h7.957c10.124,9.964,20.486,19.535,30.8,28.449,11.256,9.727,23.408,18.058,35.16,26.115l.012.008c10.517,7.209,21.391,14.665,31.452,23.021a177.165,177.165,0,0,1,14.56,13.447,142.318,142.318,0,0,1,13.216,15.808,2.25,2.25,0,0,0,.466.055c.908,0,1.051-.75,1.134-1.655-5.888-21.1-10.923-38.249-15.845-53.955-5.938-18.943-11.7-35.721-17.607-51.294h9.4c6.013,15.948,12.15,33.724,18.763,54.346,5.913,18.437,11.684,37.495,17.264,55.925,2.234,7.377,4.765,15.739,7.225,23.778v3.191C1376.316,1846.65,1376.173,1847.4,1375.265,1847.4Zm468.14-53.814c-13.9,0-27.717-.049-41.084-.1h-.043c-13.333-.047-25.927-.092-38.679-.092a300.67,300.67,0,0,1-43.522-3.2,332.114,332.114,0,0,1-40.131-8.53c-12.038-3.329-24.175-7.341-37.1-12.266-10.585-4.032-21.851-8.744-34.442-14.407-16.153-7.264-32.3-14.891-47.989-22.67-15.423-7.647-30.857-15.665-45.873-23.83h11.539c22,12.071,42.65,22.571,63.123,32.1,10.209,4.749,22.367,10.333,35.137,15.743,13.276,5.625,25.32,10.258,36.819,14.163,28.187,9.571,53.846,14.967,78.443,16.495,10.441.649,22.285.964,36.211.964,16.09,0,33.269-.423,49.882-.832h.015l.428-.01h.05c16.809-.414,34.19-.841,51.023-.841,15.541,0,28.812.37,40.57,1.133A285.365,285.365,0,0,1,1954,1791.8C1913.014,1793.386,1873.367,1793.589,1843.405,1793.589ZM597.2,1768.918c-25.505-5.241-51.749-10.24-77.129-15.073-33.78-6.434-68.711-13.086-102.322-20.393-18.085-3.931-34.354-7.732-49.737-11.621-17.262-4.363-32.973-8.724-48.028-13.331h28c10.891,3.054,22.1,6.1,32.931,9.056l.056.015.181.05c11.561,3.148,23.515,6.4,35.255,9.707a348.833,348.833,0,0,0,35.146,7.732c11.9,2.055,24.122,3.744,35.942,5.376,18.816,2.6,38.274,5.286,56.759,9.506a250.331,250.331,0,0,1,27.176,7.711,176.712,176.712,0,0,1,25.771,11.262ZM2130,1743.287h0c-12.627-2.194-25.739-4.088-40.084-5.787-12.775-1.514-26.25-2.839-41.194-4.051-27.748-2.25-56.426-3.751-84.16-5.2-40.75-2.133-82.888-4.339-122.561-8.959-25.044-2.915-49.819-6.544-73.639-10.787H1821.3c15.73,2.112,31.92,4.073,49.5,6,15.59,1.7,32.805,3.071,52.631,4.179,17.726.99,35.946,1.692,53.567,2.371h.025c24.873.959,50.592,1.95,76.12,3.777,13.764.985,26.319,2.125,38.381,3.484,13.565,1.528,26.151,3.291,38.477,5.388v9.591Zm-1755.227-3.244c-17.941-4.132-35.264-8.826-51.487-13.95-16.76-5.294-32.867-11.214-47.875-17.593h7.841c26.857,10.6,56.793,20.915,91.521,31.541Zm364.823-.177a473.015,473.015,0,0,0-57.31-31.366H696c.675.324,1.351.651,2.008.971l-.628-.53-.524-.441h9.737c9.842,8.959,20.33,18.925,33.007,31.364Z" transform="translate(-209.5 -1708)" fill="#fefefe" stroke="rgba(0,0,0,0)" stroke-miterlimit="10" stroke-width="1"/>
</svg>
