<svg xmlns="http://www.w3.org/2000/svg" width="38.409" height="38.403" viewBox="0 0 38.409 38.403">
  <path id="Path_716" data-name="Path 716" d="M3718.907,4048.326a9.333,9.333,0,0,0-7.378-5.993,11.109,11.109,0,0,0-1.94-.145q-9.281-.013-18.561,0a9.5,9.5,0,0,0-8.065,4.071,9.257,9.257,0,0,0-1.777,5.582q-.01,9.543,0,19.084a9.572,9.572,0,0,0,6.693,9.2,20.008,20.008,0,0,0,2.153.465h20.7a18.873,18.873,0,0,0,2.742-.693,9.388,9.388,0,0,0,5.966-7.353c.049-.267.094-.535.143-.8v-20.7A19.579,19.579,0,0,0,3718.907,4048.326Zm-18.546,21.059a8,8,0,1,1,8.027-8A8.027,8.027,0,0,1,3700.361,4069.385Zm10.423-16.012a2.394,2.394,0,0,1,0-4.788,2.394,2.394,0,1,1,0,4.788Z" transform="translate(-3681.179 -4042.181)" fill="#fff"/>
</svg>
