<svg id="Group_528" data-name="Group 528" xmlns="http://www.w3.org/2000/svg" width="68.857" height="43.699" viewBox="0 0 68.857 43.699">
  <g id="Group_527" data-name="Group 527">
    <g id="Group_525" data-name="Group 525" transform="translate(0 25.309)">
      <path id="Path_688" data-name="Path 688" d="M880.1,312h-2.743v-8.079h-7.818V312H866.81v-18.39h2.729v8.079h7.818v-8.079H880.1Z" transform="translate(-866.81 -293.607)" fill="#414042"/>
      <path id="Path_689" data-name="Path 689" d="M896.825,312H894.2v-18.39h2.63Z" transform="translate(-862.283 -293.607)" fill="#ce922a"/>
      <path id="Path_690" data-name="Path 690" d="M907.582,307.4l3.979-13.791h2.63L908.8,312h-2.417l-5.409-18.39h2.629Z" transform="translate(-861.162 -293.607)" fill="#414042"/>
      <path id="Path_691" data-name="Path 691" d="M924.808,303.918h-5.289v5.848h7.887V312H916.79v-18.39h10.616v2.232h-7.887v5.848h5.289Z" transform="translate(-858.549 -293.607)" fill="#414042"/>
      <path id="Path_692" data-name="Path 692" d="M887.706,312h-2.629v-18.39h2.629Z" transform="translate(-863.791 -293.607)" fill="#414042"/>
    </g>
    <g id="Group_526" data-name="Group 526" transform="translate(26.752)">
      <path id="Path_693" data-name="Path 693" d="M899.473,273.022a2.768,2.768,0,0,1,.453-.319l.021-.014h0c.77-.428,1.9-1.045,2.821-.7s1.419,1.581,1.714,2.411h0c.006.017.066.219.087.3,1.276,4.611-.073,11.572-.073,11.572h0a6.878,6.878,0,0,1-.387,1.565c-1.33,3.524-8.779,5.7-12.3,4.368s-1.8-6.851.084-10.113C893.911,278.6,895.815,275.715,899.473,273.022Z" transform="translate(-889.767 -271.888)" fill="#fdbc4d"/>
      <path id="Path_694" data-name="Path 694" d="M894.08,279.819s2.812-4.44,5.575-6.474A2.159,2.159,0,0,1,900,273.1l.015-.01h0c.58-.324,1.454-.854,2.148-.592s1.054,1.257,1.277,1.884h0c0,.013.05.164.065.23.964,3.483-.056,8.74-.056,8.74h0a5.2,5.2,0,0,1-.292,1.182c-1,2.662-7.294,4.377-9.955,3.372S893.274,281.044,894.08,279.819Z" transform="translate(-889.387 -271.798)" fill="#ce922a"/>
      <path id="Path_695" data-name="Path 695" d="M896.026,278.223h0a19.655,19.655,0,0,1,3.755-4.361,1.438,1.438,0,0,1,.231-.162l.011-.007h0c.391-.218,1-.647,1.467-.47s.69.918.84,1.34h0c0,.008.034.111.044.154a15.993,15.993,0,0,1-.037,5.886h0a3.521,3.521,0,0,1-.2.8c-.676,1.792-5.656,3.031-7.449,2.355S895.875,278.446,896.026,278.223Z" transform="translate(-889.048 -271.674)" fill="#ab8741"/>
    </g>
  </g>
</svg>
