<svg id="Group_524" data-name="Group 524" xmlns="http://www.w3.org/2000/svg" width="73.733" height="43.699" viewBox="0 0 73.733 43.699">
  <g id="Group_521" data-name="Group 521" transform="translate(0 36.879)">
    <path id="Path_667" data-name="Path 667" d="M738.541,307.881l-2.641-4.315h-.628v6.723h.849v-4.774l2.421,3.969,2.411-3.966v4.771h.849v-6.723h-.62Z" transform="translate(-735.272 -303.53)" fill="#26aaa7"/>
    <path id="Path_668" data-name="Path 668" d="M745.373,303.566l-3.032,6.723h.928l.791-1.793h3.2l.8,1.793h.917l-3.023-6.723Zm-.959,4.124,1.243-2.821,1.259,2.821Z" transform="translate(-734.104 -303.53)" fill="#26aaa7"/>
    <rect id="Rectangle_39" data-name="Rectangle 39" width="0.849" height="6.723" transform="translate(16.594 0.036)" fill="#26aaa7"/>
    <path id="Path_669" data-name="Path 669" d="M754.739,303.566l-3.033,6.723h.928l.791-1.793h3.2l.8,1.793h.917l-3.023-6.723Zm-.96,4.124,1.244-2.821,1.257,2.821Z" transform="translate(-732.556 -303.53)" fill="#26aaa7"/>
    <path id="Path_670" data-name="Path 670" d="M767.493,305.806a2.143,2.143,0,0,0-2.416-2.24h-2.645v6.723h.85v-2.137h1.567c.141,0,.289,0,.43-.015l1.582,2.152h1.058l-1.754-2.357A2.106,2.106,0,0,0,767.493,305.806Zm-4.211-1.409h1.778c1.295,0,1.567.771,1.567,1.418,0,1-.6,1.514-1.788,1.514h-1.558Z" transform="translate(-730.783 -303.53)" fill="#26aaa7"/>
    <path id="Path_671" data-name="Path 671" d="M769.462,307.431h3.209v-.823h-3.209V304.4h3.755v-.831h-4.6v6.723H773.4v-.831h-3.939Z" transform="translate(-729.761 -303.53)" fill="#26aaa7"/>
    <path id="Path_672" data-name="Path 672" d="M777,306.516c-1.215-.3-1.833-.556-1.833-1.127,0-.621.591-1.022,1.506-1.022a4.507,4.507,0,0,1,1.88.415l.232.128.4-.745-.228-.124a5.343,5.343,0,0,0-2.279-.507c-1.414,0-2.363.748-2.363,1.862,0,1.339,1.437,1.689,2.486,1.943,1.128.28,1.7.528,1.7,1.109,0,.673-.6,1.074-1.612,1.074a3.776,3.776,0,0,1-2.109-.5l-.237-.117-.359.742.232.115a4.455,4.455,0,0,0,2.473.591c1.5,0,2.469-.752,2.469-1.916C779.349,307.1,777.933,306.75,777,306.516Z" transform="translate(-728.842 -303.535)" fill="#26aaa7"/>
    <path id="Path_673" data-name="Path 673" d="M783.691,303.543a3.394,3.394,0,1,0,3.515,3.392A3.464,3.464,0,0,0,783.691,303.543Zm0,5.936a2.55,2.55,0,1,1,2.658-2.544A2.611,2.611,0,0,1,783.691,309.479Z" transform="translate(-727.851 -303.534)" fill="#26aaa7"/>
    <path id="Path_674" data-name="Path 674" d="M793.113,305.806a2.143,2.143,0,0,0-2.416-2.24h-2.645v6.723h.85v-2.137h1.567c.142,0,.288,0,.43-.015l1.584,2.152h1.057l-1.753-2.357A2.107,2.107,0,0,0,793.113,305.806ZM788.9,304.4h1.778c1.295,0,1.567.771,1.567,1.418,0,1-.6,1.514-1.788,1.514H788.9Z" transform="translate(-726.548 -303.53)" fill="#26aaa7"/>
    <path id="Path_675" data-name="Path 675" d="M793.946,303.566v.831H796.2v5.892h.849V304.4h2.26v-.831Z" transform="translate(-725.573 -303.53)" fill="#26aaa7"/>
  </g>
  <g id="Group_523" data-name="Group 523" transform="translate(21.508)">
    <g id="Group_522" data-name="Group 522" transform="translate(5.841 5.663)">
      <path id="Path_676" data-name="Path 676" d="M768.973,277.558a2.108,2.108,0,0,1-.36,2.959,2.08,2.08,0,0,1-1,.427c-.076,0-.155.013-.231.02l-.021,0A3.63,3.63,0,0,0,764.484,286l0,.009a.522.522,0,0,1-.169.587.528.528,0,0,1-.663-.014l0,0c-.023-.021-.045-.045-.069-.071l-.009-.012c-.077-.085-.15-.176-.223-.267a5.9,5.9,0,0,1,3.384-9.405l.024-.006c.129-.029.258-.05.385-.068a.048.048,0,0,1,.019,0A2.106,2.106,0,0,1,768.973,277.558Z" transform="translate(-758.187 -276.747)" fill="#ecbd6a"/>
      <path id="Path_677" data-name="Path 677" d="M775.991,286.979a2.109,2.109,0,0,1-3.386-1.36c0-.076-.012-.155-.02-.231l0-.021a3.63,3.63,0,0,0-5.038-2.877l-.01,0a.521.521,0,0,1-.586-.169.528.528,0,0,1,.014-.663l0,0c.022-.023.047-.045.071-.069l.013-.009c.085-.077.175-.15.267-.223a5.9,5.9,0,0,1,9.4,3.384l.007.025c.028.129.05.257.068.385a.05.05,0,0,1,0,.019A2.109,2.109,0,0,1,775.991,286.979Z" transform="translate(-757.403 -276.193)" fill="#ecbd6a"/>
      <path id="Path_678" data-name="Path 678" d="M766.219,293.892a2.136,2.136,0,0,1,.3-3,2,2,0,0,1,1-.413c.076,0,.155-.009.232-.015l.021,0a3.44,3.44,0,0,0,1.778-.717,3.622,3.622,0,0,0,1.009-4.348l0-.01a.52.52,0,0,1,.157-.593.528.528,0,0,1,.668.029l0,0a.878.878,0,0,1,.071.075l.01.013c.078.087.155.181.23.276a5.983,5.983,0,0,1-.834,8.412,5.59,5.59,0,0,1-2.367,1.086l-.024.006c-.129.027-.259.045-.387.061a.049.049,0,0,1-.019,0A2.214,2.214,0,0,1,766.219,293.892Z" transform="translate(-757.585 -275.435)" fill="#ecbd6a"/>
      <path id="Path_679" data-name="Path 679" d="M759.552,284.2a2.107,2.107,0,0,1,2.959.36,2.075,2.075,0,0,1,.426,1c0,.077.013.155.02.232l0,.021A3.63,3.63,0,0,0,768,288.69l.009,0a.523.523,0,0,1,.573.833l0,0c-.021.023-.045.047-.071.07l-.012.009c-.085.076-.176.15-.267.221a5.9,5.9,0,0,1-9.405-3.383l-.006-.024c-.029-.129-.05-.258-.068-.386a.047.047,0,0,1,0-.019A2.106,2.106,0,0,1,759.552,284.2Z" transform="translate(-758.741 -275.589)" fill="#ecbd6a"/>
    </g>
    <path id="Path_680" data-name="Path 680" d="M780.1,281.054a2.108,2.108,0,0,1-2.89.728,2.063,2.063,0,0,1-.757-.778c-.032-.07-.068-.14-.1-.209l-.011-.019a3.629,3.629,0,0,0-5.736-.871l-.007.007a.522.522,0,0,1-.608.054.527.527,0,0,1-.226-.623l0,0c.012-.029.027-.059.042-.09l.008-.014c.051-.1.11-.2.169-.3a5.9,5.9,0,0,1,9.992-.228l.014.021c.073.11.14.221.2.334l.008.016A2.111,2.111,0,0,1,780.1,281.054Z" transform="translate(-751.083 -271.199)" fill="#ecbd6a"/>
    <path id="Path_681" data-name="Path 681" d="M772.826,297.869a2.109,2.109,0,0,1-.444-3.622c.064-.04.129-.085.192-.128l.017-.013a3.63,3.63,0,0,0,.086-5.8l-.009-.007a.523.523,0,0,1,.453-.9l0,0a.873.873,0,0,1,.094.029l.014.006c.108.037.217.08.324.126a5.9,5.9,0,0,1,3.118,7.743,5.842,5.842,0,0,1-1.539,2.126l-.019.017c-.1.087-.2.168-.3.245a.035.035,0,0,1-.015.01A2.108,2.108,0,0,1,772.826,297.869Z" transform="translate(-750.784 -269.326)" fill="#ecbd6a"/>
    <path id="Path_682" data-name="Path 682" d="M756.016,291.609a2.107,2.107,0,0,1,3.594-.626c.043.063.092.125.139.186l.013.015a3.63,3.63,0,0,0,5.8-.205l.006-.008a.523.523,0,0,1,.588-.165.529.529,0,0,1,.337.571l0,.006c-.006.03-.014.063-.023.1l-.006.014c-.031.111-.07.22-.109.33a5.9,5.9,0,0,1-9.778,2.073l-.018-.017c-.092-.094-.178-.192-.26-.291l-.012-.015A2.107,2.107,0,0,1,756.016,291.609Z" transform="translate(-753.373 -268.856)" fill="#ecbd6a"/>
    <path id="Path_683" data-name="Path 683" d="M761.292,274.081a2.108,2.108,0,0,1,.565,3.6c-.064.042-.127.09-.189.135l-.016.013a3.63,3.63,0,0,0,.107,5.8l.008.006a.523.523,0,0,1-.422.918h0c-.031-.007-.063-.016-.1-.027l-.015-.006c-.108-.034-.219-.073-.327-.115a5.9,5.9,0,0,1-1.908-9.811l.019-.018c.1-.091.195-.175.3-.255l.015-.01A2.107,2.107,0,0,1,761.292,274.081Z" transform="translate(-753.167 -271.549)" fill="#ecbd6a"/>
    <path id="Path_684" data-name="Path 684" d="M777.741,292.037a2.108,2.108,0,0,1-1.749-2.413,2.083,2.083,0,0,1,.442-.992c.054-.055.1-.115.156-.172l.014-.016a3.631,3.631,0,0,0-1.319-5.649l-.01,0a.523.523,0,0,1,.22-.986h.006a.975.975,0,0,1,.1,0l.015,0c.114.01.229.027.345.045a5.9,5.9,0,0,1,3.919,9.193l-.014.022c-.076.108-.155.211-.237.311l-.013.014A2.106,2.106,0,0,1,777.741,292.037Z" transform="translate(-750.214 -270.249)" fill="#ecbd6a"/>
    <path id="Path_685" data-name="Path 685" d="M762.937,297.047a2.108,2.108,0,0,1,3.075-1.964c.064.042.133.08.2.119l.019.009a3.631,3.631,0,0,0,5.271-2.425s0,0,0-.01a.523.523,0,0,1,1.01.019v0c.006.031.01.065.014.1v.015c.013.113.021.23.026.346a5.9,5.9,0,0,1-8.222,5.682l-.023-.009c-.122-.051-.239-.108-.353-.169l-.015-.009A2.107,2.107,0,0,1,762.937,297.047Z" transform="translate(-752.207 -268.497)" fill="#ecbd6a"/>
    <path id="Path_686" data-name="Path 686" d="M756.253,280.883a2.108,2.108,0,0,1,1.839,3.151c-.044.062-.085.129-.127.195l-.009.017a3.63,3.63,0,0,0,2.212,5.364l.01,0a.523.523,0,0,1-.058,1.009h0c-.031,0-.065.007-.1.011H760c-.114.008-.231.01-.347.012A5.9,5.9,0,0,1,754.3,282.2l.01-.023c.057-.12.119-.234.183-.346l.01-.015A2.108,2.108,0,0,1,756.253,280.883Z" transform="translate(-753.729 -270.401)" fill="#ecbd6a"/>
    <path id="Path_687" data-name="Path 687" d="M773.348,274.874a2.107,2.107,0,0,1-2.327,1.862,2.077,2.077,0,0,1-1.013-.394c-.057-.05-.119-.1-.18-.147l-.016-.013a3.63,3.63,0,0,0-5.581,1.587l0,.01a.522.522,0,0,1-1-.174v0c0-.031,0-.065,0-.1v-.015c0-.114.015-.231.028-.347a5.9,5.9,0,0,1,9-4.354l.022.013c.113.07.219.144.323.221a.04.04,0,0,1,.014.012A2.108,2.108,0,0,1,773.348,274.874Z" transform="translate(-752.158 -271.888)" fill="#ecbd6a"/>
  </g>
</svg>
