<svg id="Group_166" data-name="Group 166" xmlns="http://www.w3.org/2000/svg" width="127.824" height="46.612" viewBox="0 0 127.824 46.612">
  <g id="Group_164" data-name="Group 164" transform="translate(47.359)">
    <path id="Path_415" data-name="Path 415" d="M640.346,290.018c.322-.428.636-.86.925-1.31h0L647.7,278.8a20.487,20.487,0,0,0-24.139-4.926,20.439,20.439,0,0,0,16.788,16.144Z" transform="translate(-623.556 -271.888)" fill="#faa85f"/>
  </g>
  <path id="Path_416" data-name="Path 416" d="M584.037,304.206h-1.122v-1.677h1.122v-.657a2.986,2.986,0,0,1,.719-2.186,2.7,2.7,0,0,1,1.994-.707,5.4,5.4,0,0,1,.919.069,6.112,6.112,0,0,1,.721.165v1.707a4.913,4.913,0,0,0-.578-.159,2.825,2.825,0,0,0-.611-.059c-.782,0-1.175.454-1.175,1.353v.489h2.345V304.2h-2.31v7.1h-2.025Z" transform="translate(-582.915 -267.411)" fill="#6d6e71"/>
  <path id="Path_417" data-name="Path 417" d="M592.314,311a2.957,2.957,0,0,1-2.326-.921,3.587,3.587,0,0,1-.821-2.48v-5.628h2.028v5.013a2.305,2.305,0,0,0,.492,1.593,1.785,1.785,0,0,0,1.4.551,1.915,1.915,0,0,0,1.44-.57,2.2,2.2,0,0,0,.551-1.6v-4.984h2.029v8.846h-2.029v-1.389a4.283,4.283,0,0,1-1.087,1.106A2.823,2.823,0,0,1,592.314,311Z" transform="translate(-581.882 -266.915)" fill="#6d6e71"/>
  <path id="Path_418" data-name="Path 418" d="M601.652,311a5.937,5.937,0,0,1-1.934-.334,6.273,6.273,0,0,1-1.82-.987l.91-1.374a6.216,6.216,0,0,0,1.479.812,4.069,4.069,0,0,0,1.422.277,1.73,1.73,0,0,0,1.013-.26.813.813,0,0,0,.36-.7v-.033a.64.64,0,0,0-.159-.435,1.305,1.305,0,0,0-.435-.319,4.758,4.758,0,0,0-.636-.252l-.746-.234c-.324-.091-.651-.2-.98-.32a3.488,3.488,0,0,1-.887-.478,2.327,2.327,0,0,1-.643-.729,2.1,2.1,0,0,1-.252-1.07v-.034a2.487,2.487,0,0,1,.91-1.979,3.005,3.005,0,0,1,1.006-.536,4.028,4.028,0,0,1,1.228-.183,5.629,5.629,0,0,1,1.692.267,6.143,6.143,0,0,1,1.558.739l-.811,1.443a6.91,6.91,0,0,0-1.289-.613,3.768,3.768,0,0,0-1.206-.227,1.514,1.514,0,0,0-.91.241.754.754,0,0,0-.326.628v.033a.584.584,0,0,0,.168.428,1.668,1.668,0,0,0,.443.32,4.86,4.86,0,0,0,.639.266c.239.085.488.167.745.244.324.1.648.219.972.352a4.032,4.032,0,0,1,.877.493,2.46,2.46,0,0,1,.647.714,1.94,1.94,0,0,1,.252,1.024v.033a2.768,2.768,0,0,1-.252,1.224,2.39,2.39,0,0,1-.7.863,3.059,3.059,0,0,1-1.045.517A4.565,4.565,0,0,1,601.652,311Z" transform="translate(-580.439 -266.937)" fill="#6d6e71"/>
  <path id="Path_419" data-name="Path 419" d="M606.107,299.151h2.177v1.926h-2.177Zm.083,3.284h2.025v8.846H606.19Z" transform="translate(-579.081 -267.381)" fill="#6d6e71"/>
  <path id="Path_420" data-name="Path 420" d="M614.823,311.041a4.817,4.817,0,0,1-1.867-.359,4.693,4.693,0,0,1-1.49-.981,4.515,4.515,0,0,1-1.328-3.234v-.035a4.455,4.455,0,0,1,.359-1.79,4.566,4.566,0,0,1,.988-1.465,4.652,4.652,0,0,1,1.49-1,4.74,4.74,0,0,1,1.882-.367,4.82,4.82,0,0,1,1.885.359,4.535,4.535,0,0,1,2.821,4.23v.033a4.435,4.435,0,0,1-.361,1.777,4.588,4.588,0,0,1-2.486,2.461A4.774,4.774,0,0,1,614.823,311.041Zm.034-1.775a2.69,2.69,0,0,0,1.116-.227,2.643,2.643,0,0,0,.844-.6,2.576,2.576,0,0,0,.535-.887,3.141,3.141,0,0,0,.185-1.081v-.035a3.028,3.028,0,0,0-.2-1.1,2.777,2.777,0,0,0-.563-.91,2.668,2.668,0,0,0-.852-.612,2.782,2.782,0,0,0-2.194,0,2.64,2.64,0,0,0-.846.6,2.531,2.531,0,0,0-.535.895,3.216,3.216,0,0,0-.183,1.09v.033a2.924,2.924,0,0,0,.2,1.1,2.757,2.757,0,0,0,.559.9,2.669,2.669,0,0,0,.854.613,2.581,2.581,0,0,0,1.073.231Z" transform="translate(-578.415 -266.941)" fill="#6d6e71"/>
  <path id="Path_421" data-name="Path 421" d="M620.348,302h2.025v1.358a6.8,6.8,0,0,1,.478-.589,2.764,2.764,0,0,1,.6-.493,3.357,3.357,0,0,1,.754-.341,3.194,3.194,0,0,1,.927-.122,2.956,2.956,0,0,1,2.328.921,3.568,3.568,0,0,1,.819,2.461v5.656h-2.025v-5.031a2.345,2.345,0,0,0-.494-1.6,1.76,1.76,0,0,0-1.4-.563,1.9,1.9,0,0,0-1.441.578,2.247,2.247,0,0,0-.552,1.616v5h-2.025Z" transform="translate(-576.727 -266.943)" fill="#6d6e71"/>
  <path id="Path_422" data-name="Path 422" d="M633.889,311.041a4.819,4.819,0,0,1-1.868-.359,4.663,4.663,0,0,1-1.49-.981,4.428,4.428,0,0,1-.98-1.459,4.547,4.547,0,0,1-.352-1.775v-.035a4.5,4.5,0,0,1,.36-1.79,4.586,4.586,0,0,1,.989-1.465,4.676,4.676,0,0,1,1.488-1,4.737,4.737,0,0,1,1.885-.367,4.815,4.815,0,0,1,1.885.359,4.521,4.521,0,0,1,2.468,2.447,4.457,4.457,0,0,1,.351,1.783v.033a4.418,4.418,0,0,1-.359,1.777,4.585,4.585,0,0,1-2.488,2.461A4.786,4.786,0,0,1,633.889,311.041Zm.033-1.775a2.615,2.615,0,0,0,1.96-.83,2.577,2.577,0,0,0,.535-.887,3.137,3.137,0,0,0,.183-1.081v-.035a3.046,3.046,0,0,0-.2-1.1,2.773,2.773,0,0,0-.562-.91,2.728,2.728,0,0,0-.854-.612,2.782,2.782,0,0,0-2.194,0,2.641,2.641,0,0,0-.844.6,2.5,2.5,0,0,0-.535.895,3.24,3.24,0,0,0-.185,1.09v.033a2.973,2.973,0,0,0,.2,1.1,2.817,2.817,0,0,0,.563.9,2.66,2.66,0,0,0,.852.613,2.609,2.609,0,0,0,1.079.23Z" transform="translate(-575.265 -266.941)" fill="#faa85f"/>
  <path id="Path_423" data-name="Path 423" d="M639.415,301.994h2.029v1.994a3.869,3.869,0,0,1,1.189-1.609,2.843,2.843,0,0,1,1.943-.552v2.144h-.114a3.259,3.259,0,0,0-1.22.219,2.485,2.485,0,0,0-.954.654,2.935,2.935,0,0,0-.621,1.1,4.884,4.884,0,0,0-.216,1.534v3.368h-2.029Z" transform="translate(-573.576 -266.941)" fill="#faa85f"/>
  <path id="Path_424" data-name="Path 424" d="M645.738,299.151h2.178v1.926h-2.177Zm.083,3.284h2.029v8.846h-2.029Z" transform="translate(-572.531 -267.381)" fill="#faa85f"/>
  <path id="Path_425" data-name="Path 425" d="M654.179,313.553a7.4,7.4,0,0,1-3.953-1.066l.755-1.531a7.139,7.139,0,0,0,1.479.689,5.347,5.347,0,0,0,1.665.252,2.912,2.912,0,0,0,2.075-.683,2.654,2.654,0,0,0,.719-2.018v-.683a4.722,4.722,0,0,1-1.289,1.172,3.421,3.421,0,0,1-1.82.454,4.094,4.094,0,0,1-1.508-.284,4.025,4.025,0,0,1-1.278-.812,3.877,3.877,0,0,1-.9-1.3,4.336,4.336,0,0,1-.334-1.742v-.035a4.4,4.4,0,0,1,.334-1.75,3.875,3.875,0,0,1,.9-1.307,3.923,3.923,0,0,1,1.289-.812,4.042,4.042,0,0,1,1.5-.284,3.493,3.493,0,0,1,1.85.443,5.043,5.043,0,0,1,1.252,1.064V302h2.025v7.03a4.522,4.522,0,0,1-1.123,3.334,3.673,3.673,0,0,1-1.516.9A6.94,6.94,0,0,1,654.179,313.553Zm.159-5.141a2.923,2.923,0,0,0,1-.176,2.483,2.483,0,0,0,.83-.5,2.348,2.348,0,0,0,.774-1.758v-.028a2.35,2.35,0,0,0-.774-1.758,2.5,2.5,0,0,0-.83-.494,2.844,2.844,0,0,0-1-.177,2.69,2.69,0,0,0-.992.177,2.479,2.479,0,0,0-.8.494,2.23,2.23,0,0,0-.538.763,2.49,2.49,0,0,0-.193,1v.035a2.439,2.439,0,0,0,.2.988,2.41,2.41,0,0,0,.538.769,2.365,2.365,0,0,0,.8.5,2.812,2.812,0,0,0,.985.171Z" transform="translate(-571.861 -266.942)" fill="#faa85f"/>
  <path id="Path_426" data-name="Path 426" d="M660.212,299.151h2.179v1.926h-2.179Zm.086,3.284h2.025v8.846H660.3Z" transform="translate(-570.138 -267.381)" fill="#faa85f"/>
  <path id="Path_427" data-name="Path 427" d="M664.648,302h2.025v1.358a6.819,6.819,0,0,1,.478-.589,2.76,2.76,0,0,1,.6-.493,3.354,3.354,0,0,1,.754-.341,3.208,3.208,0,0,1,.93-.122,2.959,2.959,0,0,1,2.327.921,3.564,3.564,0,0,1,.819,2.461v5.656H670.56v-5.031a2.347,2.347,0,0,0-.493-1.6,1.767,1.767,0,0,0-1.4-.563,1.9,1.9,0,0,0-1.44.578,2.254,2.254,0,0,0-.554,1.616v5h-2.025Z" transform="translate(-569.405 -266.943)" fill="#faa85f"/>
  <path id="Path_428" data-name="Path 428" d="M676.546,311.015a4.008,4.008,0,0,1-1.191-.177,2.9,2.9,0,0,1-1-.517,2.6,2.6,0,0,1-.683-.854,2.566,2.566,0,0,1-.259-1.183v-.028a2.78,2.78,0,0,1,.267-1.252,2.434,2.434,0,0,1,.746-.888,3.392,3.392,0,0,1,1.154-.528,5.863,5.863,0,0,1,1.48-.176,7.345,7.345,0,0,1,1.307.1,8.247,8.247,0,0,1,1.07.268v-.218a1.8,1.8,0,0,0-.56-1.44,2.421,2.421,0,0,0-1.634-.485,5.4,5.4,0,0,0-1.339.151,8.762,8.762,0,0,0-1.19.4l-.536-1.593a8.778,8.778,0,0,1,1.508-.528,7.6,7.6,0,0,1,1.82-.193,3.912,3.912,0,0,1,2.931.988,3,3,0,0,1,.719,1.173,4.774,4.774,0,0,1,.237,1.557v5.245h-1.973v-1.106a3.914,3.914,0,0,1-1.156.91A3.627,3.627,0,0,1,676.546,311.015Zm.57-1.474a3.191,3.191,0,0,0,.937-.133,2.218,2.218,0,0,0,.747-.387,1.881,1.881,0,0,0,.492-.6,1.627,1.627,0,0,0,.186-.769v-.6a5.439,5.439,0,0,0-.9-.252,5.747,5.747,0,0,0-1.113-.1,2.633,2.633,0,0,0-1.532.385,1.263,1.263,0,0,0-.543,1.09v.035a1.14,1.14,0,0,0,.493.988,2.079,2.079,0,0,0,1.231.35Z" transform="translate(-567.955 -266.933)" fill="#faa85f"/>
  <path id="Path_429" data-name="Path 429" d="M682.811,299.064h2.025v12.23h-2.025Z" transform="translate(-566.403 -267.396)" fill="#faa85f"/>
  <path id="Path_430" data-name="Path 430" d="M690.316,311a5.937,5.937,0,0,1-1.934-.334,6.188,6.188,0,0,1-1.82-.987l.91-1.374a6.17,6.17,0,0,0,1.472.812,4.072,4.072,0,0,0,1.423.277,1.741,1.741,0,0,0,1.015-.26.822.822,0,0,0,.359-.7v-.033a.635.635,0,0,0-.159-.435,1.3,1.3,0,0,0-.437-.319,4.746,4.746,0,0,0-.635-.252q-.358-.117-.745-.234c-.324-.091-.65-.2-.98-.32a3.489,3.489,0,0,1-.887-.478,2.325,2.325,0,0,1-.647-.729,2.124,2.124,0,0,1-.252-1.07v-.034a2.507,2.507,0,0,1,.912-1.982,3.036,3.036,0,0,1,1.006-.535,4.044,4.044,0,0,1,1.231-.184,5.63,5.63,0,0,1,1.692.267,6.112,6.112,0,0,1,1.556.739l-.8,1.441a6.839,6.839,0,0,0-1.289-.614,3.773,3.773,0,0,0-1.206-.227,1.5,1.5,0,0,0-.91.241.749.749,0,0,0-.326.628v.033a.593.593,0,0,0,.166.428,1.7,1.7,0,0,0,.445.32,4.813,4.813,0,0,0,.636.266c.241.086.491.167.746.244.325.1.647.219.971.352a4.054,4.054,0,0,1,.88.493,2.45,2.45,0,0,1,.644.714,1.938,1.938,0,0,1,.251,1.024v.033a2.774,2.774,0,0,1-.251,1.225,2.357,2.357,0,0,1-.694.862,3.115,3.115,0,0,1-1.045.517A4.54,4.54,0,0,1,690.316,311Z" transform="translate(-565.783 -266.938)" fill="#faa85f"/>
  <path id="Path_431" data-name="Path 431" d="M655.375,278.776l.056-.083c.052-.082.114-.164.166-.241l.026-.038c.139-.186.281-.369.435-.542l.01-.013c.072-.08.146-.164.22-.241l.035-.035c.069-.071.136-.141.206-.209l.045-.043c.071-.065.138-.129.209-.191l.05-.043c.07-.063.143-.124.216-.182l.048-.04c.076-.059.152-.113.228-.172a7.816,7.816,0,0,1,1.593-.91h0l-4.1-1.881h0c-.148-.069-.3-.132-.456-.186a4.82,4.82,0,0,0-1.584-.265,3.107,3.107,0,0,0-.315.011H652.4a4.857,4.857,0,0,0-.58.08h0a4.793,4.793,0,0,0-.553.146h0l-.077.028h0a4.734,4.734,0,0,0-.812.372l-.023.013h0c-.065.037-.131.078-.2.12h0l-.045.028h0a5.184,5.184,0,0,0-.454.34h0l-.04.036h0c-.061.05-.114.1-.177.157h0l-.037.036h0a4.681,4.681,0,0,0-.389.428l-.021.027h0c-.051.065-.1.132-.149.2h0l-.031.04h0c-.052.076-.106.154-.154.234.031-.051.066-.1.1-.155h0l-8.32,12.839h0a20.613,20.613,0,0,1-11.833,8.75A20.6,20.6,0,0,0,653.9,283h0c.052-.181.1-.367.148-.55l.059-.249.048-.2c.052-.227.1-.456.146-.689h0a7.779,7.779,0,0,1,.88-2.237l.058-.1A1.612,1.612,0,0,0,655.375,278.776Z" transform="translate(-575.363 -271.628)" fill="#8a8c8e"/>
  <path id="Path_432" data-name="Path 432" d="M650.132,287.371a20.647,20.647,0,0,0-4.8-9.572l-6.437,9.931h0c-.294.456-.606.91-.936,1.34a20.625,20.625,0,0,0,12.175-1.7Z" transform="translate(-573.817 -270.911)" fill="#9c6f4f"/>
  <path id="Path_433" data-name="Path 433" d="M650.691,286.993h0a20.666,20.666,0,0,0-6.54-6.887l-4.7,7.246h0a20.659,20.659,0,0,1-4.9,5.31A20.528,20.528,0,0,0,650.691,286.993Z" transform="translate(-574.379 -270.53)" fill="#bd7f51"/>
  <g id="Group_165" data-name="Group 165" transform="translate(44.253 6.232)">
    <path id="Path_434" data-name="Path 434" d="M636.832,293.105a20.6,20.6,0,0,0,4.878-5.28h0l4.687-7.231a20.525,20.525,0,0,0-25.506,2.4,20.545,20.545,0,0,0,14.947,10.032C636.172,293.073,636.5,293.075,636.832,293.105Z" transform="translate(-620.891 -277.236)" fill="#fdc07e"/>
  </g>
</svg>
