<svg id="Group_380" data-name="Group 380" xmlns="http://www.w3.org/2000/svg" width="122.124" height="43.899" viewBox="0 0 122.124 43.899">
  <g id="Group_163" data-name="Group 163" transform="translate(40.882)">
    <g id="Group_160" data-name="Group 160" transform="translate(3.109)">
      <path id="Path_397" data-name="Path 397" d="M510.262,290.032c.323-.429.637-.861.928-1.31h0l6.431-9.918a20.519,20.519,0,0,0-24.166-4.929A20.462,20.462,0,0,0,510.262,290.032Z" transform="translate(-493.455 -271.888)" fill="#6895ab"/>
    </g>
    <path id="Path_398" data-name="Path 398" d="M525.312,278.78l.053-.084c.055-.082.113-.162.167-.242l.026-.037q.206-.281.435-.545l.011-.009c.072-.083.148-.163.227-.242l.035-.036c.068-.072.138-.142.207-.21l.045-.042c.066-.065.138-.13.208-.192l.05-.042c.072-.061.142-.124.217-.181l.048-.04c.076-.061.153-.114.227-.175a7.874,7.874,0,0,1,1.593-.91h0l-4.1-1.882h0c-.148-.068-.3-.13-.454-.186a4.843,4.843,0,0,0-1.587-.267,2.553,2.553,0,0,0-.314.013h-.068a4.84,4.84,0,0,0-.579.079h0a4.708,4.708,0,0,0-.552.148h0l-.079.027h0a4.621,4.621,0,0,0-.813.373l-.022.012h0c-.068.038-.132.078-.195.114h0l-.048.028h0a5.2,5.2,0,0,0-.456.34h0l-.04.036h0c-.061.05-.119.1-.177.16h0l-.035.036h0a4.246,4.246,0,0,0-.39.428l-.023.027h0c-.052.065-.1.131-.15.2h0l-.029.04h0c-.052.078-.1.155-.155.234.033-.052.065-.1.1-.154h0l-8.333,12.85h0a20.646,20.646,0,0,1-11.845,8.761,20.623,20.623,0,0,0,25.315-14.184h0c.049-.183.1-.366.145-.55.022-.085.042-.168.062-.251l.048-.205c.052-.227.1-.454.148-.682h0a7.827,7.827,0,0,1,.878-2.24l.061-.1C525.225,278.92,525.267,278.85,525.312,278.78Z" transform="translate(-489.509 -271.629)" fill="#8a8c8e"/>
    <path id="Path_399" data-name="Path 399" d="M520.06,287.382a20.626,20.626,0,0,0-4.808-9.578l-6.446,9.941h0c-.295.455-.609.91-.937,1.339a20.619,20.619,0,0,0,12.19-1.7Z" transform="translate(-487.963 -270.911)" fill="#396373"/>
    <path id="Path_400" data-name="Path 400" d="M520.621,287h0a20.658,20.658,0,0,0-6.549-6.894l-4.7,7.253h0a20.781,20.781,0,0,1-4.909,5.314A20.566,20.566,0,0,0,520.621,287Z" transform="translate(-488.527 -270.529)" fill="#537b90"/>
    <g id="Group_162" data-name="Group 162" transform="translate(0 6.236)">
      <path id="Path_414" data-name="Path 414" d="M506.746,293.122a20.7,20.7,0,0,0,4.885-5.284h0l4.695-7.239a20.56,20.56,0,0,0-25.539,2.4,20.567,20.567,0,0,0,14.962,10.038C506.084,293.089,506.41,293.093,506.746,293.122Z" transform="translate(-490.787 -277.24)" fill="#90aebf"/>
    </g>
  </g>
  <g id="Group_378" data-name="Group 378" transform="translate(0 31.507)">
    <path id="Path_616" data-name="Path 616" d="M456.813,304.1H455.7v-1.657h1.109v-.649a2.947,2.947,0,0,1,.712-2.162,2.654,2.654,0,0,1,1.972-.7,5.3,5.3,0,0,1,.91.068,5.747,5.747,0,0,1,.713.164v1.689c-.186-.061-.376-.113-.569-.155a2.773,2.773,0,0,0-.6-.059q-1.159,0-1.16,1.338v.486h2.319v1.64h-2.283v7.02h-2.01Z" transform="translate(-455.704 -298.926)" fill="#6d6e71"/>
    <path id="Path_617" data-name="Path 617" d="M465.175,310.814a2.923,2.923,0,0,1-2.3-.91,3.536,3.536,0,0,1-.812-2.451v-5.568h2v4.957a2.289,2.289,0,0,0,.488,1.571,1.76,1.76,0,0,0,1.382.544,1.89,1.89,0,0,0,1.425-.562,2.172,2.172,0,0,0,.546-1.585v-4.926h2v8.746h-2v-1.374a4.251,4.251,0,0,1-1.077,1.094A2.781,2.781,0,0,1,465.175,310.814Z" transform="translate(-454.654 -298.437)" fill="#6d6e71"/>
    <path id="Path_618" data-name="Path 618" d="M474.581,310.816a5.9,5.9,0,0,1-1.912-.332,6.1,6.1,0,0,1-1.8-.977l.894-1.358a6.274,6.274,0,0,0,1.457.8,3.984,3.984,0,0,0,1.408.273,1.691,1.691,0,0,0,1-.255.806.806,0,0,0,.358-.683v-.033a.651.651,0,0,0-.159-.431,1.337,1.337,0,0,0-.431-.315,4.7,4.7,0,0,0-.629-.248c-.238-.077-.484-.156-.736-.227-.322-.087-.643-.193-.968-.316a3.538,3.538,0,0,1-.88-.471,2.387,2.387,0,0,1-.636-.721,2.086,2.086,0,0,1-.248-1.06v-.033a2.5,2.5,0,0,1,.24-1.109,2.431,2.431,0,0,1,.661-.844,2.936,2.936,0,0,1,.994-.53,3.975,3.975,0,0,1,1.215-.183,5.6,5.6,0,0,1,1.676.265,6.119,6.119,0,0,1,1.538.728l-.8,1.425a6.7,6.7,0,0,0-1.272-.6,3.7,3.7,0,0,0-1.194-.227,1.473,1.473,0,0,0-.9.24.741.741,0,0,0-.322.621v.031a.59.59,0,0,0,.165.424,1.67,1.67,0,0,0,.438.315,4.958,4.958,0,0,0,.629.263c.238.084.484.163.737.24.319.1.642.214.961.348a4.009,4.009,0,0,1,.869.488,2.452,2.452,0,0,1,.637.7,1.951,1.951,0,0,1,.25,1.01v.031a2.739,2.739,0,0,1-.25,1.21,2.368,2.368,0,0,1-.683.854,3.084,3.084,0,0,1-1.036.514A4.546,4.546,0,0,1,474.581,310.816Z" transform="translate(-453.197 -298.457)" fill="#6d6e71"/>
    <path id="Path_619" data-name="Path 619" d="M558.25,310.817a5.915,5.915,0,0,1-1.913-.332,6.045,6.045,0,0,1-1.8-.977l.894-1.358a6.252,6.252,0,0,0,1.457.8,3.958,3.958,0,0,0,1.408.273,1.69,1.69,0,0,0,1-.256.81.81,0,0,0,.354-.688v-.033a.65.65,0,0,0-.156-.431,1.385,1.385,0,0,0-.431-.315,4.779,4.779,0,0,0-.629-.248c-.238-.076-.484-.156-.739-.227-.319-.087-.642-.193-.968-.316a3.5,3.5,0,0,1-.877-.471,2.332,2.332,0,0,1-.636-.721,2.09,2.09,0,0,1-.25-1.06v-.031a2.532,2.532,0,0,1,.24-1.109,2.458,2.458,0,0,1,.663-.845,2.931,2.931,0,0,1,.993-.53,3.99,3.99,0,0,1,1.217-.183,5.593,5.593,0,0,1,1.673.265,6.157,6.157,0,0,1,1.541.728l-.8,1.425a6.716,6.716,0,0,0-1.275-.6,3.691,3.691,0,0,0-1.192-.227,1.485,1.485,0,0,0-.9.24.743.743,0,0,0-.324.621v.031a.6.6,0,0,0,.166.424,1.743,1.743,0,0,0,.438.315,5.3,5.3,0,0,0,.629.263c.238.084.484.163.739.24.319.1.639.214.961.35a4.01,4.01,0,0,1,.869.487,2.487,2.487,0,0,1,.637.7,1.938,1.938,0,0,1,.247,1.01v.031a2.723,2.723,0,0,1-.247,1.21,2.367,2.367,0,0,1-.683.854,3.115,3.115,0,0,1-1.036.514A4.527,4.527,0,0,1,558.25,310.817Z" transform="translate(-439.367 -298.458)" fill="#537b90"/>
    <path id="Path_620" data-name="Path 620" d="M479.157,299.1h2.152v1.905h-2.152Zm.084,3.245h2v8.746h-2Z" transform="translate(-451.827 -298.898)" fill="#6d6e71"/>
    <path id="Path_621" data-name="Path 621" d="M487.945,310.853a4.729,4.729,0,0,1-1.846-.353,4.575,4.575,0,0,1-1.479-.968,4.381,4.381,0,0,1-.968-1.441,4.5,4.5,0,0,1-.349-1.757V306.3a4.422,4.422,0,0,1,.358-1.771,4.569,4.569,0,0,1,.977-1.45,4.66,4.66,0,0,1,3.339-1.351,4.794,4.794,0,0,1,1.863.357,4.586,4.586,0,0,1,1.479.977,4.478,4.478,0,0,1,1.316,3.206v.031a4.4,4.4,0,0,1-.358,1.756,4.522,4.522,0,0,1-2.458,2.433A4.755,4.755,0,0,1,487.945,310.853Zm.035-1.754a2.626,2.626,0,0,0,1.1-.227,2.717,2.717,0,0,0,.837-.6,2.546,2.546,0,0,0,.53-.877,3.1,3.1,0,0,0,.181-1.071v-.031a3.012,3.012,0,0,0-.2-1.092,2.757,2.757,0,0,0-.556-.895,2.642,2.642,0,0,0-.844-.6,2.752,2.752,0,0,0-2.17,0,2.616,2.616,0,0,0-.835.594,2.513,2.513,0,0,0-.53.887,3.2,3.2,0,0,0-.183,1.078v.031a2.93,2.93,0,0,0,.2,1.085,2.779,2.779,0,0,0,.555.887,2.72,2.72,0,0,0,.845.6,2.542,2.542,0,0,0,1.069.228Z" transform="translate(-451.142 -298.463)" fill="#6d6e71"/>
    <path id="Path_622" data-name="Path 622" d="M493.583,301.911h2v1.342a6.4,6.4,0,0,1,.472-.579,2.643,2.643,0,0,1,.6-.488,3.066,3.066,0,0,1,1.665-.456,2.919,2.919,0,0,1,2.3.91,3.526,3.526,0,0,1,.812,2.432v5.582h-2v-4.965a2.318,2.318,0,0,0-.491-1.584,1.745,1.745,0,0,0-1.383-.555,1.882,1.882,0,0,0-1.424.569,2.227,2.227,0,0,0-.545,1.593v4.935h-2Z" transform="translate(-449.443 -298.464)" fill="#6d6e71"/>
    <path id="Path_623" data-name="Path 623" d="M502.92,301.91h2.007v1.972a3.849,3.849,0,0,1,1.174-1.593,2.821,2.821,0,0,1,1.923-.545v2.118h-.113a3.294,3.294,0,0,0-1.208.216,2.537,2.537,0,0,0-.945.647,2.914,2.914,0,0,0-.612,1.085,4.845,4.845,0,0,0-.214,1.517v3.327h-2Z" transform="translate(-447.899 -298.462)" fill="#537b90"/>
    <path id="Path_624" data-name="Path 624" d="M513.151,310.853a4.634,4.634,0,0,1-1.763-.33,4.359,4.359,0,0,1-1.429-.928,4.3,4.3,0,0,1-.96-1.432,4.7,4.7,0,0,1-.351-1.846v-.034a4.917,4.917,0,0,1,.315-1.771,4.473,4.473,0,0,1,.89-1.45,4.193,4.193,0,0,1,1.353-.977,4.082,4.082,0,0,1,1.723-.357,4.146,4.146,0,0,1,1.833.381,3.768,3.768,0,0,1,1.313,1.024,4.513,4.513,0,0,1,.787,1.5,6.039,6.039,0,0,1,.266,1.8c0,.086,0,.178-.008.271s-.015.192-.025.29h-6.427a2.541,2.541,0,0,0,.852,1.648,2.515,2.515,0,0,0,1.665.57,2.948,2.948,0,0,0,1.29-.266,4.211,4.211,0,0,0,1.078-.781l1.174,1.046a4.831,4.831,0,0,1-1.5,1.191A4.5,4.5,0,0,1,513.151,310.853Zm1.972-5.182a3.328,3.328,0,0,0-.214-.9,2.3,2.3,0,0,0-.444-.731,2.129,2.129,0,0,0-.669-.488,2.061,2.061,0,0,0-.884-.181,2.012,2.012,0,0,0-1.525.636,2.886,2.886,0,0,0-.733,1.665Z" transform="translate(-446.953 -298.463)" fill="#537b90"/>
    <path id="Path_625" data-name="Path 625" d="M521.2,311.119a3.59,3.59,0,0,1-1.008-.131,2.1,2.1,0,0,1-.806-.431,1.923,1.923,0,0,1-.52-.785,3.538,3.538,0,0,1-.183-1.218v-4.6h-1.109v-1.724h1.109v-2.4h2v2.4h2.352v1.724h-2.352v4.288a1.086,1.086,0,0,0,.283.838,1.139,1.139,0,0,0,.8.255,2.765,2.765,0,0,0,1.241-.3v1.64a3.686,3.686,0,0,1-.8.332A3.842,3.842,0,0,1,521.2,311.119Z" transform="translate(-445.477 -298.778)" fill="#537b90"/>
    <path id="Path_626" data-name="Path 626" d="M524.532,301.91h2v1.972a3.856,3.856,0,0,1,1.177-1.593,2.815,2.815,0,0,1,1.919-.545v2.118h-.114a3.3,3.3,0,0,0-1.208.216,2.534,2.534,0,0,0-.944.647,2.915,2.915,0,0,0-.612,1.085,4.849,4.849,0,0,0-.216,1.517v3.327h-2.005Z" transform="translate(-444.327 -298.462)" fill="#537b90"/>
    <path id="Path_627" data-name="Path 627" d="M534.77,310.853a4.678,4.678,0,0,1-1.767-.33,4.361,4.361,0,0,1-1.429-.928,4.283,4.283,0,0,1-.959-1.432,4.706,4.706,0,0,1-.352-1.846v-.034a4.97,4.97,0,0,1,.316-1.771,4.45,4.45,0,0,1,.889-1.45,4.206,4.206,0,0,1,1.353-.977,4.086,4.086,0,0,1,1.723-.357,4.152,4.152,0,0,1,1.835.381,3.739,3.739,0,0,1,1.311,1.024,4.536,4.536,0,0,1,.788,1.5,6.044,6.044,0,0,1,.265,1.8c0,.086,0,.178-.007.271s-.015.192-.026.29h-6.427a2.549,2.549,0,0,0,.853,1.648,2.515,2.515,0,0,0,1.664.57,2.929,2.929,0,0,0,1.29-.266,4.164,4.164,0,0,0,1.078-.781l1.177,1.046a4.874,4.874,0,0,1-1.5,1.191A4.511,4.511,0,0,1,534.77,310.853Zm1.969-5.182a3.425,3.425,0,0,0-.213-.9,2.363,2.363,0,0,0-.445-.731,2.157,2.157,0,0,0-.669-.488,2.058,2.058,0,0,0-.882-.181,2.013,2.013,0,0,0-1.526.636,2.888,2.888,0,0,0-.735,1.665Z" transform="translate(-443.38 -298.463)" fill="#537b90"/>
    <path id="Path_628" data-name="Path 628" d="M542.385,310.831a3.978,3.978,0,0,1-1.175-.174,2.926,2.926,0,0,1-.986-.515,2.5,2.5,0,0,1-.937-2.011V308.1a2.762,2.762,0,0,1,.266-1.243,2.43,2.43,0,0,1,.738-.878,3.319,3.319,0,0,1,1.139-.522,5.967,5.967,0,0,1,1.466-.172,7.479,7.479,0,0,1,1.291.1,8.6,8.6,0,0,1,1.06.264v-.214a1.789,1.789,0,0,0-.556-1.425,2.406,2.406,0,0,0-1.615-.478,5.347,5.347,0,0,0-1.326.149,8.533,8.533,0,0,0-1.175.4l-.53-1.573a8.773,8.773,0,0,1,1.49-.523,7.58,7.58,0,0,1,1.805-.188,3.869,3.869,0,0,1,2.9.977,2.992,2.992,0,0,1,.713,1.159,4.8,4.8,0,0,1,.228,1.541v5.183h-1.946v-1.1a3.843,3.843,0,0,1-1.138.9A3.564,3.564,0,0,1,542.385,310.831Zm.569-1.457a3.121,3.121,0,0,0,.926-.134,2.219,2.219,0,0,0,.739-.381,1.931,1.931,0,0,0,.488-.6,1.636,1.636,0,0,0,.181-.763v-.6a5.278,5.278,0,0,0-.884-.248,5.737,5.737,0,0,0-1.1-.1,2.6,2.6,0,0,0-1.516.381,1.238,1.238,0,0,0-.536,1.076v.034a1.134,1.134,0,0,0,.487.977,2.044,2.044,0,0,0,1.213.352Z" transform="translate(-441.888 -298.455)" fill="#537b90"/>
    <path id="Path_629" data-name="Path 629" d="M551.614,311.119a3.607,3.607,0,0,1-1.01-.131,2.052,2.052,0,0,1-.8-.431,1.9,1.9,0,0,1-.522-.785,3.513,3.513,0,0,1-.181-1.218v-4.6h-1.109v-1.724H549.1v-2.4h2v2.4h2.354v1.724H551.1v4.288a1.082,1.082,0,0,0,.283.838,1.139,1.139,0,0,0,.8.255,2.751,2.751,0,0,0,1.241-.3v1.64a3.63,3.63,0,0,1-.8.332A3.832,3.832,0,0,1,551.614,311.119Z" transform="translate(-440.45 -298.778)" fill="#537b90"/>
  </g>
</svg>
