<svg id="Group_382" data-name="Group 382" xmlns="http://www.w3.org/2000/svg" width="113.435" height="44.032" viewBox="0 0 113.435 44.032">
  <g id="Group_377" data-name="Group 377">
    <g id="Group_376" data-name="Group 376" transform="translate(37.045)">
      <path id="Path_364" data-name="Path 364" d="M267.161,278.779l.052-.084c.055-.082.114-.162.168-.242l.024-.037q.206-.282.435-.545l.01-.009c.073-.083.145-.163.227-.242l.036-.036c.066-.072.138-.142.206-.21l.045-.042c.068-.065.139-.13.207-.192l.05-.042c.073-.061.142-.124.218-.181l.048-.04c.075-.061.151-.114.227-.175a7.844,7.844,0,0,1,1.593-.91h0l-4.1-1.882h0c-.148-.068-.3-.131-.456-.186a4.838,4.838,0,0,0-1.587-.267,2.516,2.516,0,0,0-.312.013h-.068a4.9,4.9,0,0,0-.58.079h0a4.7,4.7,0,0,0-.552.148h0l-.08.027h0a4.613,4.613,0,0,0-.812.373l-.023.013h0c-.066.037-.132.077-.193.113h0l-.048.03h0a5.2,5.2,0,0,0-.456.34h0l-.04.036h0c-.061.05-.12.1-.178.16h0l-.035.036h0a4.517,4.517,0,0,0-.39.428l-.022.024h0c-.052.065-.1.13-.15.2h0l-.03.04h0c-.051.078-.1.155-.154.235.033-.052.064-.1.1-.154h0L252.2,288.463h0a20.65,20.65,0,0,1-11.846,8.761,20.623,20.623,0,0,0,25.328-14.2h0c.05-.183.1-.366.145-.55.023-.085.042-.168.063-.251l.048-.205c.052-.227.1-.455.148-.682h0a7.822,7.822,0,0,1,.876-2.24l.061-.1Z" transform="translate(-231.36 -271.629)" fill="#8a8c8e"/>
      <g id="Group_146" data-name="Group 146" transform="translate(3.108)">
        <path id="Path_365" data-name="Path 365" d="M252.111,290.032c.322-.429.637-.861.928-1.31h0l6.43-9.918a20.518,20.518,0,0,0-24.166-4.929,20.462,20.462,0,0,0,16.807,16.157Z" transform="translate(-235.303 -271.888)" fill="#b49aac"/>
      </g>
      <path id="Path_366" data-name="Path 366" d="M261.908,287.381A20.642,20.642,0,0,0,257.1,277.8l-6.445,9.941h0c-.295.454-.611.91-.938,1.339a20.62,20.62,0,0,0,12.19-1.7Z" transform="translate(-229.812 -270.911)" fill="#81707d"/>
      <path id="Path_367" data-name="Path 367" d="M262.467,287h0a20.614,20.614,0,0,0-6.549-6.894l-4.7,7.253h0a20.76,20.76,0,0,1-4.909,5.314A20.56,20.56,0,0,0,262.467,287Z" transform="translate(-230.375 -270.529)" fill="#907d8f"/>
      <g id="Group_147" data-name="Group 147" transform="translate(0 6.233)">
        <path id="Path_368" data-name="Path 368" d="M248.595,293.121a20.7,20.7,0,0,0,4.885-5.285h0l4.694-7.239a20.556,20.556,0,0,0-25.537,2.4A20.565,20.565,0,0,0,247.6,293.04C247.933,293.089,248.263,293.092,248.595,293.121Z" transform="translate(-232.636 -277.237)" fill="#c6b5c0"/>
      </g>
    </g>
    <g id="Group_375" data-name="Group 375" transform="translate(0 31.64)">
      <path id="Path_582" data-name="Path 582" d="M201.955,304.212h-1.109v-1.657h1.109v-.649a2.949,2.949,0,0,1,.714-2.162,2.653,2.653,0,0,1,1.969-.7,5.289,5.289,0,0,1,.91.066,6.275,6.275,0,0,1,.713.167v1.687c-.2-.065-.39-.117-.569-.156a2.936,2.936,0,0,0-.6-.059c-.773,0-1.159.449-1.159,1.338v.486h2.319v1.64h-2.286v7.021h-2.007Z" transform="translate(-200.846 -299.04)" fill="#6d6e71"/>
      <path id="Path_583" data-name="Path 583" d="M210.244,310.927a2.922,2.922,0,0,1-2.3-.91,3.542,3.542,0,0,1-.813-2.449V302h2v4.957a2.289,2.289,0,0,0,.488,1.571,1.76,1.76,0,0,0,1.384.544,1.893,1.893,0,0,0,1.425-.562,2.176,2.176,0,0,0,.544-1.585V302h2v8.746h-2V309.37a4.324,4.324,0,0,1-1.074,1.1A2.8,2.8,0,0,1,210.244,310.927Z" transform="translate(-199.808 -298.551)" fill="#6d6e71"/>
      <path id="Path_584" data-name="Path 584" d="M219.578,310.929a5.876,5.876,0,0,1-1.912-.332,6.067,6.067,0,0,1-1.8-.977l.895-1.356a6.267,6.267,0,0,0,1.455.8,3.963,3.963,0,0,0,1.408.273,1.7,1.7,0,0,0,1-.254.812.812,0,0,0,.355-.684v-.033a.639.639,0,0,0-.156-.431,1.323,1.323,0,0,0-.431-.315,4.642,4.642,0,0,0-.629-.248c-.238-.076-.484-.156-.735-.227-.323-.086-.644-.193-.971-.316a3.5,3.5,0,0,1-.877-.471,2.349,2.349,0,0,1-.637-.721,2.1,2.1,0,0,1-.248-1.06v-.031a2.532,2.532,0,0,1,.238-1.109,2.462,2.462,0,0,1,.665-.845,2.92,2.92,0,0,1,.993-.53,3.99,3.99,0,0,1,1.217-.183,5.6,5.6,0,0,1,1.675.266,6.12,6.12,0,0,1,1.538.727l-.8,1.425a6.817,6.817,0,0,0-1.274-.6,3.69,3.69,0,0,0-1.193-.227,1.484,1.484,0,0,0-.9.24.742.742,0,0,0-.322.621v.033a.6.6,0,0,0,.164.423,1.708,1.708,0,0,0,.442.313,5.134,5.134,0,0,0,.629.266c.235.082.484.162.735.238.32.1.642.214.961.35a3.959,3.959,0,0,1,.869.488,2.431,2.431,0,0,1,.637.7,1.927,1.927,0,0,1,.248,1.01v.031a2.738,2.738,0,0,1-.248,1.21,2.369,2.369,0,0,1-.683.855,3.129,3.129,0,0,1-1.035.513A4.531,4.531,0,0,1,219.578,310.929Z" transform="translate(-198.363 -298.571)" fill="#6d6e71"/>
      <path id="Path_585" data-name="Path 585" d="M224.085,299.213h2.152v1.905h-2.152Zm.082,3.245h2V311.2h-2Z" transform="translate(-197.005 -299.012)" fill="#6d6e71"/>
      <path id="Path_586" data-name="Path 586" d="M232.8,310.967a4.748,4.748,0,0,1-1.846-.354,4.575,4.575,0,0,1-1.479-.968,4.363,4.363,0,0,1-.968-1.442,4.459,4.459,0,0,1-.35-1.757v-.031a4.428,4.428,0,0,1,.358-1.771,4.569,4.569,0,0,1,.977-1.45,4.665,4.665,0,0,1,3.336-1.351,4.785,4.785,0,0,1,1.866.358,4.563,4.563,0,0,1,1.479.975,4.48,4.48,0,0,1,1.316,3.206v.031a4.4,4.4,0,0,1-.358,1.757,4.524,4.524,0,0,1-2.458,2.432A4.758,4.758,0,0,1,232.8,310.967Zm.031-1.755a2.618,2.618,0,0,0,1.1-.227,2.668,2.668,0,0,0,.838-.6,2.534,2.534,0,0,0,.53-.878,3.126,3.126,0,0,0,.181-1.07v-.033a3.014,3.014,0,0,0-.2-1.092,2.753,2.753,0,0,0-.555-.895,2.653,2.653,0,0,0-.845-.6,2.752,2.752,0,0,0-2.17,0,2.611,2.611,0,0,0-.834.6,2.5,2.5,0,0,0-.53.886,3.175,3.175,0,0,0-.183,1.078v.031a2.954,2.954,0,0,0,.2,1.086,2.808,2.808,0,0,0,.556.886,2.727,2.727,0,0,0,.844.6A2.538,2.538,0,0,0,232.832,309.212Z" transform="translate(-196.331 -298.577)" fill="#6d6e71"/>
      <path id="Path_587" data-name="Path 587" d="M238.366,302.024h2.008v1.342a6.826,6.826,0,0,1,.473-.579,2.726,2.726,0,0,1,.6-.488,3.279,3.279,0,0,1,.745-.332,3.184,3.184,0,0,1,.919-.124,2.922,2.922,0,0,1,2.3.91,3.51,3.51,0,0,1,.813,2.433v5.581h-2.009V305.8a2.321,2.321,0,0,0-.488-1.582,1.746,1.746,0,0,0-1.382-.556,1.877,1.877,0,0,0-1.424.569,2.223,2.223,0,0,0-.548,1.593v4.935h-2Z" transform="translate(-194.644 -298.578)" fill="#6d6e71"/>
      <path id="Path_588" data-name="Path 588" d="M247.638,302.023h2v1.972a3.862,3.862,0,0,1,1.173-1.593,2.822,2.822,0,0,1,1.924-.544v2.119h-.114a3.269,3.269,0,0,0-1.21.214,2.538,2.538,0,0,0-.944.647,2.926,2.926,0,0,0-.613,1.085,4.84,4.84,0,0,0-.214,1.516v3.327h-2.007Z" transform="translate(-193.112 -298.576)" fill="#907d8f"/>
      <path id="Path_589" data-name="Path 589" d="M257.793,310.968a4.681,4.681,0,0,1-1.763-.33,4.279,4.279,0,0,1-2.389-2.361,4.732,4.732,0,0,1-.35-1.846V306.4a4.917,4.917,0,0,1,.315-1.771,4.456,4.456,0,0,1,.887-1.45,4.178,4.178,0,0,1,1.351-.974,4.085,4.085,0,0,1,1.727-.358,4.163,4.163,0,0,1,1.833.381,3.749,3.749,0,0,1,1.311,1.024,4.433,4.433,0,0,1,.787,1.5,5.954,5.954,0,0,1,.268,1.8,2.426,2.426,0,0,1-.01.273c-.01.093-.013.191-.024.29h-6.425a2.56,2.56,0,0,0,.854,1.648,2.515,2.515,0,0,0,1.663.569,2.948,2.948,0,0,0,1.293-.266,4.147,4.147,0,0,0,1.076-.781l1.176,1.046a4.83,4.83,0,0,1-1.5,1.191A4.5,4.5,0,0,1,257.793,310.968Zm1.972-5.183a3.537,3.537,0,0,0-.214-.9,2.265,2.265,0,0,0-.446-.728,2.023,2.023,0,0,0-1.551-.671,2.009,2.009,0,0,0-1.525.637,2.886,2.886,0,0,0-.733,1.664Z" transform="translate(-192.177 -298.577)" fill="#907d8f"/>
      <path id="Path_590" data-name="Path 590" d="M265.837,310.929a5.877,5.877,0,0,1-1.912-.332,6.067,6.067,0,0,1-1.8-.977l.895-1.356a6.267,6.267,0,0,0,1.455.8,3.968,3.968,0,0,0,1.408.273,1.7,1.7,0,0,0,1.006-.255.808.808,0,0,0,.355-.683v-.033a.641.641,0,0,0-.158-.431,1.311,1.311,0,0,0-.431-.315,4.645,4.645,0,0,0-.629-.248c-.238-.076-.484-.156-.735-.227a10.173,10.173,0,0,1-.968-.316,3.494,3.494,0,0,1-.88-.471,2.363,2.363,0,0,1-.637-.721,2.1,2.1,0,0,1-.248-1.06v-.031a2.515,2.515,0,0,1,.24-1.109,2.428,2.428,0,0,1,.662-.845,2.951,2.951,0,0,1,.993-.53,4,4,0,0,1,1.219-.183,5.582,5.582,0,0,1,1.672.266,6.12,6.12,0,0,1,1.538.727l-.8,1.425a6.709,6.709,0,0,0-1.274-.6,3.69,3.69,0,0,0-1.193-.227,1.484,1.484,0,0,0-.9.24.742.742,0,0,0-.322.621v.033a.585.585,0,0,0,.167.423,1.6,1.6,0,0,0,.438.313,5.138,5.138,0,0,0,.629.266c.238.082.484.161.735.238.32.1.642.214.961.35a3.959,3.959,0,0,1,.869.488,2.431,2.431,0,0,1,.637.7,1.929,1.929,0,0,1,.251,1.01v.031a2.724,2.724,0,0,1-.251,1.21,2.369,2.369,0,0,1-.683.855,3.106,3.106,0,0,1-1.035.513A4.514,4.514,0,0,1,265.837,310.929Z" transform="translate(-190.716 -298.571)" fill="#907d8f"/>
      <path id="Path_591" data-name="Path 591" d="M295.93,310.929a5.872,5.872,0,0,1-1.912-.332,6.052,6.052,0,0,1-1.8-.977l.894-1.356a6.274,6.274,0,0,0,1.457.8,3.958,3.958,0,0,0,1.408.273,1.7,1.7,0,0,0,1-.254.815.815,0,0,0,.355-.684v-.033a.645.645,0,0,0-.156-.431,1.336,1.336,0,0,0-.431-.315,4.706,4.706,0,0,0-.629-.248c-.238-.076-.484-.156-.736-.227-.322-.086-.643-.193-.968-.316a3.507,3.507,0,0,1-.879-.471,2.319,2.319,0,0,1-.637-.721,2.087,2.087,0,0,1-.248-1.06v-.031a2.532,2.532,0,0,1,.238-1.109,2.458,2.458,0,0,1,.664-.845,2.937,2.937,0,0,1,.994-.53,3.977,3.977,0,0,1,1.215-.183,5.6,5.6,0,0,1,1.676.266,6.122,6.122,0,0,1,1.538.727l-.8,1.425a6.772,6.772,0,0,0-1.272-.6,3.7,3.7,0,0,0-1.194-.227,1.481,1.481,0,0,0-.9.24.742.742,0,0,0-.322.621v.033a.6.6,0,0,0,.163.423,1.708,1.708,0,0,0,.442.313,5.213,5.213,0,0,0,.629.266c.235.082.484.162.736.238.319.1.642.214.961.35a3.957,3.957,0,0,1,.869.488,2.447,2.447,0,0,1,.637.7,1.938,1.938,0,0,1,.248,1.01v.031a2.738,2.738,0,0,1-.248,1.21,2.381,2.381,0,0,1-.683.855,3.134,3.134,0,0,1-1.036.513A4.523,4.523,0,0,1,295.93,310.929Z" transform="translate(-185.742 -298.571)" fill="#907d8f"/>
      <path id="Path_592" data-name="Path 592" d="M274.539,310.967a4.753,4.753,0,0,1-1.846-.354,4.575,4.575,0,0,1-1.479-.968,4.411,4.411,0,0,1-.968-1.442,4.476,4.476,0,0,1-.341-1.757v-.031a4.425,4.425,0,0,1,.354-1.771,4.575,4.575,0,0,1,2.453-2.435,4.687,4.687,0,0,1,1.862-.364,4.773,4.773,0,0,1,1.863.358,4.451,4.451,0,0,1,2.784,4.181v.031a4.441,4.441,0,0,1-.354,1.757,4.536,4.536,0,0,1-2.46,2.432A4.757,4.757,0,0,1,274.539,310.967Zm.034-1.755a2.63,2.63,0,0,0,1.1-.227,2.676,2.676,0,0,0,.837-.6,2.5,2.5,0,0,0,.53-.877,3.122,3.122,0,0,0,.177-1.065v-.031a2.964,2.964,0,0,0-.2-1.092,2.725,2.725,0,0,0-.556-.895,2.63,2.63,0,0,0-.844-.6,2.747,2.747,0,0,0-2.167,0,2.625,2.625,0,0,0-.838.6,2.5,2.5,0,0,0-.53.886,3.2,3.2,0,0,0-.181,1.078v.031a2.884,2.884,0,0,0,.2,1.086,2.743,2.743,0,0,0,.555.886,2.656,2.656,0,0,0,.845.6A2.525,2.525,0,0,0,274.573,309.212Z" transform="translate(-189.431 -298.577)" fill="#907d8f"/>
      <path id="Path_593" data-name="Path 593" d="M280.109,302.023h2v1.972a3.891,3.891,0,0,1,1.177-1.593,2.817,2.817,0,0,1,1.923-.544v2.119H285.1a3.273,3.273,0,0,0-1.21.214,2.538,2.538,0,0,0-.944.647,2.913,2.913,0,0,0-.614,1.085,4.84,4.84,0,0,0-.216,1.516v3.327h-2Z" transform="translate(-187.744 -298.576)" fill="#907d8f"/>
      <path id="Path_594" data-name="Path 594" d="M289.462,311.233a3.651,3.651,0,0,1-1.01-.132,2.041,2.041,0,0,1-.8-.431,1.9,1.9,0,0,1-.523-.784,3.547,3.547,0,0,1-.181-1.219v-4.6h-1.109V302.34h1.109v-2.4h2v2.4h2.35v1.724h-2.35v4.288a1.081,1.081,0,0,0,.28.838,1.141,1.141,0,0,0,.8.255,2.74,2.74,0,0,0,1.242-.3v1.64a3.451,3.451,0,0,1-.8.332A3.854,3.854,0,0,1,289.462,311.233Z" transform="translate(-186.797 -298.892)" fill="#907d8f"/>
    </g>
  </g>
</svg>
