<svg id="Group_159" data-name="Group 159" xmlns="http://www.w3.org/2000/svg" width="105.488" height="44.093" viewBox="0 0 105.488 44.093">
  <g id="Group_158" data-name="Group 158">
    <g id="Group_155" data-name="Group 155" transform="translate(36.18)">
      <path id="Path_380" data-name="Path 380" d="M381.059,290.032c.323-.429.637-.861.928-1.31h0l6.431-9.918a20.519,20.519,0,0,0-24.166-4.929,20.462,20.462,0,0,0,16.806,16.157Z" transform="translate(-364.252 -271.888)" fill="#8eb18e"/>
    </g>
    <path id="Path_381" data-name="Path 381" d="M396.112,278.78l.052-.083c.055-.082.113-.162.167-.242l.026-.037q.206-.281.435-.545l.01-.009c.072-.084.144-.163.227-.242l.035-.036c.068-.072.135-.142.207-.21l.045-.042c.066-.065.138-.13.207-.192l.05-.043c.072-.059.142-.122.217-.179l.048-.04c.075-.061.153-.114.227-.175a7.879,7.879,0,0,1,1.593-.91h0l-4.1-1.882h0c-.148-.068-.3-.131-.454-.186a4.844,4.844,0,0,0-1.587-.267,2.609,2.609,0,0,0-.316.013h-.066a4.828,4.828,0,0,0-.58.079h0a4.713,4.713,0,0,0-.554.148h0l-.079.027h0a4.518,4.518,0,0,0-.815.373l-.021.012h0c-.068.038-.132.078-.195.114h0l-.048.029h0a5.2,5.2,0,0,0-.456.341h0l-.04.036h0c-.059.05-.113.1-.175.16h0l-.037.036h0a4.486,4.486,0,0,0-.388.428l-.023.024h0c-.052.065-.1.13-.15.2h0l-.029.04h0c-.052.078-.1.155-.155.235.033-.052.065-.1.1-.154h0l-8.344,12.863h0a20.656,20.656,0,0,1-11.845,8.761,20.624,20.624,0,0,0,25.328-14.2h0c.051-.183.1-.366.147-.55.023-.085.043-.168.063-.251l.048-.205q.079-.341.145-.682h.008a7.79,7.79,0,0,1,.877-2.24l.061-.1C396.025,278.92,396.07,278.85,396.112,278.78Z" transform="translate(-327.236 -271.629)" fill="#8a8c8e"/>
    <path id="Path_382" data-name="Path 382" d="M390.858,287.382a20.678,20.678,0,0,0-4.807-9.578l-6.446,9.941h0c-.295.455-.609.91-.937,1.339a20.613,20.613,0,0,0,12.188-1.7Z" transform="translate(-325.689 -270.911)" fill="#707f6b"/>
    <path id="Path_383" data-name="Path 383" d="M391.42,287.005h0a20.692,20.692,0,0,0-6.55-6.9l-4.7,7.255h0a20.726,20.726,0,0,1-4.912,5.314A20.571,20.571,0,0,0,391.42,287.005Z" transform="translate(-326.253 -270.53)" fill="#6d8f71"/>
    <g id="Group_156" data-name="Group 156" transform="translate(0 31.588)">
      <path id="Path_384" data-name="Path 384" d="M334.324,304.216H333.2v-1.672h1.12v-.655a2.978,2.978,0,0,1,.72-2.183,2.68,2.68,0,0,1,1.987-.705,5.394,5.394,0,0,1,.919.066,6.325,6.325,0,0,1,.72.168v1.706a5.836,5.836,0,0,0-.577-.156,2.9,2.9,0,0,0-.609-.061c-.78,0-1.17.454-1.17,1.349v.491h2.339v1.654h-2.307V311.3h-2.022Z" transform="translate(-333.204 -298.995)" fill="#6d6e71"/>
      <path id="Path_385" data-name="Path 385" d="M342.786,310.991a2.949,2.949,0,0,1-2.322-.919,3.569,3.569,0,0,1-.82-2.473v-5.616h2.022v5.006a2.3,2.3,0,0,0,.493,1.585,1.777,1.777,0,0,0,1.395.549,1.9,1.9,0,0,0,1.437-.569,2.2,2.2,0,0,0,.552-1.6v-4.971h2.022v8.824h-2.021v-1.386a4.3,4.3,0,0,1-1.087,1.1A2.8,2.8,0,0,1,342.786,310.991Z" transform="translate(-332.14 -298.501)" fill="#6d6e71"/>
      <path id="Path_386" data-name="Path 386" d="M352.31,310.994a5.94,5.94,0,0,1-1.934-.336,6.148,6.148,0,0,1-1.816-.986l.9-1.365a6.3,6.3,0,0,0,1.472.81,4,4,0,0,0,1.42.275,1.705,1.705,0,0,0,1.01-.256.817.817,0,0,0,.359-.7v-.033a.628.628,0,0,0-.161-.435,1.338,1.338,0,0,0-.432-.318,4.946,4.946,0,0,0-.634-.249c-.24-.078-.487-.157-.746-.237-.322-.087-.649-.195-.978-.317a3.537,3.537,0,0,1-.885-.474,2.381,2.381,0,0,1-.646-.727,2.147,2.147,0,0,1-.251-1.07v-.033a2.493,2.493,0,0,1,.91-1.972,2.981,2.981,0,0,1,1.006-.535,3.984,3.984,0,0,1,1.227-.185,5.6,5.6,0,0,1,1.687.267,6.149,6.149,0,0,1,1.554.735l-.8,1.437a6.8,6.8,0,0,0-1.286-.609,3.717,3.717,0,0,0-1.2-.228,1.489,1.489,0,0,0-.91.242.75.75,0,0,0-.328.627v.034a.592.592,0,0,0,.167.428,1.728,1.728,0,0,0,.443.317,5.722,5.722,0,0,0,.635.268c.24.083.487.162.746.24.322.1.644.217.966.352a3.862,3.862,0,0,1,.877.493,2.468,2.468,0,0,1,.646.71,1.956,1.956,0,0,1,.251,1.024v.033a2.768,2.768,0,0,1-.251,1.22,2.386,2.386,0,0,1-.7.862,3.121,3.121,0,0,1-1.042.519A4.576,4.576,0,0,1,352.31,310.994Z" transform="translate(-330.666 -298.522)" fill="#6d6e71"/>
      <path id="Path_387" data-name="Path 387" d="M356.951,299.172h2.172v1.923h-2.172Zm.083,3.276h2.022v8.824h-2.022Z" transform="translate(-329.279 -298.966)" fill="#6d6e71"/>
      <path id="Path_388" data-name="Path 388" d="M365.85,311.031a4.767,4.767,0,0,1-1.862-.357,4.6,4.6,0,0,1-1.487-.978,4.417,4.417,0,0,1-.978-1.456,4.535,4.535,0,0,1-.353-1.772v-.033a4.474,4.474,0,0,1,.357-1.786A4.617,4.617,0,0,1,364,302.193a4.726,4.726,0,0,1,1.88-.368,4.856,4.856,0,0,1,1.88.36,4.513,4.513,0,0,1,2.814,4.218v.033a4.436,4.436,0,0,1-.359,1.772,4.6,4.6,0,0,1-.986,1.462,4.654,4.654,0,0,1-1.5.992A4.8,4.8,0,0,1,365.85,311.031Zm.036-1.769a2.639,2.639,0,0,0,1.109-.227,2.694,2.694,0,0,0,.845-.6,2.569,2.569,0,0,0,.535-.884,3.131,3.131,0,0,0,.182-1.08v-.031a2.966,2.966,0,0,0-.2-1.1,2.737,2.737,0,0,0-.559-.9,2.645,2.645,0,0,0-.856-.612,2.78,2.78,0,0,0-2.19,0,2.623,2.623,0,0,0-.841.6,2.516,2.516,0,0,0-.535.894,3.2,3.2,0,0,0-.185,1.087v.036a2.93,2.93,0,0,0,.2,1.094,2.771,2.771,0,0,0,.561.894,2.706,2.706,0,0,0,.849.611,2.571,2.571,0,0,0,1.079.227Z" transform="translate(-328.581 -298.528)" fill="#6d6e71"/>
      <path id="Path_389" data-name="Path 389" d="M371.563,302.009h2.022v1.355a7.182,7.182,0,0,1,.478-.584,2.741,2.741,0,0,1,.6-.493,3.24,3.24,0,0,1,.752-.334,3.2,3.2,0,0,1,.928-.126,2.951,2.951,0,0,1,2.322.919,3.544,3.544,0,0,1,.82,2.454v5.632h-2.023v-5.007a2.346,2.346,0,0,0-.493-1.593,1.766,1.766,0,0,0-1.395-.559,1.9,1.9,0,0,0-1.437.577,2.244,2.244,0,0,0-.552,1.613v4.978h-2.022Z" transform="translate(-326.864 -298.528)" fill="#6d6e71"/>
      <path id="Path_390" data-name="Path 390" d="M384.141,310.994a5.949,5.949,0,0,1-1.934-.334,6.142,6.142,0,0,1-1.814-.986l.9-1.365a6.276,6.276,0,0,0,1.473.81,4,4,0,0,0,1.419.275,1.705,1.705,0,0,0,1.01-.256.82.82,0,0,0,.36-.7v-.033a.638.638,0,0,0-.161-.435,1.338,1.338,0,0,0-.432-.318,5.058,5.058,0,0,0-.635-.251c-.24-.077-.487-.156-.745-.235-.323-.087-.65-.195-.978-.317a3.564,3.564,0,0,1-.886-.474,2.378,2.378,0,0,1-.644-.727,2.1,2.1,0,0,1-.251-1.07v-.033a2.491,2.491,0,0,1,.91-1.972,2.974,2.974,0,0,1,1-.535,3.989,3.989,0,0,1,1.228-.185,5.606,5.606,0,0,1,1.687.267,6.169,6.169,0,0,1,1.555.735l-.8,1.437a6.836,6.836,0,0,0-1.286-.609,3.723,3.723,0,0,0-1.2-.228,1.489,1.489,0,0,0-.91.242.75.75,0,0,0-.329.627v.034a.6.6,0,0,0,.168.428,1.707,1.707,0,0,0,.443.317,5.62,5.62,0,0,0,.635.268c.24.083.487.162.745.24.322.1.646.217.967.352a3.916,3.916,0,0,1,.877.493,2.469,2.469,0,0,1,.646.71,1.956,1.956,0,0,1,.249,1.024v.033a2.768,2.768,0,0,1-.249,1.22,2.4,2.4,0,0,1-.7.862,3.132,3.132,0,0,1-1.042.519A4.62,4.62,0,0,1,384.141,310.994Z" transform="translate(-325.404 -298.522)" fill="#6d8f71"/>
      <path id="Path_391" data-name="Path 391" d="M391.812,310.991a2.949,2.949,0,0,1-2.322-.919,3.581,3.581,0,0,1-.817-2.473v-5.616h2.019v5.006a2.294,2.294,0,0,0,.5,1.585,1.768,1.768,0,0,0,1.395.549,1.9,1.9,0,0,0,1.437-.569,2.192,2.192,0,0,0,.549-1.6v-4.971h2.023v8.824h-2.023v-1.386a4.284,4.284,0,0,1-1.084,1.1A2.812,2.812,0,0,1,391.812,310.991Z" transform="translate(-324.036 -298.501)" fill="#6d8f71"/>
      <path id="Path_392" data-name="Path 392" d="M398.236,299.172h2.172v1.923h-2.172Zm.083,3.276h2.022v8.824h-2.022Z" transform="translate(-322.455 -298.966)" fill="#6d8f71"/>
      <path id="Path_393" data-name="Path 393" d="M405.924,311.3a3.661,3.661,0,0,1-1.023-.132,2.1,2.1,0,0,1-.811-.435,1.938,1.938,0,0,1-.524-.8,3.532,3.532,0,0,1-.185-1.231v-4.64h-1.12v-1.739h1.12V299.9H405.4v2.423h2.373v1.739H405.4v4.324a1.1,1.1,0,0,0,.284.845,1.138,1.138,0,0,0,.8.258,2.782,2.782,0,0,0,1.252-.3v1.655a3.586,3.586,0,0,1-.81.334A3.864,3.864,0,0,1,405.924,311.3Z" transform="translate(-321.789 -298.845)" fill="#6d8f71"/>
      <path id="Path_394" data-name="Path 394" d="M413.233,311.031a4.693,4.693,0,0,1-1.779-.332,4.365,4.365,0,0,1-1.443-.937,4.309,4.309,0,0,1-.967-1.445,4.729,4.729,0,0,1-.355-1.863v-.035a4.977,4.977,0,0,1,.317-1.788,4.5,4.5,0,0,1,.9-1.462,4.23,4.23,0,0,1,1.365-.985,4.144,4.144,0,0,1,1.74-.36,4.2,4.2,0,0,1,1.85.385,3.817,3.817,0,0,1,1.325,1.035,4.576,4.576,0,0,1,.8,1.513,6.056,6.056,0,0,1,.267,1.814c0,.087,0,.179-.007.275s-.015.192-.026.293h-6.485a2.568,2.568,0,0,0,.86,1.663,2.538,2.538,0,0,0,1.679.577,2.972,2.972,0,0,0,1.3-.268,4.233,4.233,0,0,0,1.087-.787l1.187,1.055a4.946,4.946,0,0,1-1.515,1.2A4.534,4.534,0,0,1,413.233,311.031Zm1.989-5.233a3.348,3.348,0,0,0-.217-.91,2.279,2.279,0,0,0-.447-.735,2.161,2.161,0,0,0-.675-.5,2.085,2.085,0,0,0-.889-.182,2.032,2.032,0,0,0-1.542.643,2.927,2.927,0,0,0-.74,1.679Z" transform="translate(-320.727 -298.528)" fill="#6d8f71"/>
      <path id="Path_395" data-name="Path 395" d="M421.45,310.994a5.948,5.948,0,0,1-1.934-.334,6.2,6.2,0,0,1-1.812-.986l.9-1.365a6.327,6.327,0,0,0,1.471.81,4.014,4.014,0,0,0,1.422.275,1.705,1.705,0,0,0,1.01-.256.817.817,0,0,0,.36-.7v-.033a.632.632,0,0,0-.161-.435,1.317,1.317,0,0,0-.435-.318,4.9,4.9,0,0,0-.635-.251c-.24-.077-.486-.156-.741-.235-.322-.087-.65-.195-.978-.317a3.551,3.551,0,0,1-.887-.474,2.388,2.388,0,0,1-.643-.727,2.112,2.112,0,0,1-.251-1.07v-.033a2.529,2.529,0,0,1,.242-1.12,2.481,2.481,0,0,1,.668-.852,2.976,2.976,0,0,1,1-.535,4.01,4.01,0,0,1,1.231-.185,5.643,5.643,0,0,1,1.687.267,6.25,6.25,0,0,1,1.554.735l-.8,1.437a6.84,6.84,0,0,0-1.287-.609,3.723,3.723,0,0,0-1.2-.228,1.5,1.5,0,0,0-.91.242.75.75,0,0,0-.325.627v.034a.592.592,0,0,0,.167.428,1.654,1.654,0,0,0,.443.317,5.329,5.329,0,0,0,.635.268c.239.083.487.162.741.24.326.1.648.217.97.352a4.007,4.007,0,0,1,.877.493,2.468,2.468,0,0,1,.646.71,1.978,1.978,0,0,1,.249,1.024v.033a2.8,2.8,0,0,1-.249,1.22,2.4,2.4,0,0,1-.7.862,3.132,3.132,0,0,1-1.044.519A4.557,4.557,0,0,1,421.45,310.994Z" transform="translate(-319.237 -298.522)" fill="#6d8f71"/>
    </g>
    <g id="Group_157" data-name="Group 157" transform="translate(33.075 6.234)">
      <path id="Path_396" data-name="Path 396" d="M377.539,293.122a20.73,20.73,0,0,0,4.892-5.285h0l4.695-7.239a20.56,20.56,0,0,0-25.539,2.4,20.567,20.567,0,0,0,14.96,10.038C376.878,293.09,377.208,293.092,377.539,293.122Z" transform="translate(-361.587 -277.239)" fill="#a8c0a7"/>
    </g>
  </g>
</svg>
