<svg xmlns="http://www.w3.org/2000/svg" width="250" height="176.604" viewBox="0 0 250 176.604">
  <g id="Group_1172" data-name="Group 1172" transform="translate(9632 5887.5)">
    <path id="Path_8827" data-name="Path 8827" d="M227.245,238.039l-8.954-14.632h-2.132v22.8h2.879V230.017l8.207,13.459,8.177-13.45V246.2H238.3v-22.8h-2.1Z" transform="translate(-9848.159 -5985.747)" fill="#fff"/>
    <path id="Path_8828" data-name="Path 8828" d="M242.178,223.407,231.9,246.2h3.145l2.684-6.082h10.862L251.3,246.2h3.11l-10.25-22.8Zm-3.253,13.984,4.219-9.566,4.263,9.566Z" transform="translate(-9835.966 -5985.747)" fill="#fff"/>
    <rect id="Rectangle_205" data-name="Rectangle 205" width="2.879" height="22.796" transform="translate(-9575.733 -5762.34)" fill="#fff"/>
    <path id="Path_8829" data-name="Path 8829" d="M263.026,223.407l-10.282,22.8h3.145l2.684-6.082h10.862l2.714,6.082h3.109l-10.25-22.8Zm-3.253,13.984,4.219-9.566,4.263,9.566Z" transform="translate(-9819.812 -5985.747)" fill="#fff"/>
    <path id="Path_8830" data-name="Path 8830" d="M293.783,231c0-4.755-3.063-7.595-8.193-7.595h-8.968v22.8H279.5v-7.245h5.314c.483,0,.98-.018,1.459-.05l5.367,7.295h3.589l-5.947-7.99c2.914-1.157,4.5-3.674,4.5-7.211M279.5,226.225h6.029c4.393,0,5.316,2.616,5.316,4.808,0,3.408-2.039,5.136-6.059,5.136H279.5Z" transform="translate(-9801.31 -5985.747)" fill="#fff"/>
    <path id="Path_8831" data-name="Path 8831" d="M293.26,236.512h10.882v-2.788H293.26v-7.5h12.731v-2.818h-15.61v22.8h16.234v-2.818H293.26Z" transform="translate(-9790.649 -5985.748)" fill="#fff"/>
    <path id="Path_8832" data-name="Path 8832" d="M312.328,233.444c-4.119-1.015-6.212-1.885-6.212-3.819,0-2.107,2-3.466,5.1-3.466a15.231,15.231,0,0,1,6.372,1.409l.788.437,1.342-2.527-.774-.421a18.129,18.129,0,0,0-7.728-1.716c-4.792,0-8.013,2.536-8.013,6.313,0,4.542,4.872,5.724,8.427,6.586,3.825.948,5.765,1.791,5.765,3.759,0,2.282-2.041,3.646-5.463,3.646a12.8,12.8,0,0,1-7.151-1.7l-.8-.394-1.217,2.515.784.392a15.1,15.1,0,0,0,8.386,2c5.087,0,8.372-2.549,8.372-6.492,0-4.533-4.8-5.733-7.98-6.526" transform="translate(-9781.055 -5985.798)" fill="#fff"/>
    <path id="Path_8833" data-name="Path 8833" d="M328.05,223.356a11.51,11.51,0,1,0,11.92,11.5,11.745,11.745,0,0,0-11.92-11.5m0,20.127a8.646,8.646,0,1,1,9.013-8.624,8.85,8.85,0,0,1-9.013,8.624" transform="translate(-9770.721 -5985.787)" fill="#fff"/>
    <path id="Path_8834" data-name="Path 8834" d="M350.818,231c0-4.755-3.063-7.595-8.193-7.595h-8.968v22.8h2.879v-7.245h5.314c.483,0,.98-.018,1.457-.05l5.371,7.295h3.585l-5.944-7.99c2.913-1.157,4.5-3.674,4.5-7.211m-14.282-4.776h6.029c4.393,0,5.316,2.616,5.316,4.808,0,3.408-2.039,5.136-6.059,5.136h-5.286Z" transform="translate(-9757.116 -5985.747)" fill="#fff"/>
    <path id="Path_8835" data-name="Path 8835" d="M346.779,223.407v2.818h7.634V246.2h2.877V226.225h7.662v-2.818Z" transform="translate(-9746.951 -5985.747)" fill="#fff"/>
    <path id="Path_8836" data-name="Path 8836" d="M256.525,244.531a6.824,6.824,0,1,0,0,13.638,7.16,7.16,0,0,0,3.64-.98l1.562,1.294,1.289-1.606-1.228-1a6.65,6.65,0,0,0,1.794-4.524,6.947,6.947,0,0,0-7.057-6.817m2.463,8.956-1.328,1.581.724.612a5.106,5.106,0,0,1-1.86.35,4.693,4.693,0,1,1,4.9-4.682,4.468,4.468,0,0,1-1.271,3.124Z" transform="translate(-9822.364 -5969.379)" fill="#fff"/>
    <path id="Path_8837" data-name="Path 8837" d="M269.918,252.434a3.231,3.231,0,0,1-3.454,3.575c-2.139,0-3.42-1.336-3.42-3.575v-7.875h-2.123V252.5a5.568,5.568,0,1,0,11.135,0v-7.944h-2.139Z" transform="translate(-9813.476 -5969.358)" fill="#fff"/>
    <path id="Path_8838" data-name="Path 8838" d="M276.465,251.057l-3.919-6.5h-2.5l5.357,8.819v4.7h2.139v-4.7l5.356-8.819h-2.517Z" transform="translate(-9806.405 -5969.358)" fill="#fff"/>
    <path id="Path_8839" data-name="Path 8839" d="M295.329,254.058l-7.676-9.43h-.783l-.126-.156v.156h-.632v13.519h2.142V248.71l7.692,9.437h.761l.131.158v-.158h.63V244.628h-2.14Z" transform="translate(-9793.958 -5969.426)" fill="#fff"/>
    <path id="Path_8840" data-name="Path 8840" d="M304.865,250.948H298.5v-6.389h-2.137V258.08H298.5v-5.025h6.363v5.025H307V244.559h-2.139Z" transform="translate(-9786.012 -5969.358)" fill="#fff"/>
    <path id="Path_8841" data-name="Path 8841" d="M312.933,244.531a6.823,6.823,0,1,0,7.059,6.817,6.957,6.957,0,0,0-7.059-6.817m0,11.5a4.692,4.692,0,1,1,4.9-4.682,4.812,4.812,0,0,1-4.9,4.682" transform="translate(-9778.654 -5969.379)" fill="#fff"/>
    <path id="Path_8842" data-name="Path 8842" d="M326.547,244.628v9.432l-7.678-9.432h-.783l-.126-.156v.156h-.628v13.519h2.137v-9.435l7.694,9.435h.763l.13.158v-.158h.628V244.628Z" transform="translate(-9769.766 -5969.426)" fill="#fff"/>
    <path id="Path_8843" data-name="Path 8843" d="M299.19,166.456a7.147,7.147,0,0,1-1.221,10.031,7.067,7.067,0,0,1-3.388,1.447c-.259.012-.525.043-.784.067-.019,0-.052.005-.071.011a12.308,12.308,0,0,0-9.756,17.081c.005.007,0,.02.016.032a1.774,1.774,0,0,1-2.824,1.943.012.012,0,0,1-.011-.014c-.078-.073-.156-.158-.233-.241l-.034-.043c-.259-.289-.509-.595-.753-.905A20.015,20.015,0,0,1,291.6,163.978c.025-.009.057-.011.082-.021.438-.1.873-.169,1.306-.229a.231.231,0,0,1,.062-.005,7.151,7.151,0,0,1,6.136,2.733" transform="translate(-9801.886 -6032.007)" fill="#fff"/>
    <path id="Path_8844" data-name="Path 8844" d="M317.464,194.49a7.148,7.148,0,0,1-11.48-4.611c-.012-.257-.041-.524-.066-.784-.005-.018-.007-.05-.011-.069a12.308,12.308,0,0,0-17.081-9.756c-.007.005-.02,0-.032.014a1.773,1.773,0,0,1-1.943-2.822.012.012,0,0,1,.014-.011c.073-.078.158-.156.241-.234l.043-.032c.287-.259.595-.511.905-.754A20.015,20.015,0,0,1,319.942,186.9c.007.027.011.059.019.083.1.438.17.873.229,1.306a.141.141,0,0,1,.005.062,7.147,7.147,0,0,1-2.732,6.136" transform="translate(-9793.71 -6026.218)" fill="#fff"/>
    <path id="Path_8845" data-name="Path 8845" d="M285.613,212.594a7.24,7.24,0,0,1,1.01-10.184,6.748,6.748,0,0,1,3.381-1.4c.261-.007.527-.032.788-.051.019,0,.051-.005.071-.009a11.7,11.7,0,0,0,6.029-2.432,12.281,12.281,0,0,0,3.422-14.742c-.005-.007-.005-.019-.016-.034a1.763,1.763,0,0,1,.534-2.013,1.792,1.792,0,0,1,2.265.1.012.012,0,0,1,.012.012c.08.076.16.163.24.252l.034.043c.268.3.527.616.779.939,7.048,9,5.781,21.783-2.829,28.524a19,19,0,0,1-8.026,3.683c-.025.009-.057.011-.082.02-.438.089-.877.153-1.312.2a.173.173,0,0,1-.062,0,7.494,7.494,0,0,1-6.239-2.916" transform="translate(-9795.606 -6018.315)" fill="#fff"/>
    <path id="Path_8846" data-name="Path 8846" d="M271.155,180.82a7.146,7.146,0,0,1,10.031,1.221,7.066,7.066,0,0,1,1.446,3.388c.012.259.043.525.067.786l.011.069a12.308,12.308,0,0,0,17.081,9.756c.007-.005.02,0,.034-.014a1.771,1.771,0,0,1,1.988.573,1.789,1.789,0,0,1-.046,2.249.012.012,0,0,1-.014.011c-.073.078-.158.156-.241.234l-.043.032c-.288.259-.595.509-.905.754a20.015,20.015,0,0,1-31.887-11.473c-.009-.027-.011-.059-.019-.083-.1-.438-.17-.873-.231-1.306a.173.173,0,0,1,0-.062,7.147,7.147,0,0,1,2.732-6.136" transform="translate(-9807.676 -6019.923)" fill="#fff"/>
    <path id="Path_8847" data-name="Path 8847" d="M328.024,179.113a7.148,7.148,0,0,1-9.8,2.472,7.068,7.068,0,0,1-2.57-2.641c-.1-.238-.229-.474-.346-.708-.011-.016-.025-.046-.035-.062a12.307,12.307,0,0,0-19.447-2.953c-.005.009-.016.011-.025.027a1.772,1.772,0,0,1-2.827-1.935.011.011,0,0,1,.009-.014,3.339,3.339,0,0,1,.14-.305l.028-.046c.174-.344.371-.689.573-1.029a20.016,20.016,0,0,1,33.878-.776.63.63,0,0,0,.05.071c.248.374.472.754.683,1.136a.21.21,0,0,1,.027.057,7.149,7.149,0,0,1-.339,6.707" transform="translate(-9788.715 -6033.201)" fill="#fff"/>
    <path id="Path_8848" data-name="Path 8848" d="M301.254,222.934a7.148,7.148,0,0,1-3.775-9.375,7.061,7.061,0,0,1,2.268-2.9c.22-.137.438-.291.657-.438.012-.012.039-.03.055-.043a12.31,12.31,0,0,0,.293-19.671c-.007,0-.012-.014-.028-.021a1.772,1.772,0,0,1,1.532-3.063.015.015,0,0,1,.018.007c.1.025.211.062.321.1l.048.021c.366.126.733.273,1.1.428a20.016,20.016,0,0,1,5.356,33.461c-.02.021-.044.039-.064.059-.337.3-.681.572-1.031.832a.312.312,0,0,1-.053.036,7.157,7.157,0,0,1-6.693.57" transform="translate(-9785.594 -6013.659)" fill="#fff"/>
    <path id="Path_8849" data-name="Path 8849" d="M262.489,198.4a7.146,7.146,0,0,1,9.172-4.242,7.061,7.061,0,0,1,3.014,2.119c.147.213.312.424.47.632.014.014.032.041.046.053a12.3,12.3,0,0,0,19.658-.694c0-.009.014-.014.021-.03a1.772,1.772,0,0,1,3.136,1.377.011.011,0,0,1-.007.016c-.02.1-.051.215-.082.327l-.018.05c-.108.371-.238.745-.374,1.116a20.013,20.013,0,0,1-33.15,7.03c-.021-.018-.039-.043-.06-.06-.312-.321-.6-.651-.882-.989a.171.171,0,0,1-.037-.051,7.147,7.147,0,0,1-.907-6.654" transform="translate(-9812.604 -6008.755)" fill="#fff"/>
    <path id="Path_8850" data-name="Path 8850" d="M278.93,157.936a7.147,7.147,0,0,1,1.915,12.222c-.215.142-.43.305-.639.46-.016.012-.041.03-.055.043a12.308,12.308,0,0,0,.362,19.669c.007,0,.012.014.03.021a1.772,1.772,0,0,1-1.43,3.113.013.013,0,0,1-.018-.007c-.1-.023-.213-.055-.323-.089l-.05-.018c-.371-.115-.742-.25-1.111-.392a20.014,20.014,0,0,1-6.467-33.264c.018-.021.044-.041.062-.062.327-.307.662-.591,1-.864a.2.2,0,0,1,.053-.037,7.147,7.147,0,0,1,6.668-.793" transform="translate(-9810.458 -6036.853)" fill="#fff"/>
    <path id="Path_8851" data-name="Path 8851" d="M313.9,209.661a7.147,7.147,0,0,1-5.93-8.182,7.047,7.047,0,0,1,1.5-3.365c.181-.186.357-.389.531-.584.011-.016.032-.039.043-.055a12.307,12.307,0,0,0-4.471-19.156c-.009,0-.016-.012-.034-.014a1.773,1.773,0,0,1,.747-3.344.013.013,0,0,1,.018,0c.107,0,.222.009.335.018l.053.007c.383.035.776.089,1.168.151a20.017,20.017,0,0,1,13.288,31.173c-.014.025-.035.048-.048.073-.256.369-.524.719-.8,1.056a.139.139,0,0,1-.041.046,7.146,7.146,0,0,1-6.356,2.172" transform="translate(-9779.646 -6023.288)" fill="#fff"/>
    <path id="Path_8852" data-name="Path 8852" d="M277.749,214.232a7.154,7.154,0,0,1,10.427-6.624c.216.141.451.268.676.4.018.007.044.023.064.034a12.335,12.335,0,0,0,17.871-8.184.2.2,0,0,0,.007-.035,1.773,1.773,0,0,1,3.424.062.013.013,0,0,1,0,.018c.021.1.036.217.05.332l0,.049c.041.385.067.777.085,1.173a20.029,20.029,0,0,1-27.877,19.175c-.027-.011-.055-.026-.08-.034-.414-.175-.809-.366-1.2-.571a.216.216,0,0,1-.053-.032,7.109,7.109,0,0,1-3.4-5.764" transform="translate(-9800.442 -6005.014)" fill="#fff"/>
    <path id="Path_8853" data-name="Path 8853" d="M265.8,172.911a7.146,7.146,0,0,1,7.172,7.121,7.059,7.059,0,0,1-.937,3.562c-.149.213-.287.442-.428.662l-.036.06a12.31,12.31,0,0,0,7.5,18.185c.009,0,.018.009.036.009a1.772,1.772,0,0,1-.2,3.42.012.012,0,0,1-.018,0c-.1.018-.22.027-.334.037h-.053c-.387.027-.781.037-1.177.037a20.014,20.014,0,0,1-18.141-28.621c.009-.027.027-.053.036-.08.192-.4.4-.793.619-1.171a.186.186,0,0,1,.036-.053,7.147,7.147,0,0,1,5.921-3.168" transform="translate(-9816.322 -6024.875)" fill="#fff"/>
    <path id="Path_8854" data-name="Path 8854" d="M312.7,163.01a7.144,7.144,0,0,1-11.324,4.978c-.192-.172-.4-.337-.609-.5a.471.471,0,0,0-.057-.043,12.308,12.308,0,0,0-18.92,5.383.118.118,0,0,0-.012.034,1.773,1.773,0,0,1-3.376-.586.013.013,0,0,1,0-.018c-.005-.108,0-.222,0-.337l.005-.053c.016-.387.052-.781.094-1.171a20.015,20.015,0,0,1,30.5-14.765c.027.012.05.032.075.043.382.238.742.49,1.093.751a.148.148,0,0,1,.048.041,7.145,7.145,0,0,1,2.474,6.242" transform="translate(-9799.929 -6040.389)" fill="#fff"/>
  </g>
</svg>
